<svg xmlns="http://www.w3.org/2000/svg" viewBox="0 0 344.71 362.7"><defs><style>.cls-1{fill:#f6f6f6;}.cls-2{fill:#3c3c3b;}.cls-3{fill:#ededed;}.cls-4{fill:#1a1a1a;}.cls-5{fill:#fff;}.cls-6{fill:none;stroke:#1d1d1b;stroke-miterlimit:10;stroke-width:3px;}.cls-7{fill:#1d1d1b;}</style></defs><g id="Warstwa_3" data-name="Warstwa 3"><path class="cls-1" d="M15.11,204.48h0v-6.76a.41.41,0,0,1,.41-.4H45.88a.58.58,0,0,1,.18,0H71.5a.76.76,0,0,1,.75.75v7.79H87.49a.9.9,0,0,1,.9.9v45a.89.89,0,0,1-.9.89H65.72a.89.89,0,0,1-.9-.89v-1.93H60.56a.86.86,0,0,1-.83-.67L18.44,207.88l-.08-.12-2.89-2.89-.05-.07-.3-.31h0Z"/><path class="cls-2" d="M64.14,251.77v-1.25H60.56a1.54,1.54,0,0,1-1.42-1L18,208.36a.7.7,0,0,1-.13-.18L15,205.36a.92.92,0,0,1-.11-.14l-.05-.05h-.4v-.39l-.36-.36.36-.27v-6.42a1.08,1.08,0,0,1,1.08-1.08H45.88a1,1,0,0,1,.3.05H71.5a1.43,1.43,0,0,1,1.43,1.42v7.12H87.49a1.57,1.57,0,0,1,1.58,1.57v45a1.58,1.58,0,0,1-1.58,1.57H65.72A1.58,1.58,0,0,1,64.14,251.77Zm7.43-45.19v-8.47a.07.07,0,0,0-.07-.07H45.9l-.09,0h-30v6.21l44.56,44.62,0,.19a.19.19,0,0,0,.17.15H65.5v2.6a.22.22,0,0,0,.22.22H87.49a.22.22,0,0,0,.22-.22v-45a.22.22,0,0,0-.22-.22Z"/><path class="cls-3" d="M3,206.91H17.39l40.74,40.62a.65.65,0,0,1-.64.56H54.81v1.81a.15.15,0,0,1-.14.15h-6.2a.15.15,0,0,1-.14-.15v-1.81H37.82v1.81a.15.15,0,0,1-.14.15H31.47a.15.15,0,0,1-.14-.15v-1.81H28.65a.65.65,0,0,1-.65-.64V242H22.89v7.5a.42.42,0,0,1-.42.42H3a.72.72,0,0,1-.72-.72V207.63A.73.73,0,0,1,3,206.91Z"/><path class="cls-4" d="M30.66,249.9v-1.13h-2a1.32,1.32,0,0,1-1.32-1.32v-4.77H23.57v6.83a1.1,1.1,0,0,1-1.1,1.1H3a1.4,1.4,0,0,1-1.39-1.4V207.63A1.39,1.39,0,0,1,3,206.24H17.67l41.17,41,0,.33a1.33,1.33,0,0,1-1.31,1.15h-2v1.13a.82.82,0,0,1-.82.82h-6.2a.82.82,0,0,1-.82-.82v-1.13H38.5v1.13a.82.82,0,0,1-.82.82H31.47A.81.81,0,0,1,30.66,249.9Zm6.48-2.48H49v2h5.14v-2h2.93l-40-39.84H3l0,0,0,41.62h19.2v-7.92h6.46l0,6.09H32v2h5.13Z"/><rect class="cls-1" x="9.48" y="186.73" width="67.51" height="10.63" rx="1.18" transform="translate(86.47 384.09) rotate(-180)"/><path class="cls-4" d="M8.8,196.18v-8.26a1.87,1.87,0,0,1,1.86-1.87H75.8a1.87,1.87,0,0,1,1.87,1.87v8.26A1.87,1.87,0,0,1,75.8,198H10.66A1.87,1.87,0,0,1,8.8,196.18Zm1.86-8.77a.51.51,0,0,0-.51.51v8.26a.51.51,0,0,0,.51.51H75.8a.51.51,0,0,0,.51-.51v-8.26a.51.51,0,0,0-.51-.51Z"/><rect class="cls-1" x="21.97" y="146.12" width="43.94" height="13.45" rx="1.08" transform="translate(196.78 108.91) rotate(90)"/><path class="cls-4" d="M36.6,173.74V132a1.69,1.69,0,0,1,1.69-1.69h11.3A1.69,1.69,0,0,1,51.28,132v41.79a1.69,1.69,0,0,1-1.69,1.69H38.29A1.69,1.69,0,0,1,36.6,173.74Zm1.69-42.25a.46.46,0,0,0-.46.46v41.79a.45.45,0,0,0,.46.46h11.3a.46.46,0,0,0,.46-.46V132a.47.47,0,0,0-.46-.46Z"/><rect class="cls-4" x="33.05" y="111.4" width="21.78" height="16.14" rx="0.83" transform="translate(163.41 75.54) rotate(90)"/><rect class="cls-5" x="60.01" y="140.74" width="33.31" height="36.13" rx="1.53" transform="translate(235.47 82.14) rotate(90)"/><path class="cls-2" d="M57.92,173.92V143.68a2.21,2.21,0,0,1,2.21-2.21H93.19a2.21,2.21,0,0,1,2.21,2.21v30.24a2.21,2.21,0,0,1-2.21,2.21H60.13A2.21,2.21,0,0,1,57.92,173.92Zm2.21-31.09a.86.86,0,0,0-.86.85v30.24a.86.86,0,0,0,.86.86H93.19a.86.86,0,0,0,.86-.86V143.68a.86.86,0,0,0-.86-.85Z"/><rect class="cls-5" x="72.56" y="121.65" width="8.2" height="33.05" rx="0.73" transform="translate(214.84 61.52) rotate(90)"/><path class="cls-4" d="M59.46,141.55v-6.74a1.41,1.41,0,0,1,1.4-1.41h31.6a1.41,1.41,0,0,1,1.4,1.41v6.74a1.4,1.4,0,0,1-1.4,1.4H60.86A1.4,1.4,0,0,1,59.46,141.55Zm1.4-6.8a.06.06,0,0,0,0,.06v6.74a.05.05,0,0,0,0,0h31.6a0,0,0,0,0,.05,0v-6.74a.06.06,0,0,0-.05-.06Z"/><rect class="cls-4" x="65.58" y="111.08" width="22.29" height="23.96" rx="1.02" transform="translate(199.79 46.34) rotate(90)"/><rect class="cls-4" x="82.39" y="114.66" width="15.63" height="16.8" rx="0.72" transform="translate(213.27 32.86) rotate(90)"/><rect class="cls-4" x="94.37" y="120.37" width="13.32" height="5.39" rx="0.37" transform="translate(224.1 22.03) rotate(90)"/><rect class="cls-4" x="32.66" y="174.37" width="22.55" height="3.07" rx="0.37" transform="translate(87.88 351.81) rotate(-180)"/><rect class="cls-4" x="41.65" y="156.8" width="22.55" height="4.14" rx="0.43" transform="translate(-105.94 211.79) rotate(-90)"/><rect class="cls-4" x="48.68" y="156.8" width="16.53" height="4.14" rx="0.37" transform="translate(-101.93 215.81) rotate(-90)"/><path class="cls-1" d="M16.71,178H71.16a1,1,0,0,1,1,1v2.47a5.26,5.26,0,0,1-5.26,5.26H21a5.26,5.26,0,0,1-5.26-5.26V179a1,1,0,0,1,1-1Z" transform="translate(87.88 364.75) rotate(-180)"/><path class="cls-4" d="M15.06,185.75v-2.47A6,6,0,0,1,21,177.34H66.88a6,6,0,0,1,5.94,5.94v2.47a1.66,1.66,0,0,1-1.66,1.66H16.71A1.66,1.66,0,0,1,15.06,185.75ZM21,178.7a4.59,4.59,0,0,0-4.59,4.58v2.47a.3.3,0,0,0,.3.3H71.16a.3.3,0,0,0,.31-.3v-2.47a4.59,4.59,0,0,0-4.59-4.58Z"/><rect class="cls-5" x="38.09" y="110.89" width="0.68" height="16.65"/><rect class="cls-2" x="38.73" y="141" width="0.68" height="25.11"/><path class="cls-2" d="M61,171.93,61,166.56l6.35-.11.12,6.88-4.85.08h0A1.52,1.52,0,0,1,61,171.93Zm5.19-4.37-4.16.07.07,4.28a.41.41,0,0,0,.41.4h0l3.74-.06Z"/><rect class="cls-5" x="63.59" y="163.52" width="4.72" height="9.88" transform="translate(229.46 245.88) rotate(136.72)"/><line class="cls-6" x1="103.82" y1="122.99" x2="144.72" y2="122.99"/><rect class="cls-1" x="166.98" y="41.53" width="158.67" height="221.69" rx="6.77"/><path class="cls-2" d="M318.88,42.53a5.78,5.78,0,0,1,5.77,5.77V256.46a5.78,5.78,0,0,1-5.77,5.77H173.74a5.77,5.77,0,0,1-5.76-5.77V48.3a5.77,5.77,0,0,1,5.76-5.77H318.88m0-2H173.74A7.76,7.76,0,0,0,166,48.3V256.46a7.76,7.76,0,0,0,7.76,7.77H318.88a7.77,7.77,0,0,0,7.77-7.77V48.3a7.77,7.77,0,0,0-7.77-7.77Z"/><rect class="cls-5" x="189.78" y="181.86" width="49.41" height="57.87" rx="6.52"/><path class="cls-2" d="M232.67,182.86a5.52,5.52,0,0,1,5.52,5.52v44.84a5.52,5.52,0,0,1-5.52,5.51H196.29a5.51,5.51,0,0,1-5.51-5.51V188.38a5.52,5.52,0,0,1,5.51-5.52h36.38m0-2H196.29a7.51,7.51,0,0,0-7.51,7.52v44.84a7.51,7.51,0,0,0,7.51,7.51h36.38a7.52,7.52,0,0,0,7.52-7.51V188.38a7.52,7.52,0,0,0-7.52-7.52Z"/><rect class="cls-2" x="218.73" y="214.97" width="17.31" height="15.41" rx="1.96"/><path class="cls-2" d="M196.1,196.14A1.9,1.9,0,1,0,198,198a1.9,1.9,0,0,0-1.9-1.9Z"/><path class="cls-2" d="M220.42,196.14a1.9,1.9,0,1,0,1.89,1.9,1.9,1.9,0,0,0-1.89-1.9Z"/><path class="cls-2" d="M220.42,206.25a1.9,1.9,0,1,0,1.89,1.89,1.9,1.9,0,0,0-1.89-1.89Z"/><path class="cls-2" d="M196.1,202.27a1.9,1.9,0,1,0,1.9,1.9,1.9,1.9,0,0,0-1.9-1.9Z"/><path class="cls-1" d="M238.22,272.13h22a2.56,2.56,0,0,1,2.56,2.56v12.79a8.53,8.53,0,0,1-8.53,8.53h-10a8.53,8.53,0,0,1-8.53-8.53V274.69A2.56,2.56,0,0,1,238.22,272.13Z"/><path class="cls-2" d="M254.23,297h-10a9.54,9.54,0,0,1-9.53-9.52V274.69a3.56,3.56,0,0,1,3.56-3.56h22a3.56,3.56,0,0,1,3.56,3.56v12.79A9.53,9.53,0,0,1,254.23,297Zm-16-23.87a1.56,1.56,0,0,0-1.56,1.56v12.79a7.53,7.53,0,0,0,7.53,7.52h10a7.53,7.53,0,0,0,7.53-7.52V274.69a1.56,1.56,0,0,0-1.56-1.56Z"/><path class="cls-2" d="M262,272.91h-25.5v-2.8a1.87,1.87,0,0,1,1.86-1.86h21.79a1.86,1.86,0,0,1,1.85,1.86Zm-23.5-2H260v-.66h-21.5Z"/><polygon class="cls-2" points="254.25 262.21 244.17 262.21 237.04 264.24 237.04 267.11 244.17 269.14 254.25 269.14 261.38 267.11 261.38 264.24 254.25 262.21"/><rect class="cls-2" x="239" y="275.29" width="2" height="11.94"/><path class="cls-1" d="M275.75,272.13h22a2.56,2.56,0,0,1,2.56,2.56v12.79a8.53,8.53,0,0,1-8.53,8.53h-10a8.53,8.53,0,0,1-8.53-8.53V274.69A2.56,2.56,0,0,1,275.75,272.13Z"/><path class="cls-2" d="M291.76,297h-10a9.54,9.54,0,0,1-9.53-9.52V274.69a3.56,3.56,0,0,1,3.56-3.56h22a3.56,3.56,0,0,1,3.56,3.56v12.79A9.54,9.54,0,0,1,291.76,297Zm-16-23.87a1.56,1.56,0,0,0-1.56,1.56v12.79a7.53,7.53,0,0,0,7.53,7.52h10a7.53,7.53,0,0,0,7.53-7.52V274.69a1.56,1.56,0,0,0-1.56-1.56Z"/><path class="cls-2" d="M299.49,272.91H274v-2.8a1.86,1.86,0,0,1,1.86-1.86h21.78a1.86,1.86,0,0,1,1.86,1.86Zm-23.5-2h21.5v-.66H276Z"/><polygon class="cls-2" points="291.78 262.21 281.7 262.21 274.57 264.24 274.57 267.11 281.7 269.14 291.78 269.14 298.91 267.11 298.91 264.24 291.78 262.21"/><rect class="cls-2" x="276.53" y="275.29" width="2" height="11.94"/><path class="cls-5" d="M175.32,259.5a4.18,4.18,0,1,1,4.18-4.18A4.18,4.18,0,0,1,175.32,259.5Z"/><path class="cls-2" d="M175.32,252.14a3.18,3.18,0,1,1-3.18,3.18,3.18,3.18,0,0,1,3.18-3.18m0-2a5.18,5.18,0,1,0,5.18,5.18,5.18,5.18,0,0,0-5.18-5.18Z"/><path class="cls-5" d="M317.19,259.5a4.18,4.18,0,1,1,4.18-4.18A4.18,4.18,0,0,1,317.19,259.5Z"/><path class="cls-2" d="M317.19,252.14a3.18,3.18,0,1,1-3.18,3.18,3.19,3.19,0,0,1,3.18-3.18m0-2a5.18,5.18,0,1,0,5.18,5.18,5.18,5.18,0,0,0-5.18-5.18Z"/><path class="cls-5" d="M175.32,53.85a4.18,4.18,0,1,1,4.18-4.18A4.19,4.19,0,0,1,175.32,53.85Z"/><path class="cls-2" d="M175.32,46.49a3.18,3.18,0,1,1-3.18,3.18,3.18,3.18,0,0,1,3.18-3.18m0-2a5.18,5.18,0,1,0,5.18,5.18,5.18,5.18,0,0,0-5.18-5.18Z"/><path class="cls-5" d="M317.19,53.85a4.18,4.18,0,1,1,4.18-4.18A4.18,4.18,0,0,1,317.19,53.85Z"/><path class="cls-2" d="M317.19,46.49A3.18,3.18,0,1,1,314,49.67a3.19,3.19,0,0,1,3.18-3.18m0-2a5.18,5.18,0,1,0,5.18,5.18,5.18,5.18,0,0,0-5.18-5.18Z"/><path class="cls-7" d="M197,169.57a6.88,6.88,0,0,1-2.61-.49,6.77,6.77,0,0,1-2.13-1.37,6.47,6.47,0,0,1-1.44-2,6.46,6.46,0,0,1,0-5,6.47,6.47,0,0,1,1.44-2,6.83,6.83,0,0,1,4.74-1.87,7.08,7.08,0,0,1,2.17.33,5.86,5.86,0,0,1,1.77.88l-.86,1.67a4,4,0,0,0-1.33-.7,5.19,5.19,0,0,0-1.63-.25,4.94,4.94,0,0,0-1.87.35,4.46,4.46,0,0,0-1.49,1,4.39,4.39,0,0,0-1,1.43,4.49,4.49,0,0,0-.35,1.76,4.54,4.54,0,0,0,.35,1.77,4.25,4.25,0,0,0,1,1.42,4.65,4.65,0,0,0,1.49,1,4.94,4.94,0,0,0,1.87.34,5.5,5.5,0,0,0,1.63-.24,4.21,4.21,0,0,0,1.33-.7l.86,1.67a6.15,6.15,0,0,1-1.74.86A6.81,6.81,0,0,1,197,169.57Z"/><path class="cls-7" d="M206.54,169.57a4.83,4.83,0,0,1-2.24-.51,4.1,4.1,0,0,1-1.59-1.44,3.91,3.91,0,0,1-.58-2.13,3.85,3.85,0,0,1,.58-2.12,4,4,0,0,1,1.59-1.44,4.83,4.83,0,0,1,2.24-.52,4.91,4.91,0,0,1,2.25.52,4,4,0,0,1,1.59,1.44,3.94,3.94,0,0,1,.58,2.12,4,4,0,0,1-.58,2.13,4.1,4.1,0,0,1-1.59,1.44A4.9,4.9,0,0,1,206.54,169.57Zm0-1.6a2.51,2.51,0,0,0,1.26-.32,2.32,2.32,0,0,0,.89-.87,2.74,2.74,0,0,0,0-2.57,2.28,2.28,0,0,0-.89-.88,2.7,2.7,0,0,0-2.51,0,2.28,2.28,0,0,0-.89.88,2.46,2.46,0,0,0-.32,1.28,2.52,2.52,0,0,0,.32,1.29,2.32,2.32,0,0,0,.89.87A2.5,2.5,0,0,0,206.54,168Z"/><path class="cls-7" d="M213.18,169.33v-7.68h1.87v.93a3,3,0,0,1,1.06-.84,3.32,3.32,0,0,1,1.51-.33,3.13,3.13,0,0,1,1.56.38,2.59,2.59,0,0,1,1,1.07,3.54,3.54,0,0,1,.37,1.64v4.83h-1.87v-4.44a2.14,2.14,0,0,0-.48-1.49,1.72,1.72,0,0,0-1.31-.52,2,2,0,0,0-1,.24,1.76,1.76,0,0,0-.64.63,1.71,1.71,0,0,0-.22.87v4.71Z"/><path class="cls-7" d="M225.61,169.57a2,2,0,0,1-1.61-.67,2.87,2.87,0,0,1-.57-1.9v-3.93h-1v-1.42h1v-2.87h1.86v2.87h1.76v1.42h-1.76v3.8a1.26,1.26,0,0,0,.2.77.64.64,0,0,0,.57.28,1.16,1.16,0,0,0,.72-.26l.47,1.5a2.94,2.94,0,0,1-.77.3A3.24,3.24,0,0,1,225.61,169.57Z"/><path class="cls-7" d="M229.39,169.33v-7.68h1.86v1.12a2.82,2.82,0,0,1,1-1,2.65,2.65,0,0,1,1.34-.35,3.12,3.12,0,0,1,.78.11,2.84,2.84,0,0,1,.68.27l-.78,1.57a2.2,2.2,0,0,0-.56-.24,2.77,2.77,0,0,0-.61-.08,1.84,1.84,0,0,0-.9.24,2.16,2.16,0,0,0-.7.64,1.45,1.45,0,0,0-.27.84v4.57Z"/><path class="cls-7" d="M240.3,169.57a4.9,4.9,0,0,1-2.25-.51,4.14,4.14,0,0,1-1.58-1.44,3.92,3.92,0,0,1-.59-2.13,3.86,3.86,0,0,1,.59-2.12,4.07,4.07,0,0,1,1.58-1.44,5.13,5.13,0,0,1,4.5,0,4.07,4.07,0,0,1,1.58,1.44,3.86,3.86,0,0,1,.59,2.12,3.92,3.92,0,0,1-.59,2.13,4.14,4.14,0,0,1-1.58,1.44A4.9,4.9,0,0,1,240.3,169.57Zm0-1.6a2.56,2.56,0,0,0,1.26-.32,2.3,2.3,0,0,0,.88-.87,2.67,2.67,0,0,0,0-2.57,2.26,2.26,0,0,0-.88-.88,2.56,2.56,0,0,0-1.26-.31,2.53,2.53,0,0,0-1.26.31,2.32,2.32,0,0,0-.88.88,2.46,2.46,0,0,0-.33,1.28,2.53,2.53,0,0,0,.33,1.29,2.37,2.37,0,0,0,.88.87A2.54,2.54,0,0,0,240.3,168Z"/><path class="cls-7" d="M246.94,169.33v-12.9h1.86v12.9Z"/><path class="cls-7" d="M258.51,169.33,253.32,157h2.22l3.75,9.42L263,157h2.22l-5.19,12.37Z"/><line class="cls-6" x1="286.74" y1="313.6" x2="286.74" y2="297"/><line class="cls-6" x1="343.2" y1="121.43" x2="343.2" y2="312.54"/><line class="cls-6" x1="285.25" y1="312.54" x2="344.69" y2="312.54"/><line class="cls-6" x1="250.59" y1="312.18" x2="250.59" y2="295.58"/><line class="cls-6" x1="143.22" y1="121.54" x2="143.22" y2="311.12"/><line class="cls-6" x1="252.09" y1="311.12" x2="141.72" y2="311.12"/></g></svg>