<svg xmlns="http://www.w3.org/2000/svg" viewBox="0 0 355.34 216.76"><defs><style>.cls-1{fill:#f6f6f6;}.cls-2{fill:#3c3c3b;}.cls-3{fill:#fff;}.cls-4{fill:#1d1d1b;}</style></defs><g id="Warstwa_3" data-name="Warstwa 3"><rect class="cls-1" x="0.62" y="0.62" width="354.11" height="215.52" rx="6.79"/><path class="cls-2" d="M347.93,216.76H7.41A7.41,7.41,0,0,1,0,209.35V7.41A7.41,7.41,0,0,1,7.41,0H347.93a7.41,7.41,0,0,1,7.41,7.41V209.35A7.41,7.41,0,0,1,347.93,216.76ZM7.41,1.24A6.17,6.17,0,0,0,1.24,7.41V209.35a6.17,6.17,0,0,0,6.17,6.17H347.93a6.18,6.18,0,0,0,6.18-6.17V7.41a6.18,6.18,0,0,0-6.18-6.17Z"/><path class="cls-3" d="M.77,36.42H335.06a1.87,1.87,0,0,1,1.87,1.87V182.81a1.87,1.87,0,0,1-1.87,1.87H.62a0,0,0,0,1,0,0V36.58A.16.16,0,0,1,.77,36.42Z"/><path class="cls-2" d="M335.06,185.3H0V36.58a.78.78,0,0,1,.77-.78H335.06a2.5,2.5,0,0,1,2.49,2.49V182.81A2.5,2.5,0,0,1,335.06,185.3ZM1.24,184.06H335.06a1.25,1.25,0,0,0,1.25-1.25V38.29A1.25,1.25,0,0,0,335.06,37H1.24Z"/><path class="cls-1" d="M.78,79.65H12a1.87,1.87,0,0,1,1.87,1.87v53.69A1.87,1.87,0,0,1,12,137.08H.62a0,0,0,0,1,0,0V79.81A.16.16,0,0,1,.78,79.65Z"/><path class="cls-2" d="M12,137.7H0V79.81A.78.78,0,0,1,.78,79H12a2.5,2.5,0,0,1,2.49,2.49v53.69A2.5,2.5,0,0,1,12,137.7ZM1.24,136.46H12a1.26,1.26,0,0,0,1.26-1.25V81.52A1.26,1.26,0,0,0,12,80.27H1.24Z"/><path class="cls-2" d="M354.57,185.3H339.13a2.5,2.5,0,0,1-2.49-2.49V38.29a2.5,2.5,0,0,1,2.49-2.49h16.21V184.52A.78.78,0,0,1,354.57,185.3ZM339.13,37a1.25,1.25,0,0,0-1.25,1.25V182.81a1.25,1.25,0,0,0,1.25,1.25h15V37Z"/><path class="cls-2" d="M346.3,66.85a5.3,5.3,0,1,1,5.3-5.3A5.3,5.3,0,0,1,346.3,66.85Zm0-9.37a4.07,4.07,0,1,0,4.06,4.07A4.08,4.08,0,0,0,346.3,57.48Z"/><rect class="cls-2" x="309.98" y="138.18" width="1.78" height="43.46" transform="translate(417.62 492.8) rotate(-135)"/><rect class="cls-2" x="316.12" y="157.13" width="1.74" height="17.79" transform="translate(423.74 507.57) rotate(-135)"/><rect class="cls-2" x="304.54" y="145.56" width="1.74" height="17.79" transform="translate(412.16 479.63) rotate(-135)"/><path class="cls-4" d="M98.5,15.79a3.81,3.81,0,0,1-2.72-1.08l.64-1.52a2.62,2.62,0,0,0,1.82.84,1.74,1.74,0,0,0,1.39-.58,2.43,2.43,0,0,0,.5-1.62V4H102v8.3a3.46,3.46,0,0,1-.92,2.56A3.44,3.44,0,0,1,98.5,15.79Z"/><path class="cls-4" d="M108.29,15.79a4.22,4.22,0,0,1-2.06-.5,3.75,3.75,0,0,1-1.44-1.35,3.66,3.66,0,0,1-.52-1.94,3.89,3.89,0,0,1,.29-1.5,3.92,3.92,0,0,1,2.08-2,3.87,3.87,0,0,1,1.53-.3,4,4,0,0,1,2,.47,3.34,3.34,0,0,1,1.32,1.29,3.83,3.83,0,0,1,.47,1.91,1,1,0,0,0,0,.16,1.06,1.06,0,0,1,0,.2h-5.83a2.15,2.15,0,0,0,.29,1.14,2,2,0,0,0,.82.77,2.53,2.53,0,0,0,1.22.28,2.5,2.5,0,0,0,1.15-.26,2.88,2.88,0,0,0,.93-.8l1.26.65a3.54,3.54,0,0,1-1.41,1.33A4.27,4.27,0,0,1,108.29,15.79Zm-2.17-4.68h4.07a1.87,1.87,0,0,0-.37-.85,2,2,0,0,0-.71-.56,2.24,2.24,0,0,0-1-.2,2.4,2.4,0,0,0-1,.2,1.74,1.74,0,0,0-.7.55A1.89,1.89,0,0,0,106.12,11.11Z"/><path class="cls-4" d="M117,15.79a3.35,3.35,0,0,1-1.79-.49A3.44,3.44,0,0,1,114,14a4,4,0,0,1-.47-2,4,4,0,0,1,.46-2,3.62,3.62,0,0,1,1.27-1.36,3.46,3.46,0,0,1,1.85-.5,3.36,3.36,0,0,1,1.52.35,3,3,0,0,1,1.12,1v-6h1.74V15.57h-1.74V14.42A3.27,3.27,0,0,1,117,15.79Zm.5-1.49a2.19,2.19,0,0,0,1.15-.3,2,2,0,0,0,.79-.82,2.48,2.48,0,0,0,.29-1.2,2.44,2.44,0,0,0-.29-1.19,2.08,2.08,0,0,0-.79-.82,2.34,2.34,0,0,0-2.29,0,2.15,2.15,0,0,0-.79.82,2.48,2.48,0,0,0-.29,1.2,2.41,2.41,0,0,0,.29,1.19,2.12,2.12,0,0,0,.78.82A2.22,2.22,0,0,0,117.53,14.3Z"/><path class="cls-4" d="M124.15,15.57V8.4h1.75v.86a2.77,2.77,0,0,1,1-.78,3.18,3.18,0,0,1,1.41-.31,2.94,2.94,0,0,1,1.45.35,2.46,2.46,0,0,1,1,1,3.19,3.19,0,0,1,.35,1.52v4.52h-1.75V11.42a2,2,0,0,0-.44-1.39,1.6,1.6,0,0,0-1.23-.48,1.8,1.8,0,0,0-.93.22,1.48,1.48,0,0,0-.6.59,1.58,1.58,0,0,0-.21.81v4.4Z"/><path class="cls-4" d="M137.15,15.79a4.51,4.51,0,0,1-2.1-.48A3.71,3.71,0,0,1,133.57,14a3.84,3.84,0,0,1,0-4,3.76,3.76,0,0,1,1.48-1.34,4.72,4.72,0,0,1,4.19,0A3.69,3.69,0,0,1,140.72,10a3.55,3.55,0,0,1,.55,2,3.55,3.55,0,0,1-.55,2,3.65,3.65,0,0,1-1.48,1.35A4.5,4.5,0,0,1,137.15,15.79Zm0-1.5a2.42,2.42,0,0,0,1.17-.29,2.18,2.18,0,0,0,.83-.82,2.32,2.32,0,0,0,.3-1.2,2.38,2.38,0,0,0-.3-1.2,2.09,2.09,0,0,0-.83-.81A2.45,2.45,0,0,0,136,10a2.13,2.13,0,0,0-.82.81,2.48,2.48,0,0,0,0,2.4A2.22,2.22,0,0,0,136,14,2.43,2.43,0,0,0,137.15,14.29Z"/><path class="cls-4" d="M145.29,15.79a3.63,3.63,0,0,1-1.61-.34,2.85,2.85,0,0,1-1.14-1l.77-1.13a3.2,3.2,0,0,0,.92.85,2,2,0,0,0,1.05.3,1.38,1.38,0,0,0,.59-.12,1,1,0,0,0,.42-.36,1,1,0,0,0,.15-.56.76.76,0,0,0-.17-.52,1.62,1.62,0,0,0-.53-.35l-.88-.37a7.42,7.42,0,0,1-.85-.41,2.1,2.1,0,0,1-.67-.58,1.52,1.52,0,0,1-.26-.9,1.85,1.85,0,0,1,.34-1.11,2.24,2.24,0,0,1,1-.75,3.26,3.26,0,0,1,1.39-.28,3.5,3.5,0,0,1,1.13.2A4.85,4.85,0,0,1,148,9l-.64,1.1a2.48,2.48,0,0,0-1.6-.69,1.19,1.19,0,0,0-.76.23.71.71,0,0,0-.29.58.64.64,0,0,0,.25.49,2.51,2.51,0,0,0,.61.35c.24.11.48.2.73.3a7.26,7.26,0,0,1,1,.45,1.75,1.75,0,0,1,.68.61,1.78,1.78,0,0,1,.25,1,2.18,2.18,0,0,1-1.39,2.12A4,4,0,0,1,145.29,15.79Z"/><path class="cls-4" d="M152.49,15.79a1.87,1.87,0,0,1-1.5-.63,2.64,2.64,0,0,1-.54-1.77V9.72h-.89V8.4h.89V5.72h1.74V8.4h1.64V9.72h-1.64v3.55a1.16,1.16,0,0,0,.19.72.6.6,0,0,0,.52.25,1.12,1.12,0,0,0,.68-.23l.44,1.4a3.38,3.38,0,0,1-.72.28A3.27,3.27,0,0,1,152.49,15.79Z"/><path class="cls-4" d="M156,15.57v-12h1.74v7.6l2.73-2.73h2.27l-3.43,3.46,3.59,3.71h-2.24l-2.92-3v3Z"/><path class="cls-4" d="M167.26,15.79a3.38,3.38,0,0,1-1.8-.49,3.49,3.49,0,0,1-1.28-1.36,4,4,0,0,1-.48-2,4.13,4.13,0,0,1,.46-2,3.51,3.51,0,0,1,1.27-1.35,3.31,3.31,0,0,1,1.83-.51,3.49,3.49,0,0,1,1.55.35,2.88,2.88,0,0,1,1.12,1V8.4h1.74v7.17h-1.74V14.42a3.49,3.49,0,0,1-1.16,1A3.21,3.21,0,0,1,167.26,15.79Zm.5-1.49a2.22,2.22,0,0,0,1.15-.3,2.12,2.12,0,0,0,.78-.82,2.61,2.61,0,0,0,0-2.39,2.15,2.15,0,0,0-.78-.83,2.43,2.43,0,0,0-2.3,0,2.1,2.1,0,0,0-.79.83,2.44,2.44,0,0,0-.29,1.19,2.51,2.51,0,0,0,.29,1.2,2.08,2.08,0,0,0,.79.82A2.17,2.17,0,0,0,167.76,14.3Z"/><path class="cls-4" d="M181.1,15.79a5.06,5.06,0,0,1-1.51-.21,5.29,5.29,0,0,1-1.2-.52,5.82,5.82,0,0,1-.86-.63,6.68,6.68,0,0,1-.53-.52l1-1.48c.13.14.3.3.5.48a5,5,0,0,0,.69.55,4.21,4.21,0,0,0,.9.45,3,3,0,0,0,1.1.19,2.49,2.49,0,0,0,1-.2,1.61,1.61,0,0,0,.72-.56,1.55,1.55,0,0,0,.26-.93,1.57,1.57,0,0,0-.2-.83,1.87,1.87,0,0,0-.57-.59,4.52,4.52,0,0,0-.88-.49c-.34-.16-.72-.32-1.14-.49a8.11,8.11,0,0,1-.88-.45,4.64,4.64,0,0,1-.79-.59,2.58,2.58,0,0,1-.57-.81,2.54,2.54,0,0,1-.21-1.06,3.15,3.15,0,0,1,.26-1.25A3.37,3.37,0,0,1,180,4.07a4,4,0,0,1,1.45-.26,4.16,4.16,0,0,1,1.27.19,5.13,5.13,0,0,1,1.12.49,4.39,4.39,0,0,1,.83.63l-.8,1.4a3.33,3.33,0,0,0-.63-.51,3.65,3.65,0,0,0-.82-.39,2.88,2.88,0,0,0-.93-.15,2,2,0,0,0-1,.23,1.62,1.62,0,0,0-.61.58,1.53,1.53,0,0,0-.21.79,1.17,1.17,0,0,0,.15.61,1.43,1.43,0,0,0,.41.44,3.88,3.88,0,0,0,.61.33l.74.3q.76.32,1.41.63a5.52,5.52,0,0,1,1.12.71,2.82,2.82,0,0,1,.74.95,3,3,0,0,1,.26,1.32,3.12,3.12,0,0,1-1.93,3A4.94,4.94,0,0,1,181.1,15.79Z"/><path class="cls-4" d="M189.58,15.79a1.88,1.88,0,0,1-1.51-.63,2.64,2.64,0,0,1-.54-1.77V9.72h-.88V8.4h.88V5.72h1.74V8.4h1.65V9.72h-1.65v3.55a1.23,1.23,0,0,0,.19.72.61.61,0,0,0,.53.25,1.14,1.14,0,0,0,.68-.23l.43,1.4a3.38,3.38,0,0,1-.72.28A3.19,3.19,0,0,1,189.58,15.79Z"/><path class="cls-4" d="M196.51,15.79a4.27,4.27,0,0,1-2.06-.5A3.79,3.79,0,0,1,193,13.94a3.67,3.67,0,0,1-.53-1.94,3.72,3.72,0,0,1,.3-1.5,3.92,3.92,0,0,1,2.08-2,3.85,3.85,0,0,1,1.52-.3,4,4,0,0,1,2,.47,3.25,3.25,0,0,1,1.31,1.29,3.74,3.74,0,0,1,.48,1.91,1,1,0,0,0,0,.16,1.78,1.78,0,0,0,0,.2h-5.84a2.16,2.16,0,0,0,.3,1.14,2,2,0,0,0,.82.77,2.51,2.51,0,0,0,1.21.28,2.54,2.54,0,0,0,1.16-.26,2.76,2.76,0,0,0,.92-.8L200,14a3.51,3.51,0,0,1-1.42,1.33A4.24,4.24,0,0,1,196.51,15.79Zm-2.16-4.68h4.07a2,2,0,0,0-.37-.85,2.06,2.06,0,0,0-.71-.56,2.28,2.28,0,0,0-1-.2,2.4,2.4,0,0,0-1,.2,1.74,1.74,0,0,0-.7.55A1.89,1.89,0,0,0,194.35,11.11Z"/><path class="cls-4" d="M202.23,15.57V8.4H204v1a2.64,2.64,0,0,1,.94-.94,2.47,2.47,0,0,1,1.26-.33,3.12,3.12,0,0,1,.72.1,3,3,0,0,1,.64.25L206.8,10a1.84,1.84,0,0,0-.53-.22,2.36,2.36,0,0,0-.56-.08,1.71,1.71,0,0,0-.84.23,1.85,1.85,0,0,0-.65.59,1.37,1.37,0,0,0-.25.79v4.27Z"/><path class="cls-4" d="M212.27,15.79a3.78,3.78,0,0,1-2.65-.76,3.33,3.33,0,0,1-.81-2.51V8.4h1.75v3.73a2.93,2.93,0,0,0,.38,1.73,1.59,1.59,0,0,0,1.33.5,1.56,1.56,0,0,0,1.32-.5,2.92,2.92,0,0,0,.39-1.73V8.4h1.74v4.12a3.37,3.37,0,0,1-.8,2.51A3.78,3.78,0,0,1,212.27,15.79Z"/><path class="cls-4" d="M217.73,19.42a3.7,3.7,0,0,1-.87-.11,2.36,2.36,0,0,1-.73-.29l.53-1.4a1.18,1.18,0,0,0,.73.24c.59,0,.88-.41.88-1.23V8.4H220v8.51a2.67,2.67,0,0,1-.6,1.85A2.16,2.16,0,0,1,217.73,19.42Zm1.41-12.5a1.1,1.1,0,0,1-.53-.14,1.18,1.18,0,0,1-.38-.39,1,1,0,0,1-.14-.53,1,1,0,0,1,.14-.53,1.18,1.18,0,0,1,.38-.39,1.1,1.1,0,0,1,.53-.14,1,1,0,0,1,.53.14,1.21,1.21,0,0,1,.39.39,1.07,1.07,0,0,1,0,1.06,1.21,1.21,0,0,1-.39.39A1,1,0,0,1,219.14,6.92Z"/><path class="cls-4" d="M225.74,15.79a3.33,3.33,0,0,1-1.8-.49,3.59,3.59,0,0,1-1.29-1.36,4.06,4.06,0,0,1-.47-2,4,4,0,0,1,.46-2,3.56,3.56,0,0,1,1.26-1.35,3.37,3.37,0,0,1,1.84-.51,3.45,3.45,0,0,1,1.54.35,2.75,2.75,0,0,1,1.12,1V8.4h1.75v7.17H228.4V14.42a3.31,3.31,0,0,1-1.16,1A3.17,3.17,0,0,1,225.74,15.79Zm.49-1.49a2.23,2.23,0,0,0,1.16-.3,2.12,2.12,0,0,0,.78-.82,2.42,2.42,0,0,0,.28-1.2,2.43,2.43,0,0,0-.28-1.19,2.18,2.18,0,0,0-.79-.83,2.41,2.41,0,0,0-2.29,0,2.1,2.1,0,0,0-.79.83A2.33,2.33,0,0,0,224,12a2.4,2.4,0,0,0,.29,1.2,2.12,2.12,0,0,0,.78.82A2.22,2.22,0,0,0,226.23,14.3Zm3.59,5.18a1.78,1.78,0,0,1-1.26-.46,1.48,1.48,0,0,1-.5-1.12,2.38,2.38,0,0,1,.32-1.08,6.53,6.53,0,0,1,.91-1.25h.86a5.17,5.17,0,0,0-.75,1.11,2.23,2.23,0,0,0-.28,1,.81.81,0,0,0,.22.58.79.79,0,0,0,.63.24,1.22,1.22,0,0,0,.56-.14,1.64,1.64,0,0,0,.48-.41l.73.54a2.23,2.23,0,0,1-.84.74A2.28,2.28,0,0,1,229.82,19.48Z"/><path class="cls-4" d="M236.2,15.79a4.12,4.12,0,0,1-1.53-.29,3.93,3.93,0,0,1-1.27-.81,3.68,3.68,0,0,1-.85-1.21,3.69,3.69,0,0,1,0-3,3.78,3.78,0,0,1,2.09-2,4.11,4.11,0,0,1,1.57-.31,4.27,4.27,0,0,1,1.34.21,3.19,3.19,0,0,1,1.06.53L238,10.09a2.41,2.41,0,0,0-1.53-.47,2.38,2.38,0,0,0-1.27.33,2.24,2.24,0,0,0-.83.87,2.35,2.35,0,0,0-.29,1.16,2.44,2.44,0,0,0,.3,1.21,2.26,2.26,0,0,0,.86.85,2.51,2.51,0,0,0,1.24.31,2.55,2.55,0,0,0,.84-.13,2.22,2.22,0,0,0,.67-.34l.63,1.18a3.49,3.49,0,0,1-1.06.52A4.16,4.16,0,0,1,236.2,15.79Z"/><path class="cls-4" d="M243.44,15.79a3.38,3.38,0,0,1-1.8-.49,3.49,3.49,0,0,1-1.28-1.36,4,4,0,0,1-.47-2,4.12,4.12,0,0,1,.45-2,3.51,3.51,0,0,1,1.27-1.35,3.34,3.34,0,0,1,1.83-.51,3.49,3.49,0,0,1,1.55.35,2.88,2.88,0,0,1,1.12,1V8.4h1.74v7.17h-1.74V14.42a3.49,3.49,0,0,1-1.16,1A3.21,3.21,0,0,1,243.44,15.79Zm.5-1.49a2.19,2.19,0,0,0,1.15-.3,2.12,2.12,0,0,0,.78-.82,2.61,2.61,0,0,0,0-2.39,2.15,2.15,0,0,0-.78-.83,2.43,2.43,0,0,0-2.3,0,2.1,2.1,0,0,0-.79.83,2.44,2.44,0,0,0-.29,1.19,2.51,2.51,0,0,0,.29,1.2,2.08,2.08,0,0,0,.79.82A2.17,2.17,0,0,0,243.94,14.3Z"/><path class="cls-4" d="M252.88,17.25l5.77-13.72h1.46l-5.76,13.72Z"/><path class="cls-4" d="M138.77,32.59a6.38,6.38,0,0,1-4.43-1.74A5.92,5.92,0,0,1,133,28.94a5.94,5.94,0,0,1,0-4.68,5.92,5.92,0,0,1,1.33-1.91,6.33,6.33,0,0,1,4.43-1.74,6.78,6.78,0,0,1,2,.3,5.54,5.54,0,0,1,1.65.82l-.8,1.56a3.8,3.8,0,0,0-1.25-.65,4.79,4.79,0,0,0-1.52-.23,4.49,4.49,0,0,0-1.74.32A4.15,4.15,0,0,0,134.83,25a4.29,4.29,0,0,0-.32,1.65,4.24,4.24,0,0,0,.32,1.64,4.16,4.16,0,0,0,.92,1.34,4.36,4.36,0,0,0,1.39.89,4.68,4.68,0,0,0,1.74.32,5.08,5.08,0,0,0,1.52-.23,3.8,3.8,0,0,0,1.25-.65l.8,1.55a5.79,5.79,0,0,1-1.63.82A6.48,6.48,0,0,1,138.77,32.59Z"/><path class="cls-4" d="M147.72,32.59a4.5,4.5,0,0,1-2.09-.48,3.65,3.65,0,0,1-1.48-1.35,3.84,3.84,0,0,1,0-4,3.69,3.69,0,0,1,1.48-1.34,4.72,4.72,0,0,1,4.19,0,3.76,3.76,0,0,1,1.48,1.34,3.84,3.84,0,0,1,0,4,3.71,3.71,0,0,1-1.48,1.35A4.51,4.51,0,0,1,147.72,32.59Zm0-1.5a2.43,2.43,0,0,0,1.18-.29,2.25,2.25,0,0,0,.83-.82,2.32,2.32,0,0,0,.3-1.2,2.38,2.38,0,0,0-.3-1.2,2.15,2.15,0,0,0-.83-.81,2.45,2.45,0,0,0-2.35,0,2.06,2.06,0,0,0-.82.81,2.48,2.48,0,0,0,0,2.4,2.15,2.15,0,0,0,.82.82A2.42,2.42,0,0,0,147.72,31.09Z"/><path class="cls-4" d="M153.92,32.37V25.2h1.74v.86a2.73,2.73,0,0,1,1-.78,3.17,3.17,0,0,1,1.4-.31,3,3,0,0,1,1.46.35,2.46,2.46,0,0,1,1,1,3.19,3.19,0,0,1,.34,1.52v4.52h-1.74V28.22a2,2,0,0,0-.45-1.39,1.58,1.58,0,0,0-1.23-.48,1.83,1.83,0,0,0-.93.22,1.48,1.48,0,0,0-.6.59,1.58,1.58,0,0,0-.21.81v4.4Z"/><path class="cls-4" d="M165.52,32.59A1.87,1.87,0,0,1,164,32a2.64,2.64,0,0,1-.54-1.77V26.52h-.88V25.2h.88V22.52h1.74V25.2h1.65v1.32h-1.65v3.55a1.23,1.23,0,0,0,.19.72.61.61,0,0,0,.53.25,1.14,1.14,0,0,0,.68-.23l.43,1.4a3.38,3.38,0,0,1-.72.28A3.21,3.21,0,0,1,165.52,32.59Z"/><path class="cls-4" d="M169.05,32.37V25.2h1.74v1a2.73,2.73,0,0,1,.94-.94A2.47,2.47,0,0,1,173,25a3.12,3.12,0,0,1,.72.1,3,3,0,0,1,.64.25l-.73,1.47a1.89,1.89,0,0,0-.52-.22,2.51,2.51,0,0,0-.57-.08,1.71,1.71,0,0,0-.84.23,1.85,1.85,0,0,0-.65.59,1.37,1.37,0,0,0-.25.79v4.27Z"/><path class="cls-4" d="M179.23,32.59a4.57,4.57,0,0,1-2.1-.48,3.78,3.78,0,0,1-1.48-1.35,3.9,3.9,0,0,1,0-4,3.83,3.83,0,0,1,1.48-1.34,4.74,4.74,0,0,1,4.2,0,3.83,3.83,0,0,1,1.48,1.34,3.9,3.9,0,0,1,0,4,3.78,3.78,0,0,1-1.48,1.35A4.54,4.54,0,0,1,179.23,32.59Zm0-1.5a2.45,2.45,0,0,0,1.18-.29,2.15,2.15,0,0,0,.82-.82,2.32,2.32,0,0,0,.3-1.2,2.38,2.38,0,0,0-.3-1.2,2.06,2.06,0,0,0-.82-.81,2.35,2.35,0,0,0-1.18-.3,2.32,2.32,0,0,0-1.17.3,2.15,2.15,0,0,0-.83.81,2.55,2.55,0,0,0,0,2.4,2.25,2.25,0,0,0,.83.82A2.42,2.42,0,0,0,179.23,31.09Z"/><path class="cls-4" d="M185.43,32.37v-12h1.74v12Z"/><path class="cls-4" d="M198,32.59a4.27,4.27,0,0,1-3.18-1.09,4.47,4.47,0,0,1-1.07-3.24V20.82h1.84v6.93a3.66,3.66,0,0,0,.58,2.31,2.67,2.67,0,0,0,3.67,0,3.66,3.66,0,0,0,.59-2.31V20.82h1.83v7.44a4.47,4.47,0,0,1-1.07,3.24A4.28,4.28,0,0,1,198,32.59Z"/><path class="cls-4" d="M205.09,32.37V25.2h1.74v.86a2.73,2.73,0,0,1,1-.78,3.17,3.17,0,0,1,1.4-.31,3,3,0,0,1,1.46.35,2.46,2.46,0,0,1,1,1,3.19,3.19,0,0,1,.34,1.52v4.52h-1.74V28.22a2,2,0,0,0-.45-1.39,1.58,1.58,0,0,0-1.23-.48,1.83,1.83,0,0,0-.93.22,1.48,1.48,0,0,0-.6.59,1.58,1.58,0,0,0-.21.81v4.4Z"/><path class="cls-4" d="M215.43,23.73a.94.94,0,0,1-.53-.15,1,1,0,0,1-.53-.92,1,1,0,0,1,.14-.52,1.09,1.09,0,0,1,.39-.38.94.94,0,0,1,.53-.15,1,1,0,0,1,.53.15,1,1,0,0,1,.37.38.93.93,0,0,1,.15.52,1,1,0,0,1-.15.54,1,1,0,0,1-.37.38A1,1,0,0,1,215.43,23.73Zm-.88,8.64V25.2h1.75v7.17Z"/><path class="cls-4" d="M221.22,32.59a1.87,1.87,0,0,1-1.5-.63,2.64,2.64,0,0,1-.54-1.77V26.52h-.88V25.2h.88V22.52h1.74V25.2h1.65v1.32h-1.65v3.55a1.16,1.16,0,0,0,.19.72.61.61,0,0,0,.53.25,1.16,1.16,0,0,0,.68-.23l.43,1.4a3.38,3.38,0,0,1-.72.28A3.21,3.21,0,0,1,221.22,32.59Z"/></g></svg>