<?xml version="1.0" encoding="UTF-8"?>
<svg id="Warstwa_3" data-name="Warstwa 3" xmlns="http://www.w3.org/2000/svg" viewBox="0 0 390.6 362.7">
  <defs>
    <style>
      .cls-1 {
        fill: #f6f6f6;
      }

      .cls-2 {
        letter-spacing: -.08em;
      }

      .cls-3 {
        fill: #fff;
      }

      .cls-4 {
        fill: #3c3c3b;
      }

      .cls-5 {
        letter-spacing: 0em;
      }

      .cls-6 {
        fill: #1a1a1a;
      }

      .cls-7 {
        letter-spacing: 0em;
      }

      .cls-8 {
        fill: none;
        stroke: #1d1d1b;
        stroke-miterlimit: 10;
        stroke-width: 3px;
      }

      .cls-9 {
        fill: #ededed;
      }

      .cls-10 {
        fill: #1d1d1b;
        font-family: Spartan-SemiBold, Spartan;
        font-size: 15px;
        font-variation-settings: 'wght' 600;
        font-weight: 600;
      }

      .cls-11 {
        letter-spacing: 0em;
      }
    </style>
  </defs>
  <g>
    <g>
      <g>
        <g>
          <path class="cls-1" d="M15.11,204.48h0v-6.76c0-.22.18-.4.4-.4h30.36c.06,0,.12.02.17.04h3.37s.11,0,.11,0h21.97c.41,0,.75.34.75.75v7.8s15.24,0,15.24,0c.49,0,.9.4.9.9v44.97c0,.49-.4.9-.9.9h-21.78c-.49,0-.9-.4-.9-.9v-1.92s-4.26,0-4.26,0c-.41,0-.74-.29-.83-.67l-41.29-41.29s-.05-.08-.08-.12l-2.89-2.89s-.03-.05-.05-.07l-.3-.3h0s0,0,0,0h0s0,0,0,0Z"/>
          <path class="cls-4" d="M64.14,251.77v-1.25s-3.58,0-3.58,0c-.64,0-1.19-.4-1.42-.99l-41.18-41.18c-.07-.07-.11-.13-.13-.17l-2.82-2.82c-.05-.05-.09-.1-.11-.14l-.05-.05h-.4v-.4s-.35-.36-.35-.36l.35-.26v-6.42c0-.6.48-1.08,1.08-1.08h30.37c.1,0,.2.01.29.04h25.33c.78,0,1.42.64,1.42,1.42v7.12s14.57,0,14.57,0c.87,0,1.57.71,1.57,1.57v44.97c0,.87-.71,1.57-1.57,1.57h-21.78c-.87,0-1.57-.71-1.57-1.57ZM71.57,206.58v-8.47s-.03-.07-.07-.07h-25.6s-.09-.04-.09-.04H15.79s0,6.21,0,6.21l44.56,44.62.04.19c.02.08.08.15.17.15h4.93v2.6c0,.12.1.22.22.22h21.78c.12,0,.22-.1.22-.22v-44.97c0-.12-.1-.22-.22-.22h-15.92Z"/>
        </g>
        <g>
          <path class="cls-9" d="M3.02,206.91h14.37s40.74,40.62,40.74,40.62c-.04.32-.3.56-.63.56h-2.68s0,1.81,0,1.81c0,.08-.06.14-.14.14h-6.2c-.08,0-.14-.06-.14-.14v-1.81s-10.51,0-10.51,0v1.81c0,.08-.06.14-.14.14h-6.21c-.08,0-.14-.06-.14-.14v-1.81s-2.68,0-2.68,0c-.36,0-.65-.29-.65-.65v-5.44s-5.11,0-5.11,0v7.5c0,.23-.19.42-.42.42h-4.43s-7.42,0-7.42,0H3.02c-.4,0-.72-.32-.72-.72v-41.58c0-.4.32-.72.72-.72Z"/>
          <path class="cls-6" d="M30.66,249.9v-1.13s-2.01,0-2.01,0c-.73,0-1.32-.59-1.32-1.32v-4.76s-3.76,0-3.76,0v6.83c0,.6-.49,1.1-1.1,1.1H3.02c-.77,0-1.39-.63-1.39-1.4v-41.58c0-.77.63-1.4,1.39-1.4h14.65s41.17,41.05,41.17,41.05l-.05.33c-.09.65-.65,1.15-1.3,1.15h-2.01s0,1.13,0,1.13c0,.45-.37.82-.82.82h-6.21c-.45,0-.82-.37-.82-.82v-1.13s-9.15,0-9.15,0v1.13c0,.45-.37.82-.82.82h-6.21c-.45,0-.82-.37-.82-.82ZM37.14,247.42h11.86v1.95s5.14,0,5.14,0v-1.95l2.94.02-39.96-39.85H3.02s-.04.04-.04.04l.04,41.62h19.2s0-7.92,0-7.92h6.46l-.03,6.09h3.36v1.95s5.13,0,5.13,0v-1.95Z"/>
        </g>
        <g>
          <rect class="cls-1" x="9.48" y="186.73" width="67.51" height="10.63" rx="1.18" ry="1.18" transform="translate(86.47 384.09) rotate(-180)"/>
          <path class="cls-6" d="M8.8,196.18v-8.26c0-1.03.84-1.86,1.86-1.86h65.14c1.03,0,1.86.84,1.86,1.86v8.26c0,1.03-.84,1.86-1.86,1.86H10.66c-1.03,0-1.86-.84-1.86-1.86ZM10.66,187.41c-.28,0-.51.23-.51.51v8.26c0,.28.23.51.51.51h65.14c.28,0,.51-.23.51-.51v-8.26c0-.28-.23-.51-.51-.51H10.66Z"/>
        </g>
        <g>
          <rect class="cls-1" x="21.97" y="146.12" width="43.94" height="13.45" rx="1.08" ry="1.08" transform="translate(196.78 108.91) rotate(90)"/>
          <path class="cls-6" d="M36.6,173.74v-41.79c0-.93.76-1.69,1.69-1.69h11.3c.93,0,1.69.76,1.69,1.69v41.79c0,.93-.76,1.69-1.69,1.69h-11.3c-.93,0-1.69-.76-1.69-1.69ZM38.29,131.49c-.25,0-.46.21-.46.46v41.79c0,.25.21.46.46.46h11.3c.25,0,.46-.21.46-.46v-41.79c0-.25-.21-.46-.46-.46h-11.3Z"/>
        </g>
        <rect class="cls-6" x="33.05" y="111.4" width="21.78" height="16.14" rx=".83" ry=".83" transform="translate(163.41 75.54) rotate(90)"/>
        <g>
          <rect class="cls-3" x="60.01" y="140.74" width="33.31" height="36.13" rx="1.53" ry="1.53" transform="translate(235.47 82.14) rotate(90)"/>
          <path class="cls-4" d="M57.92,173.92v-30.24c0-1.22.99-2.21,2.21-2.21h33.06c1.22,0,2.21.99,2.21,2.21v30.24c0,1.22-.99,2.21-2.21,2.21h-33.06c-1.22,0-2.21-.99-2.21-2.21ZM60.13,142.83c-.47,0-.86.38-.86.86v30.24c0,.47.38.86.86.86h33.06c.47,0,.86-.38.86-.86v-30.24c0-.47-.38-.86-.86-.86h-33.06Z"/>
        </g>
        <g>
          <rect class="cls-3" x="72.56" y="121.65" width="8.2" height="33.05" rx=".73" ry=".73" transform="translate(214.84 61.52) rotate(90)"/>
          <path class="cls-6" d="M59.46,141.55v-6.74c0-.77.63-1.4,1.4-1.4h31.6c.77,0,1.4.63,1.4,1.4v6.74c0,.77-.63,1.4-1.4,1.4h-31.6c-.77,0-1.4-.63-1.4-1.4ZM60.86,134.75s-.05.02-.05.05v6.74s.02.05.05.05h31.6s.05-.02.05-.05v-6.74s-.02-.05-.05-.05h-31.6Z"/>
        </g>
        <rect class="cls-6" x="65.58" y="111.08" width="22.29" height="23.96" rx="1.02" ry="1.02" transform="translate(199.79 46.34) rotate(90)"/>
        <rect class="cls-6" x="82.39" y="114.66" width="15.63" height="16.8" rx=".72" ry=".72" transform="translate(213.27 32.86) rotate(90)"/>
        <rect class="cls-6" x="94.37" y="120.37" width="13.32" height="5.39" rx=".37" ry=".37" transform="translate(224.1 22.03) rotate(90)"/>
        <rect class="cls-6" x="32.66" y="174.37" width="22.55" height="3.07" rx=".37" ry=".37" transform="translate(87.88 351.81) rotate(-180)"/>
        <rect class="cls-6" x="41.65" y="156.8" width="22.55" height="4.14" rx=".43" ry=".43" transform="translate(-105.94 211.79) rotate(-90)"/>
        <rect class="cls-6" x="48.68" y="156.8" width="16.53" height="4.14" rx=".37" ry=".37" transform="translate(-101.93 215.81) rotate(-90)"/>
        <g>
          <path class="cls-1" d="M16.71,178.02h54.45c.54,0,.98.44.98.98v2.47c0,2.9-2.36,5.26-5.26,5.26H21c-2.9,0-5.26-2.36-5.26-5.26v-2.47c0-.54.44-.98.98-.98Z" transform="translate(87.88 364.75) rotate(-180)"/>
          <path class="cls-6" d="M15.06,185.75v-2.47c0-3.27,2.66-5.94,5.94-5.94h45.88c3.27,0,5.94,2.66,5.94,5.94v2.47c0,.91-.74,1.66-1.66,1.66H16.71c-.91,0-1.66-.74-1.66-1.66ZM21,178.7c-2.53,0-4.59,2.06-4.59,4.59v2.47c0,.17.14.3.3.3h54.45c.17,0,.3-.14.3-.3v-2.47c0-2.53-2.06-4.59-4.59-4.59H21Z"/>
        </g>
        <rect class="cls-3" x="38.09" y="110.89" width=".68" height="16.65"/>
        <rect class="cls-4" x="38.73" y="141" width=".68" height="25.11"/>
        <path class="cls-4" d="M61.04,171.93l-.09-5.37,6.35-.11.12,6.88-4.84.08h-.02c-.82,0-1.49-.66-1.51-1.48ZM66.23,167.56l-4.16.07.07,4.28c0,.22.19.4.41.4h0l3.75-.06-.08-4.69Z"/>
        <rect class="cls-3" x="63.59" y="163.52" width="4.72" height="9.88" transform="translate(229.46 245.88) rotate(136.72)"/>
      </g>
      <line class="cls-8" x1="103.82" y1="122.99" x2="144.72" y2="122.99"/>
    </g>
    <g>
      <g>
        <g>
          <g>
            <path class="cls-1" d="M173.74,41.53h145.14c3.74,0,6.77,3.03,6.77,6.77v208.16c0,3.74-3.03,6.77-6.77,6.77h-145.14c-3.74,0-6.77-3.03-6.77-6.77V48.3c0-3.74,3.03-6.77,6.77-6.77Z"/>
            <path class="cls-4" d="M318.88,42.53c3.18,0,5.77,2.59,5.77,5.77v208.16c0,3.18-2.59,5.77-5.77,5.77h-145.14c-3.18,0-5.77-2.59-5.77-5.77V48.3c0-3.18,2.59-5.77,5.77-5.77h145.14M318.88,40.53h-145.14c-4.29,0-7.77,3.48-7.77,7.77v208.16c0,4.29,3.48,7.77,7.77,7.77h145.14c4.29,0,7.77-3.48,7.77-7.77V48.3c0-4.29-3.48-7.77-7.77-7.77h0Z"/>
          </g>
          <g>
            <rect class="cls-3" x="189.78" y="181.86" width="49.41" height="57.87" rx="6.52" ry="6.52"/>
            <path class="cls-4" d="M232.67,182.86c3.04,0,5.52,2.47,5.52,5.52v44.84c0,3.04-2.47,5.52-5.52,5.52h-36.38c-3.04,0-5.52-2.47-5.52-5.52v-44.84c0-3.04,2.47-5.52,5.52-5.52h36.38M232.67,180.86h-36.38c-4.15,0-7.52,3.36-7.52,7.52v44.84c0,4.15,3.36,7.52,7.52,7.52h36.38c4.15,0,7.52-3.36,7.52-7.52v-44.84c0-4.15-3.37-7.52-7.52-7.52h0Z"/>
          </g>
          <rect class="cls-4" x="218.73" y="214.97" width="17.31" height="15.41" rx="1.96" ry="1.96"/>
          <path class="cls-4" d="M196.1,196.14c-1.05,0-1.89.85-1.89,1.89s.85,1.89,1.89,1.89,1.9-.85,1.9-1.89-.85-1.89-1.9-1.89h0Z"/>
          <path class="cls-4" d="M220.42,196.14c-1.05,0-1.89.85-1.89,1.89s.85,1.89,1.89,1.89,1.89-.85,1.89-1.89-.85-1.89-1.89-1.89h0Z"/>
          <path class="cls-4" d="M220.42,206.25c-1.05,0-1.89.85-1.89,1.89s.85,1.89,1.89,1.89,1.89-.85,1.89-1.89-.85-1.89-1.89-1.89h0Z"/>
          <path class="cls-4" d="M196.1,202.27c-1.05,0-1.89.85-1.89,1.89s.85,1.89,1.89,1.89,1.9-.85,1.9-1.89-.85-1.89-1.9-1.89h0Z"/>
          <g>
            <path class="cls-1" d="M238.22,272.13h21.98c1.41,0,2.56,1.15,2.56,2.56v12.79c0,4.71-3.82,8.53-8.53,8.53h-10.04c-4.71,0-8.53-3.82-8.53-8.53v-12.79c0-1.41,1.15-2.56,2.56-2.56Z"/>
            <path class="cls-4" d="M254.23,297h-10.04c-5.25,0-9.53-4.27-9.53-9.53v-12.79c0-1.96,1.6-3.56,3.56-3.56h21.98c1.96,0,3.56,1.6,3.56,3.56v12.79c0,5.25-4.27,9.53-9.53,9.53ZM238.22,273.13c-.86,0-1.56.7-1.56,1.56v12.79c0,4.15,3.38,7.53,7.53,7.53h10.04c4.15,0,7.53-3.38,7.53-7.53v-12.79c0-.86-.7-1.56-1.56-1.56h-21.98Z"/>
          </g>
          <path class="cls-4" d="M261.96,272.91h-25.49v-2.8c0-1.02.83-1.85,1.85-1.85h21.79c1.02,0,1.85.83,1.85,1.85v2.8ZM238.46,270.91h21.49v-.65h-21.49v.65Z"/>
          <polygon class="cls-4" points="254.25 262.21 244.17 262.21 237.04 264.24 237.04 267.11 244.17 269.14 254.25 269.14 261.38 267.11 261.38 264.24 254.25 262.21"/>
          <rect class="cls-4" x="239" y="275.29" width="2" height="11.94"/>
          <g>
            <path class="cls-1" d="M275.75,272.13h21.98c1.41,0,2.56,1.15,2.56,2.56v12.79c0,4.71-3.82,8.53-8.53,8.53h-10.04c-4.71,0-8.53-3.82-8.53-8.53v-12.79c0-1.41,1.15-2.56,2.56-2.56Z"/>
            <path class="cls-4" d="M291.76,297h-10.04c-5.25,0-9.53-4.27-9.53-9.53v-12.79c0-1.96,1.6-3.56,3.56-3.56h21.98c1.96,0,3.56,1.6,3.56,3.56v12.79c0,5.25-4.27,9.53-9.53,9.53ZM275.75,273.13c-.86,0-1.56.7-1.56,1.56v12.79c0,4.15,3.38,7.53,7.53,7.53h10.04c4.15,0,7.53-3.38,7.53-7.53v-12.79c0-.86-.7-1.56-1.56-1.56h-21.98Z"/>
          </g>
          <path class="cls-4" d="M299.49,272.91h-25.5v-2.8c0-1.02.83-1.85,1.85-1.85h21.79c1.02,0,1.85.83,1.85,1.85v2.8ZM275.99,270.91h21.5v-.65h-21.5v.65Z"/>
          <polygon class="cls-4" points="291.78 262.21 281.7 262.21 274.57 264.24 274.57 267.11 281.7 269.14 291.78 269.14 298.91 267.11 298.91 264.24 291.78 262.21"/>
          <rect class="cls-4" x="276.53" y="275.29" width="2" height="11.94"/>
          <g>
            <path class="cls-3" d="M175.32,259.5c-2.3,0-4.18-1.88-4.18-4.18s1.88-4.18,4.18-4.18,4.18,1.88,4.18,4.18-1.88,4.18-4.18,4.18Z"/>
            <path class="cls-4" d="M175.32,252.14c1.75,0,3.18,1.43,3.18,3.18s-1.43,3.18-3.18,3.18-3.18-1.43-3.18-3.18,1.43-3.18,3.18-3.18M175.32,250.14c-2.86,0-5.18,2.32-5.18,5.18s2.32,5.18,5.18,5.18,5.18-2.32,5.18-5.18-2.32-5.18-5.18-5.18h0Z"/>
          </g>
          <g>
            <path class="cls-3" d="M317.19,259.5c-2.3,0-4.18-1.88-4.18-4.18s1.88-4.18,4.18-4.18,4.18,1.88,4.18,4.18-1.88,4.18-4.18,4.18Z"/>
            <path class="cls-4" d="M317.19,252.14c1.75,0,3.18,1.43,3.18,3.18s-1.43,3.18-3.18,3.18-3.18-1.43-3.18-3.18,1.43-3.18,3.18-3.18M317.19,250.14c-2.86,0-5.18,2.32-5.18,5.18s2.32,5.18,5.18,5.18,5.18-2.32,5.18-5.18-2.32-5.18-5.18-5.18h0Z"/>
          </g>
          <g>
            <path class="cls-3" d="M175.32,53.85c-2.3,0-4.18-1.88-4.18-4.18s1.88-4.18,4.18-4.18,4.18,1.87,4.18,4.18-1.88,4.18-4.18,4.18Z"/>
            <path class="cls-4" d="M175.32,46.49c1.75,0,3.18,1.43,3.18,3.18s-1.43,3.18-3.18,3.18-3.18-1.43-3.18-3.18,1.43-3.18,3.18-3.18M175.32,44.49c-2.86,0-5.18,2.32-5.18,5.18s2.32,5.18,5.18,5.18,5.18-2.32,5.18-5.18-2.32-5.18-5.18-5.18h0Z"/>
          </g>
          <g>
            <path class="cls-3" d="M317.19,53.85c-2.3,0-4.18-1.88-4.18-4.18s1.88-4.18,4.18-4.18,4.18,1.87,4.18,4.18-1.88,4.18-4.18,4.18Z"/>
            <path class="cls-4" d="M317.19,46.49c1.75,0,3.18,1.43,3.18,3.18s-1.43,3.18-3.18,3.18-3.18-1.43-3.18-3.18,1.43-3.18,3.18-3.18M317.19,44.49c-2.86,0-5.18,2.32-5.18,5.18s2.32,5.18,5.18,5.18,5.18-2.32,5.18-5.18-2.32-5.18-5.18-5.18h0Z"/>
          </g>
        </g>
        <text></text>
        <text class="cls-10" transform="translate(189.64 169.33)"><tspan x="0" y="0">C</tspan><tspan class="cls-5" x="11.69" y="0">o</tspan><tspan class="cls-7" x="22.1" y="0">n</tspan><tspan x="32.15" y="0">t</tspan><tspan class="cls-11" x="38.3" y="0">r</tspan><tspan class="cls-5" x="45.44" y="0">o</tspan><tspan x="55.85" y="0">l</tspan><tspan class="cls-2" x="60.61" y="0"> </tspan><tspan x="63.31" y="0">V</tspan></text>
      </g>
      <line class="cls-8" x1="286.74" y1="313.6" x2="286.74" y2="297"/>
      <line class="cls-8" x1="343.2" y1="121.43" x2="343.2" y2="312.54"/>
      <line class="cls-8" x1="285.25" y1="312.54" x2="344.69" y2="312.54"/>
    </g>
    <line class="cls-8" x1="250.59" y1="312.18" x2="250.59" y2="295.58"/>
    <line class="cls-8" x1="143.22" y1="121.54" x2="143.22" y2="311.12"/>
    <line class="cls-8" x1="252.09" y1="311.12" x2="141.72" y2="311.12"/>
  </g>
  <line class="cls-8" x1="392.23" y1="122.99" x2="341.63" y2="122.99"/>
</svg>