<svg xmlns="http://www.w3.org/2000/svg" viewBox="0 0 188.02 362.7"><defs><style>.cls-1{fill:none;stroke:#1d1d1b;stroke-miterlimit:10;stroke-width:3px;}.cls-2{fill:#ededed;}.cls-3{fill:#3c3c3b;}.cls-4{fill:#f6f6f6;}.cls-5{fill:#1d1d1b;}</style></defs><g id="Warstwa_3" data-name="Warstwa 3"><line class="cls-1" x1="94.42" y1="362.7" x2="94.42"/><line class="cls-1" x1="49.52" y1="122.94" y2="122.94"/><path class="cls-2" d="M137.32,88.42,128.87,80a4.44,4.44,0,0,0-3.13-1.3H63.1A4.44,4.44,0,0,0,60,80l-8.44,8.44a4.4,4.4,0,0,0-1.3,3.14v62.63a4.42,4.42,0,0,0,1.3,3.14L60,165.77a4.44,4.44,0,0,0,3.13,1.3h62.64a4.44,4.44,0,0,0,3.13-1.3l8.45-8.44a4.46,4.46,0,0,0,1.3-3.14V91.56A4.44,4.44,0,0,0,137.32,88.42Z"/><path class="cls-3" d="M125.74,167.78H63.1a5.11,5.11,0,0,1-3.63-1.51L51,157.83a5.1,5.1,0,0,1-1.5-3.64V91.56A5.1,5.1,0,0,1,51,87.92l8.45-8.44A5.07,5.07,0,0,1,63.1,78h62.64a5.07,5.07,0,0,1,3.63,1.51l8.45,8.44a5.11,5.11,0,0,1,1.51,3.64v62.63a5.19,5.19,0,0,1-1.51,3.64l-8.45,8.44A5.11,5.11,0,0,1,125.74,167.78ZM63.1,79.39a3.73,3.73,0,0,0-2.63,1.09L52,88.93a3.65,3.65,0,0,0-1.09,2.63v62.63A3.75,3.75,0,0,0,52,156.82l8.44,8.45a3.71,3.71,0,0,0,2.63,1.09h62.64a3.71,3.71,0,0,0,2.63-1.09l8.44-8.45a3.71,3.71,0,0,0,1.09-2.63V91.56a3.65,3.65,0,0,0-1.09-2.63l-8.44-8.45a3.71,3.71,0,0,0-2.63-1.09Z"/><path class="cls-4" d="M130.12,94.2l-7-7a3.71,3.71,0,0,0-2.61-1.08H68.36a3.69,3.69,0,0,0-2.61,1.08l-7,7a3.69,3.69,0,0,0-1.08,2.61v52.13a3.69,3.69,0,0,0,1.08,2.61l7,7a3.69,3.69,0,0,0,2.61,1.08h52.13a3.71,3.71,0,0,0,2.61-1.08l7-7a3.65,3.65,0,0,0,1.08-2.61V96.81A3.65,3.65,0,0,0,130.12,94.2Z"/><path class="cls-3" d="M120.49,160.25H68.36a4.33,4.33,0,0,1-3-1.25l-7-7a4.26,4.26,0,0,1-1.25-3V96.81a4.26,4.26,0,0,1,1.25-3l7-7a4.24,4.24,0,0,1,3-1.25h52.13a4.22,4.22,0,0,1,3,1.25l7,7a4.27,4.27,0,0,1,1.26,3v52.13a4.27,4.27,0,0,1-1.26,3l-7,7A4.26,4.26,0,0,1,120.49,160.25ZM68.36,86.68a3,3,0,0,0-2.19.91l-7,7a3,3,0,0,0-.91,2.19v52.13a3,3,0,0,0,.91,2.19l7,7a3.09,3.09,0,0,0,2.19.91h52.13a3.12,3.12,0,0,0,2.19-.91l7-7a3.09,3.09,0,0,0,.9-2.19V96.81a3.08,3.08,0,0,0-.9-2.19l-7-7a3.06,3.06,0,0,0-2.19-.91Z"/><path class="cls-5" d="M77.65,127.7v-8.5H75v-1.4h7v1.4h-2.7v8.5Z"/><path class="cls-5" d="M83.46,124.87v-1.29h3.86v1.29Z"/><path class="cls-5" d="M94.33,127.89a5.54,5.54,0,0,1-2.08-.39,5.46,5.46,0,0,1-1.71-1.1,5,5,0,0,1-1.15-1.63,5.13,5.13,0,0,1,0-4,5.07,5.07,0,0,1,1.15-1.64,5.48,5.48,0,0,1,3.79-1.49,5.86,5.86,0,0,1,1.74.26,4.61,4.61,0,0,1,1.42.71l-.69,1.33a3.3,3.3,0,0,0-1.07-.56,4.31,4.31,0,0,0-1.3-.2,3.89,3.89,0,0,0-1.5.28,3.78,3.78,0,0,0-1.19.76,3.35,3.35,0,0,0-.78,1.15,3.45,3.45,0,0,0-.28,1.41,3.51,3.51,0,0,0,.28,1.41,3.41,3.41,0,0,0,.78,1.14,3.78,3.78,0,0,0,1.19.76,3.89,3.89,0,0,0,1.5.28,4.31,4.31,0,0,0,1.3-.2,3.3,3.3,0,0,0,1.07-.56l.69,1.34a5.22,5.22,0,0,1-1.4.69A5.59,5.59,0,0,1,94.33,127.89Z"/><path class="cls-5" d="M102,127.89a3.9,3.9,0,0,1-1.79-.41,3.21,3.21,0,0,1-1.27-1.15,3.15,3.15,0,0,1-.47-1.7,3.1,3.1,0,0,1,.47-1.7,3.14,3.14,0,0,1,1.27-1.15,4,4,0,0,1,3.59,0,3.14,3.14,0,0,1,1.27,1.15,3.1,3.1,0,0,1,.47,1.7,3.15,3.15,0,0,1-.47,1.7,3.21,3.21,0,0,1-1.27,1.15A3.91,3.91,0,0,1,102,127.89Zm0-1.28a2.1,2.1,0,0,0,1-.25,1.91,1.91,0,0,0,.71-.7,2.17,2.17,0,0,0,0-2.06,1.84,1.84,0,0,0-.71-.7,2.15,2.15,0,0,0-2,0,1.91,1.91,0,0,0-.71.7,2.15,2.15,0,0,0,0,2.05,1.93,1.93,0,0,0,.71.71A2.09,2.09,0,0,0,102,126.61Z"/><path class="cls-5" d="M107.32,127.7v-6.14h1.49v.73a2.61,2.61,0,0,1,.85-.67,2.76,2.76,0,0,1,1.21-.26,2.47,2.47,0,0,1,1.24.3,2.09,2.09,0,0,1,.83.86,2.84,2.84,0,0,1,.29,1.31v3.87h-1.49v-3.56a1.69,1.69,0,0,0-.38-1.18,1.37,1.37,0,0,0-1.06-.42,1.55,1.55,0,0,0-.8.19,1.29,1.29,0,0,0-.51.5,1.4,1.4,0,0,0-.18.7v3.77Z"/></g></svg>