<?xml version="1.0" encoding="UTF-8"?>
<svg id="Warstwa_3" data-name="Warstwa 3" xmlns="http://www.w3.org/2000/svg" viewBox="0 0 188.02 362.7">
  <defs>
    <style>
      .cls-1 {
        fill: #fff;
      }

      .cls-1, .cls-2, .cls-3, .cls-4, .cls-5, .cls-6 {
        fill-rule: evenodd;
      }

      .cls-2 {
        fill: #f6f6f6;
      }

      .cls-3 {
        fill: #ca231e;
      }

      .cls-4 {
        fill: #333;
      }

      .cls-7 {
        stroke: #1d1d1b;
        stroke-width: 3px;
      }

      .cls-7, .cls-8 {
        fill: none;
        stroke-miterlimit: 10;
      }

      .cls-5 {
        fill: #ddd;
      }

      .cls-6 {
        fill: #3c3c3b;
      }

      .cls-8 {
        stroke: #3c3c3b;
        stroke-linecap: square;
      }
    </style>
  </defs>
  <g>
    <line class="cls-7" x1="87.29" y1="189.26" x2="87.29" y2="122.94"/>
    <line class="cls-7" x1="85.79" y1="122.94" x2="188.02" y2="122.94"/>
  </g>
  <g>
    <path class="cls-5" d="M87.25,308.54h-49.47c15.35,40.48,10.21,26.99,15.35,40.48,3.94,4.73,33.38,5.25,34.12,5.25.51,0,30.13-.52,34.06-5.25,15.35-40.48,10.21-26.99,15.35-40.48h-49.41Z"/>
    <path class="cls-8" d="M87.25,308.54h-49.47c15.35,40.48,10.21,26.99,15.35,40.48,3.94,4.73,33.38,5.25,34.12,5.25.51,0,30.13-.52,34.06-5.25,15.35-40.48,10.21-26.99,15.35-40.48h-49.41"/>
    <path class="cls-5" d="M87.25,308.54h-49.47c15.35,40.48,10.21,26.99,15.35,40.48,3.94,4.73,33.38,5.25,34.12,5.25.51,0,30.13-.52,34.06-5.25,15.35-40.48,10.21-26.99,15.35-40.48h-49.41Z"/>
    <polygon class="cls-6" points="87.25 308.02 87.25 308.54 87.25 309.06 87.02 309.06 87.02 308.54 87.02 308.02 87.25 308.02 87.25 308.02"/>
    <polygon class="cls-6" points="87.02 308.02 87.02 308.54 87.02 309.06 37.78 309.06 37.78 308.54 37.78 308.02 87.02 308.02 87.02 308.02"/>
    <polygon class="cls-6" points="37.78 308.02 37.78 308.54 37.33 308.71 37.04 308.02 37.78 308.02 37.78 308.02"/>
    <path class="cls-6" d="M37.78,308.54l.46-.17c1.94,5.07,3.54,9.28,4.91,12.8l-.51.17-.46.17c-1.37-3.52-2.97-7.73-4.85-12.8l.46-.17h0Z"/>
    <path class="cls-6" d="M42.63,321.34l.51-.17c.63,1.79,1.26,3.34,1.77,4.79l-.46.17-.46.23c-.57-1.44-1.2-3.06-1.83-4.84l.46-.17h0Z"/>
    <path class="cls-6" d="M44.46,326.13l.46-.17c.57,1.44,1.08,2.77,1.48,3.92l-.46.17-.51.17c-.4-1.15-.91-2.42-1.43-3.86l.46-.23h0Z"/>
    <path class="cls-6" d="M45.94,330.05l.46-.17c.46,1.15.86,2.19,1.2,3.11l-.51.17-.46.17c-.34-.92-.74-1.96-1.2-3.11l.51-.17h0Z"/>
    <path class="cls-6" d="M47.08,333.16l.51-.17c.34.86.63,1.67.91,2.42l-.46.17-.51.17c-.29-.69-.57-1.5-.91-2.42l.46-.17h0Z"/>
    <path class="cls-6" d="M48.05,335.58l.46-.17c.29.69.51,1.33.68,1.85l-.46.17-.46.23c-.23-.58-.46-1.21-.74-1.9l.51-.17h0Z"/>
    <path class="cls-6" d="M48.74,337.43l.46-.17c.23.58.4,1.04.57,1.44l-.46.23-.51.17c-.17-.46-.34-.92-.51-1.44l.46-.23h0Z"/>
    <path class="cls-6" d="M49.31,338.93l.46-.23c.17.46.29.81.46,1.15l-.51.17-.46.17c-.17-.35-.29-.69-.46-1.1l.51-.17h0Z"/>
    <path class="cls-6" d="M49.71,340.02l.51-.17c.11.35.23.63.34.92l-.51.17-.46.17c-.11-.29-.23-.58-.34-.92l.46-.17h0Z"/>
    <path class="cls-6" d="M50.05,340.94l.51-.17c.23.58.4,1.1.63,1.73l-.46.17-.51.23c-.23-.63-.4-1.21-.63-1.79l.46-.17h0Z"/>
    <path class="cls-6" d="M50.74,342.67l.46-.17c.11.35.29.69.4,1.04l-.46.17-.51.23c-.11-.4-.23-.75-.4-1.04l.51-.23h0Z"/>
    <path class="cls-6" d="M51.13,343.71l.46-.17c.17.4.34.86.51,1.33l-.46.17-.51.23c-.17-.52-.34-.98-.51-1.33l.51-.23h0Z"/>
    <path class="cls-6" d="M51.65,345.04l.46-.17c.17.52.4,1.1.68,1.73l-.51.17-.46.17c-.29-.63-.46-1.21-.68-1.67l.51-.23h0Z"/>
    <path class="cls-6" d="M52.28,346.77l.51-.17c.23.63.51,1.38.8,2.25l-.46.17-.46.17c-.34-.81-.63-1.56-.86-2.25l.46-.17h0Z"/>
    <polygon class="cls-6" points="52.68 349.19 53.13 349.02 52.73 349.36 52.68 349.31 52.68 349.19 52.68 349.19"/>
    <path class="cls-6" d="M53.13,349.02l.4-.35c.23.29.51.52.91.75l-.29.46-.29.4c-.46-.29-.86-.58-1.14-.92l.4-.35h0Z"/>
    <path class="cls-6" d="M54.16,349.88l.29-.46c.4.23.86.46,1.43.69l-.17.46-.17.52c-.63-.23-1.2-.52-1.65-.81l.29-.4h0Z"/>
    <path class="cls-6" d="M55.7,350.57l.17-.46c1.2.46,2.62.86,4.28,1.21l-.11.52-.11.52c-1.71-.4-3.2-.81-4.39-1.27l.17-.52h0Z"/>
    <path class="cls-6" d="M60.04,351.84l.11-.52c3.31.69,7.36,1.21,11.3,1.56l-.06.52-.06.52c-3.99-.35-8.1-.86-11.41-1.56l.11-.52h0Z"/>
    <path class="cls-6" d="M71.39,353.4l.06-.52c3.94.4,7.82.58,10.73.69v.52l-.06.52c-2.91-.12-6.79-.35-10.78-.69l.06-.52h0Z"/>
    <path class="cls-6" d="M82.17,354.09v-.52c.74.06,1.43.06,2,.12v1.04c-.63-.06-1.31-.06-2.05-.12l.06-.52h0Z"/>
    <path class="cls-6" d="M84.17,354.21v-.52h1.6l-.06.52v.52h-1.54v-.52h0Z"/>
    <path class="cls-6" d="M85.71,354.21l.06-.52c.17.06.4.06.57.06v1.04c-.17,0-.4,0-.63-.06v-.52h0Z"/>
    <path class="cls-6" d="M86.34,354.27v-.52h.46v1.04h-.46v-.52h0Z"/>
    <path class="cls-6" d="M86.8,354.27v-.52h.17v1.04h-.17v-.52h0Z"/>
    <path class="cls-6" d="M86.97,354.27v-.52h.11v1.04h-.11v-.52h0Z"/>
    <path class="cls-6" d="M87.08,354.27v-.52h.11v1.04h-.11v-.52h0Z"/>
    <path class="cls-6" d="M87.2,354.27v-.52h.06v1.04h-.06v-.52h0Z"/>
    <path class="cls-6" d="M87.25,354.27v-.52h.06v1.04h-.06v-.52h0Z"/>
    <polygon class="cls-6" points="87.31 354.27 87.31 353.75 87.37 353.75 87.37 354.27 87.37 354.78 87.31 354.78 87.31 354.27 87.31 354.27"/>
    <path class="cls-6" d="M87.37,354.27v-.52h.11l.06.52v.52h-.17v-.52h0Z"/>
    <path class="cls-6" d="M87.54,354.27l-.06-.52h.17v.52l.06.52h-.17v-.52h0Z"/>
    <path class="cls-6" d="M87.65,354.27v-.52h.46v1.04h-.4l-.06-.52h0Z"/>
    <path class="cls-6" d="M88.11,354.27v-.52c.17,0,.34,0,.57-.06v.52l.06.52c-.23.06-.46.06-.63.06v-.52h0Z"/>
    <path class="cls-6" d="M88.68,354.21v-.52h1.54l.06.52v.52h-1.54l-.06-.52h0Z"/>
    <path class="cls-6" d="M90.28,354.21l-.06-.52c.63-.06,1.26-.06,2-.12v.52l.06.52c-.74.06-1.43.06-2,.12v-.52h0Z"/>
    <path class="cls-6" d="M92.22,354.09v-.52c2.91-.12,6.79-.29,10.73-.69l.06.52.06.52c-3.99.35-7.87.58-10.78.69l-.06-.52h0Z"/>
    <path class="cls-6" d="M103,353.4l-.06-.52c3.99-.35,8.05-.86,11.35-1.56l.11.52.11.52c-3.37.69-7.47,1.21-11.47,1.56l-.06-.52h0Z"/>
    <path class="cls-6" d="M114.41,351.84l-.11-.52c1.65-.35,3.08-.75,4.28-1.21l.17.46.17.52c-1.2.46-2.68.86-4.39,1.27l-.11-.52h0Z"/>
    <path class="cls-6" d="M118.75,350.57l-.17-.46c.57-.23,1.03-.46,1.43-.69l.29.46.29.4c-.46.29-1.03.58-1.65.81l-.17-.52h0Z"/>
    <path class="cls-6" d="M120.29,349.88l-.29-.46c.4-.23.68-.46.91-.75l.4.35.4.35c-.29.35-.68.63-1.14.92l-.29-.4h0Z"/>
    <polygon class="cls-6" points="121.72 349.36 121.32 349.02 121.77 349.19 121.77 349.31 121.72 349.36 121.72 349.36"/>
    <path class="cls-6" d="M121.32,349.02l-.46-.17c1.88-5.07,3.48-9.28,4.85-12.8l.46.17.51.17c-1.37,3.52-2.97,7.73-4.91,12.8l-.46-.17h0Z"/>
    <path class="cls-6" d="M126.17,336.22l-.46-.17c.63-1.79,1.26-3.4,1.83-4.84l.46.23.46.17c-.51,1.44-1.14,3-1.77,4.79l-.51-.17h0Z"/>
    <path class="cls-6" d="M127.99,331.43l-.46-.23c.51-1.44,1.03-2.71,1.43-3.86l.51.17.46.17c-.4,1.15-.91,2.48-1.48,3.92l-.46-.17h0Z"/>
    <path class="cls-6" d="M129.48,327.51l-.51-.17c.46-1.15.86-2.19,1.2-3.11l.46.17.51.17c-.34.92-.74,1.96-1.2,3.11l-.46-.17h0Z"/>
    <path class="cls-6" d="M130.62,324.4l-.46-.17c.34-.92.63-1.73.91-2.42l.51.17.46.17c-.29.75-.57,1.56-.91,2.42l-.51-.17h0Z"/>
    <path class="cls-6" d="M131.59,321.97l-.51-.17c.29-.69.51-1.33.74-1.9l.46.23.46.17c-.17.52-.4,1.15-.68,1.85l-.46-.17h0Z"/>
    <path class="cls-6" d="M132.27,320.13l-.46-.23c.17-.52.34-.98.51-1.44l.51.23.46.17c-.17.4-.34.86-.57,1.44l-.46-.17h0Z"/>
    <path class="cls-6" d="M132.84,318.69l-.51-.23c.17-.4.29-.75.46-1.1l.46.17.51.17c-.17.35-.29.69-.46,1.15l-.46-.17h0Z"/>
    <path class="cls-6" d="M133.24,317.53l-.46-.17c.11-.35.23-.63.34-.92l.46.17.51.17c-.11.29-.23.58-.34.92l-.51-.17h0Z"/>
    <path class="cls-6" d="M133.58,316.61l-.46-.17c.23-.58.4-1.15.63-1.79l.51.23.46.17c-.23.63-.4,1.15-.63,1.73l-.51-.17h0Z"/>
    <path class="cls-6" d="M134.27,314.88l-.51-.23c.17-.29.29-.63.4-1.04l.51.23.46.17c-.11.35-.29.69-.4,1.04l-.46-.17h0Z"/>
    <path class="cls-6" d="M134.67,313.84l-.51-.23c.17-.35.34-.81.51-1.33l.51.23.46.17c-.17.46-.34.92-.51,1.33l-.46-.17h0Z"/>
    <path class="cls-6" d="M135.18,312.52l-.51-.23c.23-.46.4-1.04.68-1.67l.46.17.51.17c-.29.63-.51,1.21-.68,1.73l-.46-.17h0Z"/>
    <path class="cls-6" d="M135.81,310.79l-.46-.17c.23-.69.51-1.44.86-2.25l.46.17.46.17c-.29.86-.57,1.61-.8,2.25l-.51-.17h0Z"/>
    <polygon class="cls-6" points="137.12 308.71 136.67 308.54 136.67 308.02 137.41 308.02 137.12 308.71 137.12 308.71"/>
    <polygon class="cls-6" points="136.67 308.02 136.67 308.54 136.67 309.06 87.25 309.06 87.25 308.54 87.25 308.02 136.67 308.02 136.67 308.02"/>
    <path class="cls-5" d="M87.25,355.25c-.51,0-30.41-.23-34.86-5.71h-.23c-15.86-41.98-10.56-27.97-15.86-41.98h101.85c-15.81,41.98-10.56,27.97-15.81,41.98h-.29c-4.45,5.48-34.58,5.71-34.81,5.71h0ZM87.25,353.23h.23c6.16,0,29.61-1.21,33.09-4.73,14.84-38.98,9.87-26.01,14.84-38.98H39.04c14.84,38.98,9.87,26.01,14.84,38.98,3.48,3.52,26.7,4.73,33.15,4.73h.23Z"/>
    <path class="cls-8" d="M87.25,355.25c-.51,0-30.41-.23-34.86-5.71h-.23c-15.86-41.98-10.56-27.97-15.86-41.98h101.85c-15.81,41.98-10.56,27.97-15.81,41.98h-.29c-4.45,5.48-34.58,5.71-34.81,5.71"/>
    <path class="cls-8" d="M87.25,353.23h.23c6.16,0,29.61-1.21,33.09-4.73,14.84-38.98,9.87-26.01,14.84-38.98H39.04c14.84,38.98,9.87,26.01,14.84,38.98,3.48,3.52,26.7,4.73,33.15,4.73h.23"/>
    <path class="cls-5" d="M87.25,355.25c-.51,0-30.41-.23-34.86-5.71h-.23c-15.86-41.98-10.56-27.97-15.86-41.98h101.85c-15.81,41.98-10.56,27.97-15.81,41.98h-.29c-4.45,5.48-34.58,5.71-34.81,5.71h0Z"/>
    <path class="cls-6" d="M87.25,355.25v.52h-.06v-1.04h.06v.52h0Z"/>
    <polygon class="cls-6" points="87.2 355.25 87.2 355.76 87.14 355.76 87.14 355.25 87.14 354.73 87.2 354.73 87.2 355.25 87.2 355.25"/>
    <path class="cls-6" d="M87.14,355.25v.52h-.17v-.52l.06-.52h.11v.52h0Z"/>
    <path class="cls-6" d="M86.97,355.25v.52h-.17l.06-.52v-.52h.17l-.06.52h0Z"/>
    <path class="cls-6" d="M86.85,355.25l-.06.52h-.4v-1.04h.46v.52h0Z"/>
    <path class="cls-6" d="M86.4,355.25v.52h-.63v-.52l.06-.52h.57v.52h0Z"/>
    <path class="cls-6" d="M85.77,355.25v.52c-.46-.06-.97-.06-1.54-.06v-1.04c.63,0,1.14,0,1.6.06l-.06.52h0Z"/>
    <path class="cls-6" d="M84.23,355.19v.52c-.63,0-1.31-.06-2.05-.06l.06-.52v-.52c.74,0,1.43.06,2,.06v.52h0Z"/>
    <path class="cls-6" d="M82.23,355.13l-.06.52c-2.91-.12-6.85-.29-10.9-.69v-.52l.06-.52c4.05.4,7.99.58,10.9.69v.52h0Z"/>
    <path class="cls-6" d="M71.28,354.44v.52c-4.11-.35-8.27-.92-11.75-1.73l.11-.46.11-.52c3.42.75,7.59,1.33,11.58,1.67l-.06.52h0Z"/>
    <path class="cls-6" d="M59.64,352.77l-.11.46c-1.77-.4-3.31-.86-4.56-1.38l.17-.46.23-.52c1.2.52,2.74.98,4.39,1.38l-.11.52h0Z"/>
    <path class="cls-6" d="M55.13,351.38l-.17.46c-.68-.29-1.26-.58-1.71-.92l.29-.4.29-.46c.4.29.91.58,1.54.81l-.23.52h0Z"/>
    <path class="cls-6" d="M53.53,350.52l-.29.4c-.51-.29-.97-.69-1.26-1.04l.4-.35.4-.35c.23.35.57.63,1.03.86l-.29.46h0Z"/>
    <polygon class="cls-6" points="52.79 349.19 52.39 349.54 52.39 349.02 52.62 349.02 52.79 349.19 52.79 349.19"/>
    <polygon class="cls-6" points="52.39 349.02 52.39 349.54 52.39 350.06 52.16 350.06 52.16 349.54 52.16 349.02 52.39 349.02 52.39 349.02"/>
    <polygon class="cls-6" points="51.71 349.71 52.16 349.54 52.16 350.06 51.82 350.06 51.71 349.71 51.71 349.71"/>
    <path class="cls-6" d="M52.16,349.54l-.46.17c-2-5.25-3.65-9.63-5.02-13.26l.46-.17.46-.23c1.43,3.69,3.08,8.07,5.02,13.32l-.46.17h0Z"/>
    <path class="cls-6" d="M47.14,336.27l-.46.17c-.68-1.85-1.31-3.52-1.88-4.96l.46-.23.46-.17c.57,1.5,1.2,3.17,1.88,4.96l-.46.23h0Z"/>
    <path class="cls-6" d="M45.26,331.26l-.46.23c-.57-1.5-1.08-2.88-1.54-4.04l.46-.23.51-.17c.46,1.21.97,2.54,1.48,4.04l-.46.17h0Z"/>
    <path class="cls-6" d="M43.72,327.22l-.46.23c-.46-1.21-.86-2.31-1.2-3.23l.46-.17.46-.23c.4.98.8,2.02,1.26,3.23l-.51.17h0Z"/>
    <path class="cls-6" d="M42.52,324.05l-.46.17c-.4-.98-.68-1.79-.97-2.54l.46-.17.51-.17c.29.69.57,1.56.91,2.48l-.46.23h0Z"/>
    <path class="cls-6" d="M41.55,321.51l-.46.17c-.29-.75-.51-1.38-.74-1.96l.51-.17.46-.17c.23.58.46,1.21.74,1.96l-.51.17h0Z"/>
    <path class="cls-6" d="M40.86,319.55l-.51.17c-.23-.58-.4-1.04-.57-1.5l.51-.17.46-.17c.17.4.34.92.57,1.5l-.46.17h0Z"/>
    <path class="cls-6" d="M40.29,318.05l-.51.17c-.17-.4-.29-.81-.46-1.15l.51-.17.46-.17c.17.35.29.69.46,1.15l-.46.17h0Z"/>
    <path class="cls-6" d="M39.84,316.9l-.51.17c-.11-.35-.23-.63-.34-.98l.51-.17.46-.17c.11.29.23.63.34.98l-.46.17h0Z"/>
    <path class="cls-6" d="M39.49,315.92l-.51.17c-.23-.58-.4-1.15-.68-1.79l.51-.17.46-.17c.23.63.46,1.21.68,1.79l-.46.17h0Z"/>
    <path class="cls-6" d="M38.81,314.13l-.51.17c-.11-.35-.23-.69-.4-1.1l.46-.17.51-.17c.11.4.29.75.4,1.1l-.46.17h0Z"/>
    <path class="cls-6" d="M38.35,313.04l-.46.17c-.17-.4-.34-.86-.51-1.38l.46-.17.51-.17c.17.52.34.98.51,1.38l-.51.17h0Z"/>
    <path class="cls-6" d="M37.84,311.65l-.46.17c-.23-.52-.46-1.1-.68-1.79l.46-.17.51-.17c.23.69.46,1.27.68,1.79l-.51.17h0Z"/>
    <path class="cls-6" d="M37.16,309.86l-.46.17c-.29-.63-.57-1.44-.86-2.31l.46-.17.46-.17c.34.86.63,1.61.91,2.31l-.51.17h0Z"/>
    <polygon class="cls-6" points="36.3 307.04 36.3 307.56 35.84 307.73 35.56 307.04 36.3 307.04 36.3 307.04"/>
    <polygon class="cls-6" points="36.3 308.08 36.3 307.56 36.3 307.04 138.15 307.04 138.15 307.56 138.15 308.08 36.3 308.08 36.3 308.08"/>
    <polygon class="cls-6" points="138.61 307.73 138.15 307.56 138.15 307.04 138.89 307.04 138.61 307.73 138.61 307.73"/>
    <path class="cls-6" d="M138.15,307.56l.46.17c-1.94,5.25-3.59,9.63-4.96,13.32l-.51-.23-.46-.17c1.37-3.63,3.02-8.02,5.02-13.26l.46.17h0Z"/>
    <path class="cls-6" d="M133.13,320.82l.51.23c-.68,1.79-1.31,3.46-1.88,4.96l-.51-.17-.46-.23c.57-1.44,1.2-3.11,1.88-4.96l.46.17h0Z"/>
    <path class="cls-6" d="M131.24,325.84l.51.17c-.57,1.5-1.08,2.83-1.54,4.04l-.46-.17-.51-.23c.46-1.15.97-2.54,1.54-4.04l.46.23h0Z"/>
    <path class="cls-6" d="M129.76,329.87l.46.17c-.46,1.21-.86,2.25-1.2,3.23l-.46-.23-.51-.17c.34-.92.74-2.02,1.2-3.23l.51.23h0Z"/>
    <path class="cls-6" d="M128.56,333.05l.46.23c-.34.92-.68,1.79-.97,2.48l-.46-.17-.51-.17c.29-.75.63-1.56.97-2.54l.51.17h0Z"/>
    <path class="cls-6" d="M127.59,335.58l.46.17c-.29.75-.51,1.38-.74,1.96l-.46-.17-.46-.17c.17-.58.46-1.21.68-1.96l.51.17h0Z"/>
    <path class="cls-6" d="M126.85,337.54l.46.17c-.17.58-.4,1.1-.51,1.5l-.51-.17-.46-.17c.17-.46.34-.92.57-1.5l.46.17h0Z"/>
    <path class="cls-6" d="M126.28,339.04l.51.17c-.17.46-.34.81-.46,1.15l-.51-.17-.46-.17c.11-.35.29-.75.46-1.15l.46.17h0Z"/>
    <path class="cls-6" d="M125.82,340.2l.51.17c-.11.35-.29.69-.4.98l-.46-.17-.46-.17c.11-.35.23-.63.34-.98l.46.17h0Z"/>
    <path class="cls-6" d="M125.48,341.18l.46.17c-.23.58-.4,1.15-.63,1.79l-.51-.17-.46-.17c.23-.63.46-1.21.68-1.79l.46.17h0Z"/>
    <path class="cls-6" d="M124.8,342.96l.51.17c-.17.35-.29.69-.46,1.1l-.46-.17-.46-.17c.11-.4.29-.75.4-1.1l.46.17h0Z"/>
    <path class="cls-6" d="M124.4,344.06l.46.17c-.11.4-.29.86-.51,1.38l-.46-.17-.46-.17c.17-.52.34-.98.51-1.38l.46.17h0Z"/>
    <path class="cls-6" d="M123.88,345.44l.46.17c-.17.52-.4,1.1-.63,1.79l-.51-.17-.46-.17c.23-.69.46-1.27.68-1.79l.46.17h0Z"/>
    <path class="cls-6" d="M123.2,347.23l.51.17c-.29.69-.57,1.44-.91,2.31l-.46-.17-.46-.17c.29-.86.57-1.67.86-2.31l.46.17h0Z"/>
    <polygon class="cls-6" points="122.34 350.06 122.34 349.54 122.8 349.71 122.69 350.06 122.34 350.06 122.34 350.06"/>
    <polygon class="cls-6" points="122.34 349.02 122.34 349.54 122.34 350.06 122.06 350.06 122.06 349.54 122.06 349.02 122.34 349.02 122.34 349.02"/>
    <polygon class="cls-6" points="122.06 349.02 122.06 349.54 121.66 349.19 121.83 349.02 122.06 349.02 122.06 349.02"/>
    <path class="cls-6" d="M122.06,349.54l.4.35c-.29.35-.74.75-1.26,1.04l-.29-.4-.29-.46c.46-.23.8-.52,1.03-.86l.4.35h0Z"/>
    <path class="cls-6" d="M120.92,350.52l.29.4c-.46.35-1.03.63-1.71.92l-.17-.46-.23-.52c.57-.23,1.14-.52,1.54-.81l.29.46h0Z"/>
    <path class="cls-6" d="M119.32,351.38l.17.46c-1.26.52-2.85.98-4.62,1.38l-.11-.46-.11-.52c1.71-.4,3.25-.86,4.45-1.38l.23.52h0Z"/>
    <path class="cls-6" d="M114.75,352.77l.11.46c-3.48.81-7.65,1.38-11.75,1.73l-.06-.52-.06-.52c4.05-.35,8.22-.92,11.64-1.67l.11.52h0Z"/>
    <path class="cls-6" d="M103.06,354.44l.06.52c-4.05.4-7.99.58-10.96.69v-1.04c2.91-.12,6.79-.29,10.84-.69l.06.52h0Z"/>
    <path class="cls-6" d="M92.16,355.13v.52c-.68,0-1.37.06-2,.06v-1.04c.57,0,1.26-.06,2-.06v.52h0Z"/>
    <path class="cls-6" d="M90.16,355.19v.52c-.57,0-1.08,0-1.54.06v-1.04c.4-.06.91-.06,1.54-.06v.52h0Z"/>
    <path class="cls-6" d="M88.62,355.25v.52h-.57v-1.04h.57v.52h0Z"/>
    <path class="cls-6" d="M88.05,355.25v.52h-.4v-1.04h.4v.52h0Z"/>
    <path class="cls-6" d="M87.65,355.25v.52h-.17v-1.04h.17v.52h0Z"/>
    <path class="cls-6" d="M87.48,355.25v.52h-.11v-1.04h.11v.52h0Z"/>
    <path class="cls-6" d="M87.37,355.25v.52h-.06v-1.04h.06v.52h0Z"/>
    <path class="cls-6" d="M87.31,355.25v.52h-.06v-1.04h.06v.52h0Z"/>
    <path class="cls-5" d="M87.25,353.23h.23c6.16,0,29.61-1.21,33.09-4.73,14.84-38.98,9.87-26.01,14.84-38.98H39.04c14.84,38.98,9.87,26.01,14.84,38.98,3.48,3.52,26.7,4.73,33.15,4.73h.23Z"/>
    <polygon class="cls-6" points="87.25 353.75 87.25 353.23 87.25 352.71 87.48 352.71 87.48 353.23 87.48 353.75 87.25 353.75 87.25 353.75"/>
    <path class="cls-6" d="M87.48,353.23v-.52h1.31l.06.52v.52h-1.37v-.52h0Z"/>
    <path class="cls-6" d="M88.85,353.23l-.06-.52c.51,0,1.08-.06,1.71-.06v.52l.06.52c-.63,0-1.2.06-1.71.06v-.52h0Z"/>
    <path class="cls-6" d="M90.5,353.17v-.52c1.26-.06,2.68-.12,4.22-.17l.06.52v.52c-1.54.06-3.02.12-4.22.17l-.06-.52h0Z"/>
    <path class="cls-6" d="M94.78,353l-.06-.52c3.14-.17,6.73-.46,10.27-.81l.06.52.06.52c-3.59.35-7.19.63-10.33.81v-.52h0Z"/>
    <path class="cls-6" d="M105.05,352.19l-.06-.52c3.48-.35,6.9-.86,9.7-1.44l.11.52.11.46c-2.8.63-6.28,1.1-9.81,1.5l-.06-.52h0Z"/>
    <path class="cls-6" d="M114.81,350.75l-.11-.52c1.37-.29,2.57-.63,3.54-.98l.17.46.17.46c-1.03.4-2.23.75-3.65,1.04l-.11-.46h0Z"/>
    <path class="cls-6" d="M118.41,349.71l-.17-.46c.46-.17.86-.4,1.2-.58l.29.46.23.46c-.4.23-.86.4-1.37.58l-.17-.46h0Z"/>
    <path class="cls-6" d="M119.72,349.13l-.29-.46c.34-.17.57-.35.8-.52l.34.35.34.35c-.23.29-.57.52-.97.75l-.23-.46h0Z"/>
    <polygon class="cls-6" points="120.92 348.84 120.57 348.5 121.03 348.67 121.03 348.79 120.92 348.84 120.92 348.84"/>
    <path class="cls-6" d="M120.57,348.5l-.46-.17c1.83-4.9,3.37-8.94,4.68-12.34l.46.17.51.17c-1.31,3.4-2.85,7.5-4.74,12.34l-.46-.17h0Z"/>
    <path class="cls-6" d="M125.25,336.16l-.46-.17c.63-1.73,1.2-3.23,1.77-4.61l.46.17.46.17c-.51,1.38-1.08,2.94-1.71,4.61l-.51-.17h0Z"/>
    <path class="cls-6" d="M127.02,331.55l-.46-.17c.51-1.38.97-2.65,1.43-3.75l.46.17.46.17c-.4,1.1-.86,2.36-1.43,3.75l-.46-.17h0Z"/>
    <path class="cls-6" d="M128.45,327.8l-.46-.17c.4-1.15.8-2.13,1.14-3l.46.17.46.17c-.29.92-.68,1.9-1.14,3l-.46-.17h0Z"/>
    <path class="cls-6" d="M129.59,324.8l-.46-.17c.29-.92.63-1.67.86-2.36l.51.17.46.23c-.29.63-.57,1.44-.91,2.31l-.46-.17h0Z"/>
    <path class="cls-6" d="M130.5,322.43l-.51-.17c.29-.69.51-1.27.68-1.79l.51.17.46.17c-.17.52-.4,1.15-.68,1.85l-.46-.23h0Z"/>
    <path class="cls-6" d="M131.19,320.65l-.51-.17c.23-.52.4-.98.51-1.38l.51.17.46.17c-.11.4-.29.86-.51,1.38l-.46-.17h0Z"/>
    <path class="cls-6" d="M131.7,319.26l-.51-.17c.17-.4.34-.81.46-1.1l.46.17.51.17c-.17.35-.29.69-.46,1.1l-.46-.17h0Z"/>
    <path class="cls-6" d="M132.1,318.17l-.46-.17c.11-.35.23-.63.34-.92l.46.23.46.17c-.06.29-.17.58-.29.86l-.51-.17h0Z"/>
    <path class="cls-6" d="M132.44,317.3l-.46-.23c.17-.52.4-1.04.63-1.67l.46.17.51.23c-.23.58-.46,1.1-.68,1.67l-.46-.17h0Z"/>
    <path class="cls-6" d="M133.07,315.57l-.46-.17c.11-.29.23-.63.4-.98l.46.17.46.17c-.11.4-.23.69-.34,1.04l-.51-.23h0Z"/>
    <path class="cls-6" d="M133.47,314.59l-.46-.17c.11-.4.29-.81.46-1.27l.51.17.46.17c-.17.52-.34.92-.51,1.27l-.46-.17h0Z"/>
    <path class="cls-6" d="M133.98,313.32l-.51-.17c.17-.52.4-1.04.63-1.67l.51.17.46.17c-.23.63-.46,1.21-.63,1.67l-.46-.17h0Z"/>
    <path class="cls-6" d="M134.61,311.65l-.51-.17c.23-.63.51-1.33.86-2.13l.46.17.46.17c-.29.81-.57,1.56-.8,2.13l-.46-.17h0Z"/>
    <polygon class="cls-6" points="135.87 309.69 135.41 309.52 135.41 309 136.15 309 135.87 309.69 135.87 309.69"/>
    <polygon class="cls-6" points="135.41 309 135.41 309.52 135.41 310.04 39.04 310.04 39.04 309.52 39.04 309 135.41 309 135.41 309"/>
    <polygon class="cls-6" points="39.04 309 39.04 309.52 38.58 309.69 38.3 309 39.04 309 39.04 309"/>
    <path class="cls-6" d="M39.04,309.52l.46-.17c1.88,4.84,3.42,8.94,4.74,12.34l-.51.17-.46.17c-1.31-3.4-2.85-7.44-4.68-12.34l.46-.17h0Z"/>
    <path class="cls-6" d="M43.72,321.86l.51-.17c.63,1.67,1.2,3.23,1.71,4.61l-.46.17-.46.17c-.57-1.38-1.14-2.88-1.77-4.61l.46-.17h0Z"/>
    <path class="cls-6" d="M45.49,326.47l.46-.17c.57,1.38,1.03,2.65,1.43,3.75l-.46.17-.46.17c-.46-1.1-.91-2.36-1.43-3.75l.46-.17h0Z"/>
    <path class="cls-6" d="M46.91,330.22l.46-.17c.46,1.1.86,2.08,1.14,3l-.46.17-.46.17c-.34-.86-.74-1.85-1.14-3l.46-.17h0Z"/>
    <path class="cls-6" d="M48.05,333.22l.46-.17c.34.86.63,1.67.91,2.31l-.46.23-.51.17c-.23-.69-.57-1.44-.86-2.36l.46-.17h0Z"/>
    <path class="cls-6" d="M48.97,335.58l.46-.23c.29.69.51,1.33.68,1.85l-.46.17-.51.17c-.17-.52-.4-1.1-.68-1.79l.51-.17h0Z"/>
    <path class="cls-6" d="M49.65,337.37l.46-.17c.23.52.4.98.51,1.38l-.46.17-.51.17c-.11-.4-.29-.86-.51-1.38l.51-.17h0Z"/>
    <path class="cls-6" d="M50.16,338.75l.46-.17c.17.4.29.75.46,1.1l-.51.17-.46.17c-.11-.29-.29-.69-.46-1.1l.51-.17h0Z"/>
    <path class="cls-6" d="M50.56,339.85l.51-.17c.11.29.23.58.29.86l-.46.17-.46.23c-.11-.29-.23-.58-.34-.92l.46-.17h0Z"/>
    <path class="cls-6" d="M50.91,340.71l.46-.17c.23.58.46,1.1.68,1.67l-.51.23-.46.17c-.23-.63-.46-1.15-.63-1.67l.46-.23h0Z"/>
    <path class="cls-6" d="M51.53,342.44l.51-.23c.11.35.23.63.34,1.04l-.46.17-.46.17c-.17-.35-.29-.69-.4-.98l.46-.17h0Z"/>
    <path class="cls-6" d="M51.93,343.42l.46-.17c.17.35.34.75.51,1.27l-.46.17-.51.17c-.17-.46-.34-.86-.46-1.27l.46-.17h0Z"/>
    <path class="cls-6" d="M52.45,344.69l.46-.17c.17.46.4,1.04.63,1.67l-.46.17-.51.17c-.23-.63-.46-1.15-.63-1.67l.51-.17h0Z"/>
    <path class="cls-6" d="M53.07,346.37l.46-.17c.23.58.51,1.33.8,2.13l-.46.17-.46.17c-.34-.81-.63-1.5-.86-2.13l.51-.17h0Z"/>
    <polygon class="cls-6" points="53.42 348.67 53.87 348.5 53.53 348.84 53.42 348.79 53.42 348.67 53.42 348.67"/>
    <path class="cls-6" d="M53.87,348.5l.34-.35c.23.17.46.35.8.52l-.29.46-.23.46c-.4-.23-.74-.46-.97-.75l.34-.35h0Z"/>
    <path class="cls-6" d="M54.73,349.13l.29-.46c.34.17.74.4,1.2.58l-.17.46-.17.46c-.51-.17-.97-.35-1.37-.58l.23-.46h0Z"/>
    <path class="cls-6" d="M56.04,349.71l.17-.46c.97.35,2.17.69,3.54.98l-.11.52-.11.46c-1.43-.29-2.68-.63-3.65-1.04l.17-.46h0Z"/>
    <path class="cls-6" d="M59.64,350.75l.11-.52c2.74.58,6.16,1.1,9.64,1.44l-.06.52-.06.52c-3.54-.4-7.02-.86-9.76-1.5l.11-.46h0Z"/>
    <path class="cls-6" d="M69.34,352.19l.06-.52c7.02.75,14.44,1.04,17.63,1.04v1.04c-3.25,0-10.67-.29-17.75-1.04l.06-.52h0Z"/>
    <polygon class="cls-6" points="87.02 353.75 87.02 353.23 87.02 352.71 87.25 352.71 87.25 353.23 87.25 353.75 87.02 353.75 87.02 353.75"/>
    <path class="cls-2" d="M130.5,189H43.95c-4.17,0-7.65,3.46-7.65,7.73v113.54h2.23c8.16,0,15.58,2.54,21,6.29.51.52.8.75,1.03.98,4.22,2.77,10.61,4.73,18.32,5.77h16.72c7.7-1.04,14.15-3,18.32-5.77.23-.23.74-.46,1.03-.98,5.42-3.75,12.84-6.29,21-6.29h2.23v-113.54c0-4.27-3.48-7.73-7.65-7.73h0Z"/>
    <path class="cls-6" d="M95.87,324.28h-17.29c-7.65-.98-14.32-3-18.54-6-.23-.23-.74-.46-.97-.75-5.48-3.98-12.84-6.23-20.54-6.23h-2.23c-.97.23-.63.17-.97.23v-114.81c0-5.02,3.94-8.76,8.62-8.76h86.56c4.68,0,8.67,3.75,8.67,8.76v114.58h-3.25c-7.65,0-15.06,2.25-20.54,6.23-.23.29-.46.52-.97.75-4.22,3-10.9,5.02-18.54,6h0ZM78.86,322.26h16.72c7.47-.75,13.64-3,17.57-5.71.51-.29.74-.52,1.26-.75,5.65-4.27,13.35-6.52,21.51-6.52h1.26v-112.56c0-3.75-2.97-6.75-6.68-6.75H43.95c-3.65,0-6.62,3-6.62,6.75v112.56h1.2c8.16,0,15.86,2.25,21.51,6.52.51.23.74.46,1.26.98,3.94,2.48,10.16,4.73,17.57,5.48h0Z"/>
    <path class="cls-2" d="M59.52,316.55c.29.52.8.75,1.03.98-.23-.23-.51-.46-1.03-.98h0Z"/>
    <path class="cls-6" d="M60.04,318.28c-.23-.23-.74-.46-.97-.75.97-1.73.63-1.15.97-1.73.51.23.74.46,1.26.98-.4.52-.86.98-1.26,1.5h0Z"/>
    <path class="cls-2" d="M114.93,316.55c-.29.52-.8.75-1.03.98.23-.23.74-.46,1.03-.98h0Z"/>
    <path class="cls-6" d="M114.41,318.28c-1.26-1.5-.86-.98-1.26-1.5.51-.52.74-.75,1.26-.98,1.26,1.73.86,1.15,1.26,1.73-.51.29-.74.52-1.26.75h0Z"/>
    <path class="cls-1" d="M116.41,346.02h-.29c-.23,0-.23-.52-.23-.75,9.87-26.24,6.56-17.47,9.87-26.24,0-.23.23-.52.51-.23.23,0,.51.23.51.46-9.93,26.53-6.62,17.7-9.93,26.53q-.23.23-.46.23h0Z"/>
    <path class="cls-3" d="M56.21,251.45h-2.91v-11.36h-3.71v-2.42h10.33v2.42h-3.71v11.36h0Z"/>
    <path class="cls-3" d="M66.14,242.8c-.63,0-1.08.17-1.43.58-.34.4-.51.92-.57,1.61h3.99c0-.69-.23-1.21-.57-1.61s-.86-.58-1.43-.58h0ZM66.54,251.62c-1.71,0-3.02-.46-3.94-1.38-.97-.92-1.43-2.25-1.43-3.98s.46-3.11,1.31-4.09c.86-.98,2.11-1.44,3.65-1.44,1.43,0,2.62.4,3.42,1.27.8.86,1.26,2.02,1.26,3.52v1.38h-6.73c0,.81.23,1.44.68,1.9.46.46,1.08.69,1.88.69.63,0,1.26-.06,1.77-.17.57-.17,1.2-.35,1.77-.63v2.19c-.46.23-1.03.46-1.6.58s-1.26.17-2.05.17h0Z"/>
    <path class="cls-3" d="M77.55,249.32c.51,0,1.08-.12,1.83-.35v2.19c-.74.29-1.6.46-2.62.46-1.14,0-1.94-.29-2.51-.86-.51-.58-.74-1.44-.74-2.65v-5.07h-1.37v-1.21l1.54-.92.86-2.25h1.83v2.25h2.91v2.13h-2.91v5.07c0,.4.11.69.34.92.23.17.51.29.86.29h0Z"/>
    <path class="cls-3" d="M87.99,251.45l-.57-1.44h-.06c-.46.63-.97,1.04-1.48,1.27-.51.23-1.14.35-2,.35-.97,0-1.77-.29-2.34-.86-.57-.58-.86-1.38-.86-2.48s.4-1.96,1.14-2.48c.8-.52,1.94-.81,3.54-.86l1.77-.06v-.46c0-1.1-.51-1.61-1.6-1.61-.86,0-1.83.23-2.97.75l-.91-1.9c1.2-.63,2.51-.98,3.99-.98,1.37,0,2.45.29,3.2.92s1.14,1.56,1.14,2.83v7.03h-2ZM87.14,246.55l-1.08.06c-.8,0-1.43.17-1.83.46-.4.23-.63.69-.63,1.27,0,.81.46,1.21,1.37,1.21.68,0,1.2-.17,1.6-.58.4-.4.57-.92.57-1.56v-.86h0Z"/>
    <path class="cls-4" d="M58.95,273.71c0,1.27-.4,2.25-1.31,2.94-.91.75-2.11,1.1-3.71,1.1-1.48,0-2.74-.29-3.88-.81v-2.77c.91.46,1.71.75,2.34.92s1.26.23,1.77.23c.63,0,1.14-.12,1.48-.35.34-.29.51-.63.51-1.1,0-.29-.11-.52-.23-.75-.17-.23-.4-.4-.68-.58-.29-.23-.86-.52-1.77-.98-.86-.4-1.48-.75-1.88-1.15-.4-.35-.74-.75-1.03-1.27-.23-.46-.34-1.04-.34-1.67,0-1.21.4-2.19,1.2-2.88.86-.69,2-1.04,3.42-1.04.68,0,1.37.06,2.05.23.63.17,1.31.4,2,.75l-.91,2.25c-.74-.29-1.37-.52-1.83-.63-.46-.12-.97-.17-1.43-.17-.51,0-.97.12-1.26.4-.29.23-.46.58-.46.98,0,.29.06.52.17.69.17.17.34.4.57.58.29.17.91.46,1.88.92,1.26.63,2.11,1.27,2.62,1.9.46.58.68,1.38.68,2.25h0Z"/>
    <path class="cls-4" d="M73.9,270.65c0,2.25-.57,4.04-1.65,5.25-1.14,1.21-2.74,1.85-4.85,1.85s-3.71-.63-4.85-1.85c-1.08-1.21-1.65-3-1.65-5.25s.57-4.09,1.71-5.31c1.08-1.21,2.74-1.79,4.79-1.79s3.71.63,4.85,1.85c1.08,1.21,1.65,2.94,1.65,5.25h0ZM63.92,270.65c0,1.5.29,2.65.86,3.46.63.75,1.48,1.15,2.62,1.15,2.34,0,3.48-1.56,3.48-4.61s-1.14-4.67-3.48-4.67c-1.14,0-2,.4-2.57,1.15-.63.81-.91,1.96-.91,3.52h0Z"/>
    <path class="cls-4" d="M76.75,277.57v-13.78h2.91v11.36h5.48v2.42h-8.39Z"/>
    <path class="cls-4" d="M95.47,277.57h-7.87v-13.78h7.87v2.42h-4.96v3h4.62v2.42h-4.62v3.52h4.96v2.42h0Z"/>
    <path class="cls-4" d="M101.17,269.9h.91c.91,0,1.6-.17,2-.46.46-.29.68-.81.68-1.44s-.23-1.1-.68-1.38c-.46-.29-1.14-.4-2.05-.4h-.86v3.69h0ZM101.17,272.27v5.31h-2.91v-13.78h3.99c1.83,0,3.2.35,4.11,1.04.86.69,1.31,1.67,1.31,3.06,0,.81-.23,1.56-.63,2.19-.46.63-1.08,1.1-1.88,1.5,2.05,3.06,3.37,5.07,3.99,6h-3.2l-3.25-5.31h-1.54Z"/>
    <path class="cls-4" d="M116.12,277.57h-2.91v-11.36h-3.71v-2.42h10.33v2.42h-3.71v11.36h0Z"/>
  </g>
</svg>