<svg xmlns="http://www.w3.org/2000/svg" viewBox="0 0 188.02 362.7"><defs><style>.cls-1{fill:#f6f6f6;}.cls-2{fill:#3c3c3b;}.cls-3{fill:#fff;}.cls-4{fill:#cc2a27;}.cls-5{fill:#1d1d1b;}.cls-6{fill:none;stroke:#1d1d1b;stroke-miterlimit:10;stroke-width:3px;}</style></defs><g id="Warstwa_3" data-name="Warstwa 3"><rect class="cls-1" x="59.11" y="91.93" width="119.24" height="93.22" rx="5.94"/><path class="cls-2" d="M172.41,186.15H65a6.94,6.94,0,0,1-6.93-6.94V97.87A6.94,6.94,0,0,1,65,90.93H172.41a6.94,6.94,0,0,1,6.94,6.94v81.34A6.94,6.94,0,0,1,172.41,186.15ZM65,92.93a4.94,4.94,0,0,0-4.93,4.94v81.34A4.94,4.94,0,0,0,65,184.15H172.41a4.94,4.94,0,0,0,4.94-4.94V97.87a5,5,0,0,0-4.94-4.94Z"/><rect class="cls-1" x="90.75" y="185.21" width="29.75" height="6.25"/><path class="cls-2" d="M121.5,192.47H89.75v-8.26H121.5Zm-29.75-2H119.5v-4.26H91.75Z"/><path class="cls-3" d="M93.21,191.49h24.63a0,0,0,0,1,0,0v31.19a2.61,2.61,0,0,1-2.61,2.61H95.82a2.61,2.61,0,0,1-2.61-2.61V191.49A0,0,0,0,1,93.21,191.49Z"/><path class="cls-2" d="M115.24,226.29H95.82a3.61,3.61,0,0,1-3.61-3.61V190.49h26.63v32.19A3.61,3.61,0,0,1,115.24,226.29Zm-21-33.8v30.19a1.61,1.61,0,0,0,1.61,1.61h19.42a1.61,1.61,0,0,0,1.6-1.61V192.49Z"/><rect class="cls-2" x="100.12" y="194.06" width="2.19" height="28.61"/><rect class="cls-2" x="99.4" y="186.83" width="2.43" height="3"/><circle class="cls-2" cx="65.26" cy="98.15" r="2.56"/><circle class="cls-2" cx="171.62" cy="98.15" r="2.56"/><circle class="cls-2" cx="171.62" cy="178.87" r="2.56"/><circle class="cls-2" cx="65.52" cy="178.87" r="2.56"/><path class="cls-1" d="M44.23,119.5H66.4a0,0,0,0,1,0,0V126a1.11,1.11,0,0,1-1.11,1.11h-20A1.11,1.11,0,0,1,44.23,126V119.5a0,0,0,0,1,0,0Z" transform="translate(178.64 68) rotate(90)"/><path class="cls-2" d="M60.14,135.4H52.6a2.1,2.1,0,0,1-2.1-2.1v-20a2.1,2.1,0,0,1,2.1-2.1h7.54ZM52.6,113.24a.09.09,0,0,0-.1.1v20a.09.09,0,0,0,.1.1h5.54V113.24Z"/><rect class="cls-2" x="54.27" y="120.07" width="2.43" height="4.07" transform="translate(177.59 66.61) rotate(90)"/><rect class="cls-2" x="157.49" y="193.15" width="1.35" height="17.8"/><rect class="cls-2" x="167.44" y="189.14" width="1.14" height="13.01" transform="translate(-89.13 176.1) rotate(-45)"/><rect class="cls-2" x="162.24" y="192.25" width="1.14" height="9.6" transform="translate(-63.02 77.31) rotate(-22.5)"/><rect class="cls-2" x="148.13" y="189.14" width="1.27" height="13.01" transform="translate(115.63 439.17) rotate(-135)"/><rect class="cls-2" x="153.01" y="192.25" width="1.14" height="9.61" transform="translate(220.06 437.88) rotate(-157.5)"/><path class="cls-4" d="M76.84,147.49V139H74.15v-1.4h7V139h-2.7v8.5Z"/><path class="cls-4" d="M84.64,147.68a3.66,3.66,0,0,1-1.76-.42,3.29,3.29,0,0,1-1.23-1.17,3.11,3.11,0,0,1-.45-1.66,3.18,3.18,0,0,1,.25-1.28,3.34,3.34,0,0,1,1.78-1.74,3.37,3.37,0,0,1,1.31-.26,3.48,3.48,0,0,1,1.68.4,2.75,2.75,0,0,1,1.13,1.11,3.25,3.25,0,0,1,.41,1.64.62.62,0,0,0,0,.13,1.49,1.49,0,0,1,0,.17h-5a1.86,1.86,0,0,0,.26,1,1.6,1.6,0,0,0,.7.66,2.19,2.19,0,0,0,1,.24,2.12,2.12,0,0,0,1-.22,2.32,2.32,0,0,0,.79-.69l1.09.56a3,3,0,0,1-1.22,1.14A3.65,3.65,0,0,1,84.64,147.68Zm-1.85-4h3.48a1.61,1.61,0,0,0-.31-.73,1.72,1.72,0,0,0-.61-.48,1.94,1.94,0,0,0-.82-.17,2.07,2.07,0,0,0-.84.17,1.49,1.49,0,0,0-.6.47A1.53,1.53,0,0,0,82.79,143.67Z"/><path class="cls-4" d="M91.41,147.68a1.58,1.58,0,0,1-1.29-.54,2.25,2.25,0,0,1-.47-1.52v-3.14H88.9v-1.13h.75v-2.3h1.5v2.3h1.41v1.13H91.15v3a1,1,0,0,0,.16.62.52.52,0,0,0,.45.22.9.9,0,0,0,.58-.21l.37,1.2a2.59,2.59,0,0,1-.61.24A2.84,2.84,0,0,1,91.41,147.68Z"/><path class="cls-4" d="M97,147.68a2.93,2.93,0,0,1-1.55-.42,3.07,3.07,0,0,1-1.1-1.16,3.75,3.75,0,0,1,0-3.35,3,3,0,0,1,1.08-1.17,3,3,0,0,1,1.58-.43,2.91,2.91,0,0,1,1.32.3,2.31,2.31,0,0,1,1,.84v-.94h1.5v6.14h-1.5v-1a2.81,2.81,0,0,1-1,.86A2.73,2.73,0,0,1,97,147.68Zm.42-1.28a1.92,1.92,0,0,0,1-.25,1.8,1.8,0,0,0,.67-.7,2.33,2.33,0,0,0,0-2.06,1.88,1.88,0,0,0-.67-.7,1.92,1.92,0,0,0-1-.26,1.89,1.89,0,0,0-1,.26,1.76,1.76,0,0,0-.68.7,2.23,2.23,0,0,0,0,2.05,1.79,1.79,0,0,0,.68.71A1.86,1.86,0,0,0,97.41,146.4Z"/><path class="cls-5" d="M75.57,165.49V153.11h6.65v1.73H77.53v3.58H82v1.73H77.53v3.61h4.69v1.73Z"/><path class="cls-5" d="M88.55,165.73a4.27,4.27,0,0,1-3-1.18,4,4,0,0,1-.92-1.3,3.88,3.88,0,0,1-.33-1.6,3.77,3.77,0,0,1,.32-1.57,4,4,0,0,1,.89-1.3,4.18,4.18,0,0,1,1.35-.89,4.4,4.4,0,0,1,1.67-.32,4.61,4.61,0,0,1,1.44.22,3.38,3.38,0,0,1,1.14.57l-.67,1.26a2.61,2.61,0,0,0-1.64-.51,2.51,2.51,0,0,0-1.36.36,2.34,2.34,0,0,0-.89.93,2.68,2.68,0,0,0,0,2.54,2.41,2.41,0,0,0,.91.91,2.66,2.66,0,0,0,1.34.33,2.92,2.92,0,0,0,.9-.13,2.28,2.28,0,0,0,.71-.37l.68,1.26a4.05,4.05,0,0,1-1.14.57A4.44,4.44,0,0,1,88.55,165.73Z"/><path class="cls-5" d="M96.92,165.73a4.78,4.78,0,0,1-2.25-.52,4,4,0,0,1-1.58-1.44,4.12,4.12,0,0,1,0-4.25,4,4,0,0,1,1.58-1.43,5.13,5.13,0,0,1,4.5,0,4,4,0,0,1,1.58,1.43,4.12,4.12,0,0,1,0,4.25,4,4,0,0,1-1.58,1.44A4.78,4.78,0,0,1,96.92,165.73Zm0-1.61a2.56,2.56,0,0,0,1.26-.31,2.3,2.3,0,0,0,.88-.87,2.53,2.53,0,0,0,.33-1.29,2.5,2.5,0,0,0-.33-1.29,2.3,2.3,0,0,0-.88-.87,2.56,2.56,0,0,0-1.26-.32,2.51,2.51,0,0,0-1.26.32,2.37,2.37,0,0,0-.88.87,2.5,2.5,0,0,0-.33,1.29,2.46,2.46,0,0,0,.33,1.28,2.32,2.32,0,0,0,.88.88A2.5,2.5,0,0,0,96.92,164.12Z"/><path class="cls-5" d="M104,165.49V153.11h2v5.31h5.39v-5.31h2v12.38h-2v-5.34h-5.39v5.34Z"/><line class="cls-6" x1="50.6" y1="122.94" y2="122.94"/></g></svg>