<svg xmlns="http://www.w3.org/2000/svg" viewBox="0 0 188.02 362.7"><defs><style>.cls-1{fill:none;stroke:#1d1d1b;stroke-miterlimit:10;stroke-width:3px;}.cls-2{fill:#cc2a27;}.cls-3{fill:#3c3c3b;}.cls-4{fill:#f6f6f6;}.cls-5{fill:#fff;}.cls-6{fill:#1d1d1b;}</style></defs><g id="Warstwa_3" data-name="Warstwa 3"><line class="cls-1" x1="87.29" y1="189.26" x2="87.29" y2="122.94"/><line class="cls-1" x1="85.79" y1="122.94" x2="188.02" y2="122.94"/><path class="cls-2" d="M87.73,309.33H36.87l15.7,40.48c4.16,4.87,34.44,5.37,35,5.37h.14c.55,0,30.83-.5,35-5.37l15.69-40.48Z"/><path class="cls-3" d="M87.69,356.18h-.14c-.31,0-31.15-.33-35.74-5.72l-.11-.13-16.29-42H139.83l-16.28,42-.11.13C118.84,355.85,88,356.18,87.69,356.18Zm-.14-2h.22c6.46,0,30.41-1.19,34-4.9l15.1-38.95H38.33l15.1,38.95c3.62,3.69,27.4,4.89,34.05,4.9Z"/><path class="cls-4" d="M131.33,189.52H43.92a7.83,7.83,0,0,0-7.83,7.83V311.21c.79,0,1.59-.08,2.4-.08a36.42,36.42,0,0,1,21.18,6.38l1.08.81c4.07,2.81,10.58,4.93,18.29,5.85H96.27c7.71-.92,14.22-3,18.29-5.85q.52-.42,1.08-.81a36.42,36.42,0,0,1,21.18-6.38c.79,0,1.57,0,2.34.07V197.35A7.84,7.84,0,0,0,131.33,189.52Z"/><path class="cls-3" d="M96.32,325.17H78.92c-7.81-.94-14.47-3.07-18.74-6-.4-.3-.74-.57-1.1-.82a35.4,35.4,0,0,0-20.6-6.19c-.71,0-1.47,0-2.34.07l-1,.07V197.35a8.84,8.84,0,0,1,8.83-8.83h87.41a8.84,8.84,0,0,1,8.83,8.83V312.26l-1.06-.06c-.75,0-1.51-.07-2.28-.07a35.39,35.39,0,0,0-20.59,6.19c-.36.25-.71.52-1,.78-4.33,3-11,5.13-18.81,6.07Zm-17.22-2H96.21c7.47-.89,13.78-2.91,17.78-5.67.31-.25.69-.53,1.07-.81a37.42,37.42,0,0,1,21.76-6.56l1.34,0V197.35a6.84,6.84,0,0,0-6.83-6.83H43.92a6.83,6.83,0,0,0-6.83,6.83V310.16l1.39,0a37.45,37.45,0,0,1,21.77,6.56c.38.28.76.56,1.12.85C65.31,320.26,71.63,322.28,79.1,323.17Z"/><path class="cls-4" d="M59.67,317.51c.34.27.69.55,1.08.81Z"/><path class="cls-3" d="M60.18,319.15c-.41-.29-.79-.58-1.15-.87l1.22-1.59c.38.28.76.56,1.12.85Z"/><path class="cls-4" d="M115.64,317.51q-.56.39-1.08.81C115,318.06,115.3,317.78,115.64,317.51Z"/><path class="cls-3" d="M115.13,319.15l-1.19-1.61c.36-.29.74-.57,1.12-.85l1.21,1.59C115.91,318.57,115.54,318.86,115.13,319.15Z"/><path class="cls-5" d="M117.09,346.9l-.18,0a.5.5,0,0,1-.29-.64l10-26.4a.5.5,0,0,1,.65-.29.49.49,0,0,1,.29.64l-10,26.4A.51.51,0,0,1,117.09,346.9Z"/><path class="cls-2" d="M49.71,280.22v-8.5H47v-1.4h7v1.4h-2.7v8.5Z"/><path class="cls-2" d="M57.51,280.41a3.5,3.5,0,0,1-1.76-.43,3.09,3.09,0,0,1-1.68-2.82,3.18,3.18,0,0,1,.25-1.28,3.26,3.26,0,0,1,.71-1,3.43,3.43,0,0,1,2.38-1,3.48,3.48,0,0,1,1.68.4,2.81,2.81,0,0,1,1.13,1.11,3.24,3.24,0,0,1,.4,1.64.53.53,0,0,1,0,.13.59.59,0,0,1,0,.17h-5a1.86,1.86,0,0,0,.25,1,1.62,1.62,0,0,0,.71.66,2.19,2.19,0,0,0,1,.24,2.12,2.12,0,0,0,1-.22,2.41,2.41,0,0,0,.79-.69l1.09.56A3,3,0,0,1,59.24,280,3.68,3.68,0,0,1,57.51,280.41Zm-1.85-4h3.48a1.67,1.67,0,0,0-.32-.73,1.77,1.77,0,0,0-.6-.48,2,2,0,0,0-.82-.17,2.11,2.11,0,0,0-.85.17,1.48,1.48,0,0,0-.89,1.21Z"/><path class="cls-2" d="M64.27,280.41a1.61,1.61,0,0,1-1.29-.54,2.25,2.25,0,0,1-.46-1.52v-3.14h-.76v-1.14h.76v-2.29H64v2.29h1.41v1.14H64v3a1.09,1.09,0,0,0,.16.62.56.56,0,0,0,.46.22.92.92,0,0,0,.58-.21l.37,1.2a2.67,2.67,0,0,1-.62.24A2.72,2.72,0,0,1,64.27,280.41Z"/><path class="cls-2" d="M69.85,280.41a2.9,2.9,0,0,1-1.54-.42,3,3,0,0,1-1.1-1.16,3.46,3.46,0,0,1-.41-1.69,3.37,3.37,0,0,1,.4-1.66,3,3,0,0,1,1.08-1.17,3.09,3.09,0,0,1,2.9-.13,2.44,2.44,0,0,1,1,.84v-.95h1.49v6.15H72.14v-1a2.77,2.77,0,0,1-1,.87A2.67,2.67,0,0,1,69.85,280.41Zm.43-1.28a1.86,1.86,0,0,0,1-.25,1.9,1.9,0,0,0,.68-.7,2.15,2.15,0,0,0,.24-1,2,2,0,0,0-.25-1,1.74,1.74,0,0,0-.67-.7,1.86,1.86,0,0,0-1-.26,1.92,1.92,0,0,0-1,.26,1.81,1.81,0,0,0-.67.7,2.23,2.23,0,0,0,0,2.05,1.83,1.83,0,0,0,.67.71A1.92,1.92,0,0,0,70.28,279.13Z"/><path class="cls-6" d="M51.61,298.46a5.42,5.42,0,0,1-1.62-.23,5.6,5.6,0,0,1-1.28-.55,6.24,6.24,0,0,1-.93-.68c-.24-.22-.43-.41-.57-.55l1-1.59.52.52a6.72,6.72,0,0,0,.75.58,5.4,5.4,0,0,0,1,.49,3.44,3.44,0,0,0,1.18.19,2.75,2.75,0,0,0,1.09-.2,1.77,1.77,0,0,0,.76-.61,1.68,1.68,0,0,0,.29-1,1.78,1.78,0,0,0-.22-.89,2,2,0,0,0-.61-.64,5.55,5.55,0,0,0-.95-.52l-1.22-.53a7.49,7.49,0,0,1-.94-.47,4.85,4.85,0,0,1-.85-.64,3,3,0,0,1-.61-.87,2.73,2.73,0,0,1-.22-1.14,3.36,3.36,0,0,1,.27-1.33,3.6,3.6,0,0,1,.77-1.13,3.77,3.77,0,0,1,1.2-.78,4,4,0,0,1,1.55-.28,4.76,4.76,0,0,1,1.36.2,5.91,5.91,0,0,1,1.2.53,4.08,4.08,0,0,1,.89.68l-.85,1.5a3.55,3.55,0,0,0-.69-.55,3.9,3.9,0,0,0-.87-.42,3.32,3.32,0,0,0-1-.16,2.08,2.08,0,0,0-1,.24,1.67,1.67,0,0,0-.89,1.47,1.34,1.34,0,0,0,.16.66,1.54,1.54,0,0,0,.45.47,3.58,3.58,0,0,0,.65.36l.79.31c.54.23,1,.45,1.51.68a6,6,0,0,1,1.21.76,3.12,3.12,0,0,1,.79,1,3.41,3.41,0,0,1,.28,1.41A3.33,3.33,0,0,1,53.84,298,5.38,5.38,0,0,1,51.61,298.46Z"/><path class="cls-6" d="M57.36,298.22l7.12-10.64H58.22v-1.74H68l-7.13,10.64h6.72v1.74Z"/><path class="cls-6" d="M75.75,298.46a6,6,0,0,1-2.43-.5,6.1,6.1,0,0,1-2-1.37,6.44,6.44,0,0,1-1.34-2,6.54,6.54,0,0,1,1.34-7.05,6.13,6.13,0,0,1,2-1.38,6,6,0,0,1,2.43-.49,6,6,0,0,1,2.43.49,6.35,6.35,0,0,1,2,1.38,6.48,6.48,0,0,1,1.33,2,6.65,6.65,0,0,1,0,5,6.41,6.41,0,0,1-1.33,2,6.32,6.32,0,0,1-2,1.37A6,6,0,0,1,75.75,298.46Zm0-1.9a4,4,0,0,0,3-1.28,4.55,4.55,0,0,0,.87-1.44,5.08,5.08,0,0,0,.31-1.8,5,5,0,0,0-.31-1.8,4.55,4.55,0,0,0-.87-1.44,4,4,0,0,0-1.31-.95,4.07,4.07,0,0,0-1.64-.33,3.87,3.87,0,0,0-2.94,1.28,4.55,4.55,0,0,0-.87,1.44,5,5,0,0,0-.31,1.8,5.08,5.08,0,0,0,.31,1.8,4.55,4.55,0,0,0,.87,1.44,3.94,3.94,0,0,0,1.31.94A3.84,3.84,0,0,0,75.75,296.56Z"/><path class="cls-6" d="M83.34,298.22l4.92-12.38h1.83L95,298.22H92.91L91.69,295h-5l-1.23,3.23Zm4-5H91l-1.85-4.79Z"/></g></svg>