<svg xmlns="http://www.w3.org/2000/svg" viewBox="0 0 188.02 362.7"><defs><style>.cls-1{fill:#f6f6f6;}.cls-2{fill:#3c3c3b;}.cls-3{fill:#cc2a27;}.cls-4{fill:#1d1d1b;}.cls-5{fill:none;stroke:#1d1d1b;stroke-miterlimit:10;stroke-width:3px;}</style></defs><g id="Warstwa_3" data-name="Warstwa 3"><rect class="cls-1" x="58.04" y="197.94" width="119.24" height="93.22" rx="5.94"/><path class="cls-2" d="M171.35,292.16H64A6.94,6.94,0,0,1,57,285.22V203.87A6.94,6.94,0,0,1,64,196.94H171.35a6.94,6.94,0,0,1,6.93,6.93v81.35A6.94,6.94,0,0,1,171.35,292.16ZM64,198.94A4.94,4.94,0,0,0,59,203.87v81.35A5,5,0,0,0,64,290.16H171.35a4.94,4.94,0,0,0,4.93-4.94V203.87a4.93,4.93,0,0,0-4.93-4.93Z"/><path class="cls-1" d="M89.68,291.22h22.17a0,0,0,0,1,0,0v6.54a1.11,1.11,0,0,1-1.11,1.11h-20a1.11,1.11,0,0,1-1.11-1.11v-6.54A0,0,0,0,1,89.68,291.22Z"/><path class="cls-2" d="M110.75,299.86h-20a2.11,2.11,0,0,1-2.11-2.1v-7.54h24.17v7.54A2.1,2.1,0,0,1,110.75,299.86Zm-20.07-7.64v5.54a.1.1,0,0,0,.11.1h20a.09.09,0,0,0,.1-.1v-5.54Z"/><path class="cls-1" d="M145.83,291.16h9.1a0,0,0,0,1,0,0v1.23a1.11,1.11,0,0,1-1.11,1.11h-6.89a1.11,1.11,0,0,1-1.11-1.11v-1.23A0,0,0,0,1,145.83,291.16Z"/><path class="cls-2" d="M153.82,294.49h-6.88a2.11,2.11,0,0,1-2.11-2.1v-2.23h11.1v2.23A2.11,2.11,0,0,1,153.82,294.49Zm-7-2.33v.23a.1.1,0,0,0,.11.1h6.88a.1.1,0,0,0,.11-.1v-.23Z"/><rect class="cls-2" x="98.34" y="292.83" width="2.43" height="4.07"/><path class="cls-1" d="M90.79,190.29h20a1.11,1.11,0,0,1,1.11,1.11v6.54a0,0,0,0,1,0,0H89.68a0,0,0,0,1,0,0V191.4a1.11,1.11,0,0,1,1.11-1.11Z"/><path class="cls-2" d="M112.85,198.94H88.68V191.4a2.12,2.12,0,0,1,2.11-2.11h20a2.11,2.11,0,0,1,2.1,2.11Zm-22.17-2h20.17V191.4a.1.1,0,0,0-.1-.11h-20a.11.11,0,0,0-.11.11Z"/><rect class="cls-2" x="98.34" y="192.25" width="2.43" height="4.07"/><circle class="cls-2" cx="64.2" cy="204.16" r="2.56"/><circle class="cls-2" cx="170.56" cy="204.16" r="2.56"/><circle class="cls-2" cx="170.56" cy="284.87" r="2.56"/><circle class="cls-2" cx="64.45" cy="284.87" r="2.56"/><path class="cls-3" d="M76,253.24v-8.5h-2.7v-1.4h7v1.4h-2.7v8.5Z"/><path class="cls-3" d="M83.77,253.43A3.67,3.67,0,0,1,82,253a3.27,3.27,0,0,1-1.23-1.16,3.17,3.17,0,0,1-.45-1.67,3.22,3.22,0,0,1,.26-1.28,3.25,3.25,0,0,1,1.78-1.74,3.32,3.32,0,0,1,1.31-.25,3.47,3.47,0,0,1,1.68.39,2.94,2.94,0,0,1,1.13,1.11,3.24,3.24,0,0,1,.4,1.64s0,.1,0,.14,0,.09,0,.17h-5a1.91,1.91,0,0,0,.25,1,1.78,1.78,0,0,0,.7.66,2.23,2.23,0,0,0,1,.24,2.13,2.13,0,0,0,1-.23,2.41,2.41,0,0,0,.79-.69l1.08.56A3,3,0,0,1,85.5,253,3.59,3.59,0,0,1,83.77,253.43Zm-1.86-4H85.4a1.58,1.58,0,0,0-.32-.72,1.56,1.56,0,0,0-.6-.48,1.85,1.85,0,0,0-.82-.17,2.08,2.08,0,0,0-.85.16,1.56,1.56,0,0,0-.6.48A1.71,1.71,0,0,0,81.91,249.42Z"/><path class="cls-3" d="M90.53,253.43a1.58,1.58,0,0,1-1.29-.54,2.22,2.22,0,0,1-.46-1.51v-3.15H88V247.1h.76v-2.3h1.49v2.3h1.41v1.13H90.27v3.05a1.05,1.05,0,0,0,.16.61.52.52,0,0,0,.45.22,1,1,0,0,0,.59-.2l.37,1.19a2.3,2.3,0,0,1-.62.25A2.71,2.71,0,0,1,90.53,253.43Z"/><path class="cls-3" d="M96.11,253.43a2.9,2.9,0,0,1-1.54-.42,3,3,0,0,1-1.1-1.16,3.43,3.43,0,0,1-.41-1.68,3.52,3.52,0,0,1,.39-1.67,3,3,0,0,1,1.09-1.16,2.87,2.87,0,0,1,1.57-.43,3,3,0,0,1,1.33.3,2.42,2.42,0,0,1,1,.83v-.94h1.49v6.14H98.4v-1a3.07,3.07,0,0,1-1,.87A2.79,2.79,0,0,1,96.11,253.43Zm.43-1.27a1.86,1.86,0,0,0,1-.26,1.83,1.83,0,0,0,.68-.7,2.15,2.15,0,0,0,.24-1,2.09,2.09,0,0,0-.25-1,1.83,1.83,0,0,0-1.65-1,1.92,1.92,0,0,0-1,.26,1.9,1.9,0,0,0-.68.7,2.2,2.2,0,0,0-.24,1,2.13,2.13,0,0,0,.24,1,1.79,1.79,0,0,0,.68.71A1.9,1.9,0,0,0,96.54,252.16Z"/><path class="cls-4" d="M74.69,271.24V258.87h6.65v1.72H76.66v3.59h4.5v1.72h-4.5v3.62h4.68v1.72Z"/><path class="cls-4" d="M87.67,271.48a4.27,4.27,0,0,1-1.64-.31,4.37,4.37,0,0,1-1.36-.86,4.07,4.07,0,0,1-.91-1.3,3.78,3.78,0,0,1-.34-1.61,4,4,0,0,1,.32-1.57,4.13,4.13,0,0,1,.89-1.3,4.36,4.36,0,0,1,3-1.21,4.92,4.92,0,0,1,1.44.22,3.86,3.86,0,0,1,1.13.57l-.67,1.26a2.88,2.88,0,0,0-3-.15,2.45,2.45,0,0,0-.88.93,2.61,2.61,0,0,0-.32,1.25,2.53,2.53,0,0,0,.33,1.29,2.37,2.37,0,0,0,.92.91,2.53,2.53,0,0,0,1.33.34,2.93,2.93,0,0,0,.9-.14,2.43,2.43,0,0,0,.72-.36l.67,1.26a3.85,3.85,0,0,1-1.13.56A4.51,4.51,0,0,1,87.67,271.48Z"/><path class="cls-4" d="M96,271.48A4.83,4.83,0,0,1,93.8,271a4.1,4.1,0,0,1-1.59-1.44,3.91,3.91,0,0,1-.58-2.13,3.85,3.85,0,0,1,.58-2.12,4,4,0,0,1,1.59-1.44,4.83,4.83,0,0,1,2.24-.52,4.91,4.91,0,0,1,2.25.52,4,4,0,0,1,1.59,1.44,3.85,3.85,0,0,1,.58,2.12,3.91,3.91,0,0,1-.58,2.13A4.1,4.1,0,0,1,98.29,271,4.9,4.9,0,0,1,96,271.48Zm0-1.6a2.51,2.51,0,0,0,1.26-.32,2.32,2.32,0,0,0,.89-.87,2.74,2.74,0,0,0,0-2.57,2.28,2.28,0,0,0-.89-.88,2.7,2.7,0,0,0-2.51,0,2.35,2.35,0,0,0-.89.88,2.56,2.56,0,0,0-.32,1.28,2.62,2.62,0,0,0,.32,1.29,2.4,2.4,0,0,0,.89.87A2.5,2.5,0,0,0,96,269.88Z"/><path class="cls-4" d="M105.4,271.24l-3.6-12.37H104l2.61,9.71,3-9.71h1.49l3,9.71,2.61-9.71h2.18l-3.61,12.37h-2.19l-2.73-8.56-2.74,8.56Z"/><path class="cls-4" d="M123.45,271.48a4.49,4.49,0,0,1-2.21-.53,4,4,0,0,1-1.53-1.45,3.89,3.89,0,0,1-.57-2.08,4,4,0,0,1,.32-1.6,3.94,3.94,0,0,1,.9-1.3,4,4,0,0,1,1.33-.88,4.19,4.19,0,0,1,1.63-.32,4.36,4.36,0,0,1,2.11.5,3.6,3.6,0,0,1,1.41,1.38,4.15,4.15,0,0,1,.5,2.05c0,.07,0,.12,0,.17a1.22,1.22,0,0,1,0,.22h-6.25a2.36,2.36,0,0,0,.31,1.22,2.23,2.23,0,0,0,.89.83,2.83,2.83,0,0,0,1.3.29,2.63,2.63,0,0,0,1.24-.28,2.81,2.81,0,0,0,1-.86l1.36.7a3.75,3.75,0,0,1-1.52,1.43A4.59,4.59,0,0,1,123.45,271.48Zm-2.32-5h4.36a2.1,2.1,0,0,0-.4-.91,2,2,0,0,0-.76-.6,2.38,2.38,0,0,0-1-.21,2.69,2.69,0,0,0-1,.2,2,2,0,0,0-.76.6A2.1,2.1,0,0,0,121.13,266.47Z"/><path class="cls-4" d="M129.57,271.24v-7.68h1.87v.93a3.09,3.09,0,0,1,1.06-.84,3.32,3.32,0,0,1,1.51-.33,3.16,3.16,0,0,1,1.56.38,2.66,2.66,0,0,1,1,1.07,3.54,3.54,0,0,1,.36,1.64v4.83H135.1V266.8a2.14,2.14,0,0,0-.48-1.49,1.73,1.73,0,0,0-1.32-.52,2,2,0,0,0-1,.24,1.76,1.76,0,0,0-.64.63,1.71,1.71,0,0,0-.22.87v4.71Z"/><path class="cls-4" d="M142,271.48a2,2,0,0,1-1.61-.67,2.86,2.86,0,0,1-.58-1.9V265h-.94v-1.42h.94v-2.87h1.87v2.87h1.76V265h-1.76v3.8a1.32,1.32,0,0,0,.2.78.66.66,0,0,0,.57.27,1.16,1.16,0,0,0,.72-.26l.47,1.5a2.94,2.94,0,0,1-.77.3A3.24,3.24,0,0,1,142,271.48Z"/><line class="cls-5" x1="100.73" y1="189.26" x2="100.73" y2="122.94"/><line class="cls-5" x1="102.23" y1="122.94" y2="122.94"/></g></svg>