<svg xmlns="http://www.w3.org/2000/svg" viewBox="0 0 188.02 362.7"><defs><style>.cls-1{fill:#f6f6f6;}.cls-2{fill:#3c3c3b;}.cls-3{fill:#cc2a27;}.cls-4{fill:#1d1d1b;}.cls-5{fill:none;stroke:#1d1d1b;stroke-miterlimit:10;stroke-width:3px;}</style></defs><g id="Warstwa_3" data-name="Warstwa 3"><rect class="cls-1" x="58.24" y="197.41" width="119.24" height="93.22" rx="5.94"/><path class="cls-2" d="M171.55,291.63H64.18a6.94,6.94,0,0,1-6.94-6.93V203.35a7,7,0,0,1,6.94-6.94H171.55a7,7,0,0,1,6.93,6.94V284.7A6.94,6.94,0,0,1,171.55,291.63ZM64.18,198.41a5,5,0,0,0-4.94,4.94V284.7a4.94,4.94,0,0,0,4.94,4.93H171.55a4.93,4.93,0,0,0,4.93-4.93V203.35a4.94,4.94,0,0,0-4.93-4.94Z"/><path class="cls-1" d="M89.88,290.7h22.17a0,0,0,0,1,0,0v6.54a1.11,1.11,0,0,1-1.11,1.11H91a1.11,1.11,0,0,1-1.11-1.11V290.7a0,0,0,0,1,0,0Z"/><path class="cls-2" d="M111,299.34H91a2.11,2.11,0,0,1-2.11-2.11V289.7h24.17v7.53A2.1,2.1,0,0,1,111,299.34ZM90.88,291.7v5.53a.11.11,0,0,0,.11.11h20a.1.1,0,0,0,.1-.11V291.7Z"/><path class="cls-1" d="M146,290.63h9.1a0,0,0,0,1,0,0v1.23A1.11,1.11,0,0,1,154,293h-6.89a1.11,1.11,0,0,1-1.11-1.11v-1.23A0,0,0,0,1,146,290.63Z"/><path class="cls-2" d="M154,294h-6.88a2.11,2.11,0,0,1-2.11-2.1v-2.24h11.1v2.24A2.11,2.11,0,0,1,154,294Zm-7-2.34v.24a.11.11,0,0,0,.11.1H154a.11.11,0,0,0,.11-.1v-.24Z"/><rect class="cls-2" x="98.54" y="292.31" width="2.43" height="4.07"/><path class="cls-1" d="M91,189.77h20a1.11,1.11,0,0,1,1.11,1.11v6.54a0,0,0,0,1,0,0H89.88a0,0,0,0,1,0,0v-6.54A1.11,1.11,0,0,1,91,189.77Z"/><path class="cls-2" d="M113.05,198.41H88.88v-7.53A2.12,2.12,0,0,1,91,188.77h20a2.11,2.11,0,0,1,2.1,2.11Zm-22.17-2h20.17v-5.53a.1.1,0,0,0-.1-.11H91a.11.11,0,0,0-.11.11Z"/><rect class="cls-2" x="98.54" y="191.73" width="2.43" height="4.07"/><circle class="cls-2" cx="64.4" cy="203.63" r="2.56"/><circle class="cls-2" cx="170.76" cy="203.63" r="2.56"/><circle class="cls-2" cx="170.76" cy="284.35" r="2.56"/><circle class="cls-2" cx="64.65" cy="284.35" r="2.56"/><path class="cls-3" d="M71.62,236.8v-8.5H68.93v-1.4h7v1.4h-2.7v8.5Z"/><path class="cls-3" d="M79.42,237a3.67,3.67,0,0,1-1.76-.43,3.27,3.27,0,0,1-1.43-4.11,3.24,3.24,0,0,1,.72-1,3.32,3.32,0,0,1,2.37-.95,3.47,3.47,0,0,1,1.68.39A2.94,2.94,0,0,1,82.13,232a3.27,3.27,0,0,1,.41,1.64.71.71,0,0,0,0,.14s0,.09,0,.17h-5a1.88,1.88,0,0,0,.25,1,1.81,1.81,0,0,0,.71.66,2.19,2.19,0,0,0,1,.24,2.13,2.13,0,0,0,1-.23,2.41,2.41,0,0,0,.79-.69l1.09.56a3,3,0,0,1-1.22,1.14A3.57,3.57,0,0,1,79.42,237Zm-1.85-4h3.48a1.57,1.57,0,0,0-.31-.72,1.59,1.59,0,0,0-.61-.48,1.85,1.85,0,0,0-.82-.17,2,2,0,0,0-.84.16,1.52,1.52,0,0,0-.61.48A1.58,1.58,0,0,0,77.57,233Z"/><path class="cls-3" d="M86.18,237a1.61,1.61,0,0,1-1.29-.54,2.32,2.32,0,0,1-.46-1.52v-3.15h-.75v-1.13h.75v-2.3h1.5v2.3h1.41v1.13H85.93v3.05a1.06,1.06,0,0,0,.15.61.53.53,0,0,0,.46.22,1,1,0,0,0,.58-.2l.37,1.2a2.5,2.5,0,0,1-.62.24A2.72,2.72,0,0,1,86.18,237Z"/><path class="cls-3" d="M91.76,237a2.93,2.93,0,0,1-1.54-.43,3.07,3.07,0,0,1-1.1-1.16,3.42,3.42,0,0,1-.4-1.68,3.52,3.52,0,0,1,.39-1.67,3,3,0,0,1,1.08-1.16,2.89,2.89,0,0,1,1.57-.43,3,3,0,0,1,1.33.3,2.5,2.5,0,0,1,1,.83v-.94h1.49v6.14H94.05v-1a2.88,2.88,0,0,1-1,.87A2.79,2.79,0,0,1,91.76,237Zm.43-1.28a1.92,1.92,0,0,0,1-.26,1.81,1.81,0,0,0,.67-.7,2.31,2.31,0,0,0,0-2,2,2,0,0,0-2.64-.71,1.79,1.79,0,0,0-.68.71,2,2,0,0,0-.25,1,2.09,2.09,0,0,0,.25,1,1.81,1.81,0,0,0,.67.7A1.92,1.92,0,0,0,92.19,235.72Z"/><path class="cls-4" d="M70.34,254.8V242.43H77v1.72H72.31v3.59h4.51v1.72H72.31v3.62H77v1.72Z"/><path class="cls-4" d="M83.33,255a4.29,4.29,0,0,1-1.65-.31,4.15,4.15,0,0,1-1.35-.86,4.1,4.1,0,0,1-.92-1.3,3.93,3.93,0,0,1-.33-1.61,4,4,0,0,1,.31-1.57,4.28,4.28,0,0,1,3.92-2.51,4.92,4.92,0,0,1,1.44.22,3.73,3.73,0,0,1,1.13.57l-.66,1.26a2.67,2.67,0,0,0-1.64-.5,2.6,2.6,0,0,0-1.36.35,2.43,2.43,0,0,0-.89.94,2.66,2.66,0,0,0,0,2.53,2.44,2.44,0,0,0,.91.92,2.66,2.66,0,0,0,1.34.33,2.81,2.81,0,0,0,.89-.14,2.43,2.43,0,0,0,.72-.36l.67,1.26a3.62,3.62,0,0,1-1.13.56A4.44,4.44,0,0,1,83.33,255Z"/><path class="cls-4" d="M91.7,255a4.9,4.9,0,0,1-2.25-.51,4,4,0,0,1-1.58-1.44,3.84,3.84,0,0,1-.59-2.13,3.78,3.78,0,0,1,.59-2.12,3.93,3.93,0,0,1,1.58-1.44,4.91,4.91,0,0,1,2.25-.52,4.83,4.83,0,0,1,2.24.52,4,4,0,0,1,1.59,1.44,3.86,3.86,0,0,1,.59,2.12,3.92,3.92,0,0,1-.59,2.13,4.1,4.1,0,0,1-1.59,1.44A4.83,4.83,0,0,1,91.7,255Zm0-1.6a2.56,2.56,0,0,0,1.26-.32,2.3,2.3,0,0,0,.88-.87,2.74,2.74,0,0,0,0-2.57,2.32,2.32,0,0,0-.88-.88,2.56,2.56,0,0,0-1.26-.31,2.5,2.5,0,0,0-1.26.31,2.32,2.32,0,0,0-.88.88,2.46,2.46,0,0,0-.33,1.28,2.53,2.53,0,0,0,.33,1.29,2.3,2.3,0,0,0,.88.87A2.51,2.51,0,0,0,91.7,253.44Z"/><path class="cls-4" d="M98.72,254.8V242.43h2l5.81,9.08v-9.08h2V254.8h-2l-5.81-9.07v9.07Z"/><line class="cls-5" x1="100.73" y1="189.26" x2="100.73" y2="122.94"/><line class="cls-5" x1="102.23" y1="122.94" y2="122.94"/></g></svg>