<svg xmlns="http://www.w3.org/2000/svg" viewBox="0 0 188.02 362.7"><defs><style>.cls-1{fill:none;stroke:#1d1d1b;stroke-miterlimit:10;stroke-width:3px;}.cls-2{fill:#f6f6f6;}.cls-3{fill:#3c3c3b;}.cls-4{fill:#cc2a27;}.cls-5{fill:#1d1d1b;}.cls-6{fill:#fff;}</style></defs><g id="Warstwa_3" data-name="Warstwa 3"><line class="cls-1" x1="100.48" y1="85.99" x2="100.48" y2="61.94"/><rect class="cls-2" x="58.04" y="93.63" width="119.24" height="93.22" rx="5.94"/><path class="cls-3" d="M171.35,187.86H64A7,7,0,0,1,57,180.92V99.57A6.94,6.94,0,0,1,64,92.64H171.35a6.94,6.94,0,0,1,6.93,6.93v81.35A7,7,0,0,1,171.35,187.86ZM64,94.64A4.94,4.94,0,0,0,59,99.57v81.35A5,5,0,0,0,64,185.86H171.35a4.94,4.94,0,0,0,4.93-4.94V99.57a4.93,4.93,0,0,0-4.93-4.93Z"/><path class="cls-2" d="M89.68,186.92h22.17a0,0,0,0,1,0,0v6.54a1.11,1.11,0,0,1-1.11,1.11h-20a1.11,1.11,0,0,1-1.11-1.11v-6.54a0,0,0,0,1,0,0Z"/><path class="cls-3" d="M110.75,195.56h-20a2.11,2.11,0,0,1-2.11-2.1v-7.54h24.17v7.54A2.1,2.1,0,0,1,110.75,195.56Zm-20.07-7.64v5.54a.11.11,0,0,0,.11.1h20a.11.11,0,0,0,.1-.1v-5.54Z"/><path class="cls-2" d="M145.83,186.86h9.1a0,0,0,0,1,0,0v1.23a1.11,1.11,0,0,1-1.11,1.11h-6.89a1.11,1.11,0,0,1-1.11-1.11v-1.23A0,0,0,0,1,145.83,186.86Z"/><path class="cls-3" d="M153.82,190.19h-6.88a2.1,2.1,0,0,1-2.11-2.1v-2.23h11.1v2.23A2.11,2.11,0,0,1,153.82,190.19Zm-7-2.33v.23a.1.1,0,0,0,.11.1h6.88a.1.1,0,0,0,.11-.1v-.23Z"/><rect class="cls-3" x="98.34" y="188.53" width="2.43" height="4.07"/><path class="cls-2" d="M90.79,86h20a1.11,1.11,0,0,1,1.11,1.11v6.54a0,0,0,0,1,0,0H89.68a0,0,0,0,1,0,0V87.1A1.11,1.11,0,0,1,90.79,86Z"/><path class="cls-3" d="M112.85,94.64H88.68V87.1A2.12,2.12,0,0,1,90.79,85h20a2.11,2.11,0,0,1,2.1,2.11Zm-22.17-2h20.17V87.1a.11.11,0,0,0-.1-.11h-20a.11.11,0,0,0-.11.11Z"/><rect class="cls-3" x="98.34" y="87.95" width="2.43" height="4.07"/><circle class="cls-3" cx="64.2" cy="99.86" r="2.56"/><circle class="cls-3" cx="170.56" cy="99.86" r="2.56"/><circle class="cls-3" cx="170.56" cy="180.57" r="2.56"/><circle class="cls-3" cx="64.45" cy="180.57" r="2.56"/><path class="cls-4" d="M76,148.94v-8.5h-2.7V139h7v1.4h-2.7v8.5Z"/><path class="cls-4" d="M83.77,149.13a3.67,3.67,0,0,1-1.77-.42,3.22,3.22,0,0,1-1.23-1.17,3.11,3.11,0,0,1-.45-1.66,3.18,3.18,0,0,1,.26-1.28,3.37,3.37,0,0,1,.71-1,3.2,3.2,0,0,1,1.07-.7,3.32,3.32,0,0,1,1.3-.26,3.52,3.52,0,0,1,1.69.4,2.94,2.94,0,0,1,1.13,1.11,3.24,3.24,0,0,1,.4,1.64c0,.05,0,.1,0,.13s0,.1,0,.18h-5a1.85,1.85,0,0,0,.25,1,1.74,1.74,0,0,0,.7.67,2.34,2.34,0,0,0,1,.23,2.14,2.14,0,0,0,1-.22,2.41,2.41,0,0,0,.79-.69l1.08.56a3,3,0,0,1-1.21,1.14A3.59,3.59,0,0,1,83.77,149.13Zm-1.86-4H85.4a1.67,1.67,0,0,0-.32-.73,1.59,1.59,0,0,0-.61-.47,1.78,1.78,0,0,0-.81-.17,2.08,2.08,0,0,0-.85.16,1.49,1.49,0,0,0-.6.47A1.81,1.81,0,0,0,81.91,145.12Z"/><path class="cls-4" d="M90.53,149.13a1.61,1.61,0,0,1-1.29-.54,2.25,2.25,0,0,1-.46-1.52v-3.14H88V142.8h.76v-2.3h1.49v2.3h1.41v1.13H90.27v3a1,1,0,0,0,.16.62.55.55,0,0,0,.45.22.88.88,0,0,0,.58-.21l.38,1.2a2.67,2.67,0,0,1-.62.24A2.72,2.72,0,0,1,90.53,149.13Z"/><path class="cls-4" d="M96.11,149.13a3,3,0,0,1-1.55-.42,3,3,0,0,1-1.09-1.16,3.44,3.44,0,0,1-.41-1.69,3.48,3.48,0,0,1,.39-1.66A3.15,3.15,0,0,1,94.54,143a3,3,0,0,1,1.57-.43,3.12,3.12,0,0,1,1.33.3,2.35,2.35,0,0,1,1,.84v-.94h1.5v6.14h-1.5v-1a2.81,2.81,0,0,1-1,.86A2.67,2.67,0,0,1,96.11,149.13Zm.42-1.28a1.87,1.87,0,0,0,1-.25,1.74,1.74,0,0,0,.67-.7,2.25,2.25,0,0,0,0-2.06,1.81,1.81,0,0,0-.67-.7,1.87,1.87,0,0,0-1-.26,1.91,1.91,0,0,0-1,.26,1.83,1.83,0,0,0-.68.7,2.31,2.31,0,0,0,0,2,1.81,1.81,0,0,0,1.66,1Z"/><path class="cls-5" d="M74.69,166.94V154.57h6.65v1.72H76.66v3.59h4.5v1.72h-4.5v3.62h4.68v1.72Z"/><path class="cls-5" d="M87.67,167.18a4.32,4.32,0,0,1-3-1.18,4.22,4.22,0,0,1-.92-1.29,3.93,3.93,0,0,1-.33-1.61,4,4,0,0,1,.32-1.57,4,4,0,0,1,.89-1.3,4.18,4.18,0,0,1,1.35-.89,4.45,4.45,0,0,1,1.68-.32,4.51,4.51,0,0,1,1.43.22,3.38,3.38,0,0,1,1.14.57l-.67,1.26a2.57,2.57,0,0,0-1.63-.5,2.54,2.54,0,0,0-1.37.35,2.48,2.48,0,0,0-.89.93,2.72,2.72,0,0,0-.31,1.25,2.53,2.53,0,0,0,.33,1.29,2.41,2.41,0,0,0,.91.91,2.69,2.69,0,0,0,1.34.34,2.93,2.93,0,0,0,.9-.14,2.08,2.08,0,0,0,.71-.37l.68,1.26a3.86,3.86,0,0,1-1.13.57A4.51,4.51,0,0,1,87.67,167.18Z"/><path class="cls-5" d="M96,167.18a4.71,4.71,0,0,1-2.24-.52,4,4,0,0,1-1.59-1.44,3.86,3.86,0,0,1-.59-2.12,3.92,3.92,0,0,1,.59-2.13,4,4,0,0,1,1.59-1.43A4.71,4.71,0,0,1,96,159a4.78,4.78,0,0,1,2.25.52A3.91,3.91,0,0,1,99.87,161a3.84,3.84,0,0,1,.59,2.13,3.78,3.78,0,0,1-.59,2.12,3.86,3.86,0,0,1-1.58,1.44A4.78,4.78,0,0,1,96,167.18Zm0-1.6a2.51,2.51,0,0,0,1.26-.32,2.32,2.32,0,0,0,.89-.87,2.57,2.57,0,0,0,.32-1.29,2.62,2.62,0,0,0-.32-1.29,2.32,2.32,0,0,0-.89-.87,2.7,2.7,0,0,0-2.51,0,2.32,2.32,0,0,0-.89.87,2.53,2.53,0,0,0-.33,1.29,2.46,2.46,0,0,0,.33,1.28,2.28,2.28,0,0,0,.89.88A2.5,2.5,0,0,0,96,165.58Z"/><path class="cls-5" d="M105.4,166.94l-3.61-12.37H104l2.61,9.71,3-9.71h1.49l3,9.71,2.61-9.71h2.18l-3.61,12.37h-2.19l-2.73-8.56-2.74,8.56Z"/><path class="cls-5" d="M123.45,167.18a4.6,4.6,0,0,1-2.21-.53,4.08,4.08,0,0,1-1.54-1.46,3.92,3.92,0,0,1-.56-2.07,4,4,0,0,1,.32-1.6,4.06,4.06,0,0,1,.89-1.31,4.3,4.3,0,0,1,1.34-.87,4.19,4.19,0,0,1,1.63-.32,4.29,4.29,0,0,1,2.1.5,3.47,3.47,0,0,1,1.41,1.38,4,4,0,0,1,.51,2c0,.07,0,.12,0,.17a1,1,0,0,1,0,.21h-6.25a2.39,2.39,0,0,0,.31,1.23,2.27,2.27,0,0,0,.88.83,2.86,2.86,0,0,0,1.3.29,2.68,2.68,0,0,0,1.25-.28,2.91,2.91,0,0,0,1-.86l1.36.7a3.81,3.81,0,0,1-1.52,1.43A4.59,4.59,0,0,1,123.45,167.18Zm-2.32-5h4.36a2.06,2.06,0,0,0-.4-.9,2,2,0,0,0-.76-.6,2.38,2.38,0,0,0-1-.21,2.69,2.69,0,0,0-1,.2,2,2,0,0,0-.76.59A2.15,2.15,0,0,0,121.13,162.16Z"/><path class="cls-5" d="M129.57,166.94v-7.68h1.87v.92a2.87,2.87,0,0,1,1.06-.83A3.32,3.32,0,0,1,134,159a3.1,3.1,0,0,1,1.55.38,2.56,2.56,0,0,1,1,1.07,3.5,3.5,0,0,1,.36,1.63v4.84H135.1v-4.45a2.11,2.11,0,0,0-.48-1.48,1.7,1.7,0,0,0-1.32-.52,2,2,0,0,0-1,.24,1.68,1.68,0,0,0-.64.63,1.71,1.71,0,0,0-.22.87v4.71Z"/><path class="cls-5" d="M142,167.18a2,2,0,0,1-1.61-.67,2.87,2.87,0,0,1-.58-1.9v-3.93h-.94v-1.42h.94v-2.87h1.87v2.87h1.76v1.42h-1.76v3.8a1.29,1.29,0,0,0,.2.77.66.66,0,0,0,.57.27,1.15,1.15,0,0,0,.72-.25l.47,1.5a3.86,3.86,0,0,1-.77.3A3.77,3.77,0,0,1,142,167.18Z"/><line class="cls-1" x1="100.54" y1="219.62" x2="100.54" y2="195.56"/><rect class="cls-2" x="58.04" y="228.26" width="119.24" height="93.22" rx="5.94"/><path class="cls-3" d="M171.35,322.48H64A6.94,6.94,0,0,1,57,315.55V234.2A7,7,0,0,1,64,227.26H171.35a7,7,0,0,1,6.93,6.94v81.35A6.94,6.94,0,0,1,171.35,322.48ZM64,229.26A5,5,0,0,0,59,234.2v81.35A4.94,4.94,0,0,0,64,320.48H171.35a4.93,4.93,0,0,0,4.93-4.93V234.2a4.94,4.94,0,0,0-4.93-4.94Z"/><rect class="cls-2" x="89.68" y="321.55" width="29.75" height="6.25"/><path class="cls-3" d="M120.43,328.8H88.68v-8.25h31.75Zm-29.75-2h27.75v-4.25H90.68Z"/><path class="cls-6" d="M92.15,327.82h24.63a0,0,0,0,1,0,0V359a2.61,2.61,0,0,1-2.61,2.61H94.75A2.61,2.61,0,0,1,92.15,359V327.82A0,0,0,0,1,92.15,327.82Z"/><path class="cls-3" d="M114.17,362.62H94.75a3.6,3.6,0,0,1-3.6-3.6v-32.2h26.63V359A3.61,3.61,0,0,1,114.17,362.62Zm-21-33.8V359a1.6,1.6,0,0,0,1.6,1.6h19.42a1.61,1.61,0,0,0,1.61-1.6v-30.2Z"/><rect class="cls-3" x="99.06" y="330.39" width="2.19" height="28.61"/><rect class="cls-3" x="98.34" y="323.16" width="2.43" height="3"/><circle class="cls-3" cx="64.2" cy="234.48" r="2.56"/><circle class="cls-3" cx="170.56" cy="234.48" r="2.56"/><circle class="cls-3" cx="170.56" cy="315.2" r="2.56"/><circle class="cls-3" cx="64.45" cy="315.2" r="2.56"/><path class="cls-2" d="M90.5,220.4h20a1.11,1.11,0,0,1,1.11,1.11V228a0,0,0,0,1,0,0H89.4a0,0,0,0,1,0,0v-6.54A1.11,1.11,0,0,1,90.5,220.4Z"/><path class="cls-3" d="M112.57,229H88.4v-7.53a2.1,2.1,0,0,1,2.11-2.11h19.95a2.11,2.11,0,0,1,2.11,2.11ZM90.4,227h20.17v-5.53a.11.11,0,0,0-.11-.11H90.51a.11.11,0,0,0-.11.11Z"/><rect class="cls-3" x="98.05" y="222.36" width="2.43" height="4.07"/><path class="cls-4" d="M76.16,284v-8.5h-2.7v-1.4h7v1.4h-2.7V284Z"/><path class="cls-4" d="M84,284.14a3.67,3.67,0,0,1-1.77-.42A3.29,3.29,0,0,1,81,282.55a3.11,3.11,0,0,1-.45-1.66,3.18,3.18,0,0,1,.26-1.28,3.26,3.26,0,0,1,.71-1,3.2,3.2,0,0,1,1.07-.7,3.33,3.33,0,0,1,1.31-.26,3.48,3.48,0,0,1,1.68.4,2.81,2.81,0,0,1,1.13,1.11,3.24,3.24,0,0,1,.4,1.64c0,.05,0,.09,0,.13a1.49,1.49,0,0,1,0,.17H82a1.86,1.86,0,0,0,.25,1,1.65,1.65,0,0,0,.7.66,2.23,2.23,0,0,0,1.05.24,2.12,2.12,0,0,0,1-.22,2.41,2.41,0,0,0,.79-.69l1.08.56a3,3,0,0,1-1.21,1.14A3.71,3.71,0,0,1,84,284.14Zm-1.86-4h3.49a1.62,1.62,0,0,0-.32-.73,1.77,1.77,0,0,0-.6-.48,2,2,0,0,0-.82-.17,2.08,2.08,0,0,0-.85.17,1.56,1.56,0,0,0-.6.47A1.75,1.75,0,0,0,82.1,280.13Z"/><path class="cls-4" d="M90.72,284.14a1.61,1.61,0,0,1-1.29-.54,2.25,2.25,0,0,1-.46-1.52v-3.14h-.76v-1.13H89v-2.3h1.49v2.3h1.41v1.13H90.46v3a1.07,1.07,0,0,0,.16.62.55.55,0,0,0,.45.22.93.93,0,0,0,.59-.21l.37,1.2a2.67,2.67,0,0,1-.62.24A2.72,2.72,0,0,1,90.72,284.14Z"/><path class="cls-4" d="M96.3,284.14a2.9,2.9,0,0,1-1.54-.42,3,3,0,0,1-1.1-1.16,3.46,3.46,0,0,1-.41-1.69,3.37,3.37,0,0,1,.4-1.66A3,3,0,0,1,94.73,278a3.09,3.09,0,0,1,2.9-.13,2.44,2.44,0,0,1,1,.84v-.94h1.49V284H98.59v-1a2.93,2.93,0,0,1-1,.86A2.67,2.67,0,0,1,96.3,284.14Zm.43-1.28a1.86,1.86,0,0,0,1-.25,1.9,1.9,0,0,0,.68-.7,2.15,2.15,0,0,0,.24-1,2,2,0,0,0-.25-1,1.81,1.81,0,0,0-.67-.7,1.86,1.86,0,0,0-1-.26,1.92,1.92,0,0,0-1,.26,1.83,1.83,0,0,0-.68.7,2.31,2.31,0,0,0,0,2,1.86,1.86,0,0,0,.68.71A1.89,1.89,0,0,0,96.73,282.86Z"/><path class="cls-5" d="M74.26,302l1.36-12.38h2.09l3.2,8.44,3.2-8.44H86.2L87.56,302h-2l-1-8.82-3.09,8.35H80.29l-3.08-8.35-1,8.82Z"/><path class="cls-5" d="M91.13,292.69a1.1,1.1,0,0,1-.57-.15,1.15,1.15,0,0,1-.41-.41,1.06,1.06,0,0,1-.16-.58,1,1,0,0,1,.16-.56,1.24,1.24,0,0,1,.41-.41,1.1,1.1,0,0,1,.57-.15,1,1,0,0,1,.56.15,1.34,1.34,0,0,1,.41.41,1.07,1.07,0,0,1,.15.56,1.14,1.14,0,0,1-.15.58,1.24,1.24,0,0,1-.41.41A1,1,0,0,1,91.13,292.69ZM90.19,302v-7.68h1.87V302Z"/><path class="cls-5" d="M95,302v-7.68h1.87v.92a3,3,0,0,1,1.06-.83A3.32,3.32,0,0,1,99.4,294a3.09,3.09,0,0,1,1.55.37,2.58,2.58,0,0,1,1,1.08,3.5,3.5,0,0,1,.36,1.63V302h-1.86V297.5A2.11,2.11,0,0,0,100,296a1.7,1.7,0,0,0-1.32-.52,2,2,0,0,0-1,.24,1.55,1.55,0,0,0-.64.63,1.71,1.71,0,0,0-.22.87V302Z"/><path class="cls-5" d="M106,292.69a1.1,1.1,0,0,1-.57-.15,1.15,1.15,0,0,1-.41-.41,1.06,1.06,0,0,1-.16-.58,1,1,0,0,1,.16-.56,1.24,1.24,0,0,1,.41-.41,1.1,1.1,0,0,1,.57-.15,1,1,0,0,1,.56.15,1.34,1.34,0,0,1,.41.41,1.07,1.07,0,0,1,.15.56,1.14,1.14,0,0,1-.15.58,1.24,1.24,0,0,1-.41.41A1,1,0,0,1,106,292.69ZM105.1,302v-7.68H107V302Z"/><path class="cls-5" d="M110.23,302V289.57h3.18a6.19,6.19,0,0,1,2.45.48,6,6,0,0,1,2,1.31,6.17,6.17,0,0,1,1.81,4.41,6.3,6.3,0,0,1-.47,2.43,6.07,6.07,0,0,1-1.33,2,6.16,6.16,0,0,1-2,1.31,6.45,6.45,0,0,1-2.46.47Zm2-1.76h1a4.43,4.43,0,0,0,1.72-.33,4,4,0,0,0,1.38-.94,4.36,4.36,0,0,0,.92-1.41,4.81,4.81,0,0,0,0-3.5,4.36,4.36,0,0,0-.92-1.41,4.1,4.1,0,0,0-1.38-.93,4.26,4.26,0,0,0-1.72-.34h-1Z"/><path class="cls-5" d="M125.69,302.19a4.6,4.6,0,0,1-2.21-.53,4.08,4.08,0,0,1-1.54-1.46,4,4,0,0,1-.56-2.08,4.08,4.08,0,0,1,.32-1.6,4.13,4.13,0,0,1,.89-1.3,4.28,4.28,0,0,1,1.33-.88,4.24,4.24,0,0,1,1.64-.31,4.29,4.29,0,0,1,2.1.49,3.62,3.62,0,0,1,1.41,1.39,4,4,0,0,1,.51,2,1,1,0,0,0,0,.17c0,.05,0,.12,0,.21h-6.26a2.34,2.34,0,0,0,.32,1.22,2.07,2.07,0,0,0,.88.83,2.74,2.74,0,0,0,1.3.3,2.61,2.61,0,0,0,1.24-.28,3.06,3.06,0,0,0,1-.86l1.36.7a3.88,3.88,0,0,1-1.52,1.43A4.59,4.59,0,0,1,125.69,302.19Zm-2.32-5h4.36a2.15,2.15,0,0,0-.4-.91,2.11,2.11,0,0,0-.76-.59,2.39,2.39,0,0,0-1-.22,2.57,2.57,0,0,0-1.06.21,1.92,1.92,0,0,0-.75.59A2,2,0,0,0,123.37,297.17Z"/><path class="cls-5" d="M134.14,302.19a2,2,0,0,1-1.61-.68,2.79,2.79,0,0,1-.58-1.89v-3.93H131v-1.42H132V291.4h1.87v2.87h1.76v1.42h-1.76v3.8a1.31,1.31,0,0,0,.19.77.68.68,0,0,0,.57.27,1.15,1.15,0,0,0,.73-.25l.46,1.5a3.64,3.64,0,0,1-.77.3A3.69,3.69,0,0,1,134.14,302.19Z"/><line class="cls-1" x1="40.72" y1="122.97" x2="40.72" y2="60.44"/><line class="cls-1" x1="42.23" y1="122.94" y2="122.94"/><line class="cls-1" x1="101.99" y1="61.94" x2="39.33" y2="61.94"/></g></svg>