<?xml version="1.0" encoding="UTF-8"?>
<svg id="Warstwa_3" data-name="Warstwa 3" xmlns="http://www.w3.org/2000/svg" viewBox="0 0 262.31 362.7">
  <defs>
    <style>
      .cls-1 {
        fill: #1d1d1b;
        font-family: Spartan-SemiBold, Spartan;
        font-size: 12.74px;
        font-variation-settings: 'wght' 600;
        font-weight: 600;
      }

      .cls-2 {
        fill: #f6f6f6;
      }

      .cls-3 {
        fill: #fff;
      }

      .cls-4 {
        letter-spacing: 0em;
      }

      .cls-5 {
        fill: #3c3c3b;
      }

      .cls-6 {
        fill: #1a1a1a;
      }

      .cls-7 {
        letter-spacing: 0em;
      }

      .cls-8 {
        letter-spacing: 0em;
      }

      .cls-9 {
        fill: none;
        stroke: #1d1d1b;
        stroke-miterlimit: 10;
        stroke-width: 3px;
      }

      .cls-10 {
        letter-spacing: -.08em;
      }

      .cls-11 {
        fill: #ededed;
      }
    </style>
  </defs>
  <g>
    <g>
      <g>
        <path class="cls-2" d="M11.71,193.88h0v-5.87c0-.19.16-.35.35-.35h26.37c.05,0,.1.01.15.04h2.92s.1,0,.1,0h19.08c.36,0,.65.29.65.65v6.77s13.24,0,13.24,0c.43,0,.78.35.78.78v39.05c0,.43-.35.78-.78.78h-18.91c-.43,0-.78-.35-.78-.78v-1.67s-3.7,0-3.7,0c-.35,0-.64-.25-.72-.58l-35.86-35.86s-.04-.07-.07-.1l-2.51-2.51s-.03-.04-.04-.07l-.26-.26h0s0,0,0,0h0s0,0,0,0Z"/>
        <path class="cls-5" d="M54.29,234.94v-1.08s-3.11,0-3.11,0c-.55,0-1.04-.34-1.23-.86l-35.76-35.76c-.06-.06-.1-.12-.12-.15l-2.45-2.45s-.08-.09-.1-.12l-.04-.04h-.35v-.35s-.31-.31-.31-.31l.31-.23v-5.58c0-.52.42-.94.94-.94h26.37c.09,0,.17.01.25.04h22c.68,0,1.23.55,1.23,1.23v6.18s12.65,0,12.65,0c.75,0,1.37.61,1.37,1.37v39.05c0,.75-.61,1.37-1.37,1.37h-18.91c-.75,0-1.37-.61-1.37-1.37ZM60.75,195.7v-7.36s-.03-.06-.06-.06h-22.24s-.08-.04-.08-.04H12.3s0,5.39,0,5.39l38.7,38.75.04.16c.02.07.07.13.15.13h4.29v2.26c0,.1.09.19.19.19h18.91c.1,0,.19-.09.19-.19v-39.05c0-.1-.09-.19-.19-.19h-13.83Z"/>
      </g>
      <g>
        <path class="cls-11" d="M1.21,195.99h12.48s35.38,35.28,35.38,35.28c-.04.27-.26.49-.55.49h-2.33s0,1.57,0,1.57c0,.07-.06.12-.12.12h-5.39c-.07,0-.12-.06-.12-.12v-1.57s-9.12,0-9.12,0v1.57c0,.07-.06.12-.12.12h-5.39c-.07,0-.12-.06-.12-.12v-1.57s-2.33,0-2.33,0c-.31,0-.56-.25-.56-.56v-4.72s-4.44,0-4.44,0v6.52c0,.2-.16.36-.36.36h-3.85s-6.44,0-6.44,0H1.21c-.34,0-.62-.28-.62-.62v-36.11c0-.34.28-.62.62-.62Z"/>
        <path class="cls-6" d="M25.21,233.33v-.99s-1.74,0-1.74,0c-.63,0-1.15-.52-1.15-1.15v-4.14s-3.26,0-3.26,0v5.93c0,.53-.43.95-.95.95H1.21c-.67,0-1.21-.54-1.21-1.21v-36.11c0-.67.54-1.21,1.21-1.21h12.72s35.76,35.65,35.76,35.65l-.04.29c-.08.57-.56,1-1.13,1h-1.74s0,.99,0,.99c0,.39-.32.71-.71.71h-5.39c-.39,0-.71-.32-.71-.71v-.99s-7.95,0-7.95,0v.99c0,.39-.32.71-.71.71h-5.39c-.39,0-.71-.32-.71-.71ZM30.85,231.17h10.3v1.7s4.46,0,4.46,0v-1.7h2.55s-34.71-34.59-34.71-34.59H1.21s-.04.04-.04.04l.04,36.15h16.67s0-6.88,0-6.88h5.61l-.02,5.29h2.92v1.7s4.46,0,4.46,0v-1.7Z"/>
      </g>
      <g>
        <rect class="cls-2" x="6.82" y="178.46" width="58.63" height="9.23" rx="1.03" ry="1.03" transform="translate(72.27 366.16) rotate(-180)"/>
        <path class="cls-6" d="M6.23,186.67v-7.18c0-.89.73-1.62,1.62-1.62h56.57c.89,0,1.62.73,1.62,1.62v7.18c0,.89-.73,1.62-1.62,1.62H7.85c-.89,0-1.62-.73-1.62-1.62ZM7.85,179.05c-.24,0-.44.2-.44.44v7.18c0,.24.2.44.44.44h56.57c.24,0,.44-.2.44-.44v-7.18c0-.24-.2-.44-.44-.44H7.85Z"/>
      </g>
      <g>
        <rect class="cls-2" x="17.66" y="143.19" width="38.16" height="11.68" rx=".93" ry=".93" transform="translate(185.78 112.29) rotate(90)"/>
        <path class="cls-6" d="M30.37,167.18v-36.29c0-.81.66-1.47,1.47-1.47h9.81c.81,0,1.47.66,1.47,1.47v36.29c0,.81-.66,1.47-1.47,1.47h-9.81c-.81,0-1.47-.66-1.47-1.47ZM31.84,130.49c-.22,0-.4.18-.4.4v36.29c0,.22.18.4.4.4h9.81c.22,0,.4-.18.4-.4v-36.29c0-.22-.18-.4-.4-.4h-9.81Z"/>
      </g>
      <rect class="cls-6" x="27.29" y="113.04" width="18.91" height="14.02" rx=".72" ry=".72" transform="translate(156.8 83.31) rotate(90)"/>
      <g>
        <rect class="cls-3" x="50.7" y="138.52" width="28.93" height="31.37" rx="1.33" ry="1.33" transform="translate(219.37 89.04) rotate(90)"/>
        <path class="cls-5" d="M48.89,167.34v-26.26c0-1.06.86-1.92,1.92-1.92h28.71c1.06,0,1.92.86,1.92,1.92v26.26c0,1.06-.86,1.92-1.92,1.92h-28.71c-1.06,0-1.92-.86-1.92-1.92ZM50.81,140.33c-.41,0-.75.33-.75.75v26.26c0,.41.33.74.75.74h28.71c.41,0,.75-.33.75-.74v-26.26c0-.41-.33-.75-.75-.75h-28.71Z"/>
      </g>
      <g>
        <rect class="cls-3" x="61.6" y="121.94" width="7.12" height="28.7" rx=".63" ry=".63" transform="translate(201.46 71.13) rotate(90)"/>
        <path class="cls-6" d="M50.23,139.22v-5.86c0-.67.55-1.22,1.22-1.22h27.44c.67,0,1.22.55,1.22,1.22v5.86c0,.67-.55,1.22-1.22,1.22h-27.44c-.67,0-1.22-.55-1.22-1.22ZM51.45,133.32s-.05.02-.05.04v5.86s.02.05.05.05h27.44s.05-.02.05-.05v-5.86s-.02-.04-.05-.04h-27.44Z"/>
      </g>
      <rect class="cls-6" x="55.54" y="112.76" width="19.36" height="20.8" rx=".89" ry=".89" transform="translate(188.39 57.95) rotate(90)"/>
      <rect class="cls-6" x="70.14" y="115.87" width="13.57" height="14.59" rx=".62" ry=".62" transform="translate(200.09 46.24) rotate(90)"/>
      <rect class="cls-6" x="80.55" y="120.83" width="11.57" height="4.68" rx=".33" ry=".33" transform="translate(209.5 36.84) rotate(90)"/>
      <rect class="cls-6" x="26.95" y="167.72" width="19.58" height="2.67" rx=".32" ry=".32" transform="translate(73.49 338.12) rotate(-180)"/>
      <rect class="cls-6" x="34.76" y="152.46" width="19.58" height="3.6" rx=".37" ry=".37" transform="translate(-109.71 198.81) rotate(-90)"/>
      <rect class="cls-6" x="40.86" y="152.46" width="14.35" height="3.6" rx=".32" ry=".32" transform="translate(-106.23 202.3) rotate(-90)"/>
      <g>
        <path class="cls-2" d="M13.1,170.9h47.29c.47,0,.85.38.85.85v2.14c0,2.52-2.05,4.57-4.57,4.57H16.82c-2.52,0-4.57-2.05-4.57-4.57v-2.14c0-.47.38-.85.85-.85Z" transform="translate(73.49 349.36) rotate(-180)"/>
        <path class="cls-6" d="M11.66,177.61v-2.14c0-2.84,2.31-5.16,5.16-5.16h39.85c2.84,0,5.16,2.31,5.16,5.16v2.14c0,.79-.65,1.44-1.44,1.44H13.1c-.79,0-1.44-.65-1.44-1.44ZM16.82,171.48c-2.2,0-3.98,1.79-3.98,3.98v2.14c0,.15.12.26.26.26h47.29c.15,0,.26-.12.26-.26v-2.14c0-2.2-1.79-3.98-3.98-3.98H16.82Z"/>
      </g>
      <rect class="cls-3" x="31.67" y="112.6" width=".59" height="14.46"/>
      <rect class="cls-5" x="32.22" y="138.74" width=".59" height="21.81"/>
      <path class="cls-5" d="M51.6,165.61l-.08-4.66,5.51-.09.1,5.97-4.21.07h-.02c-.71,0-1.3-.57-1.31-1.29ZM56.1,161.81l-3.61.06.06,3.71c0,.19.16.35.36.35h0l3.26-.06-.07-4.07Z"/>
      <rect class="cls-3" x="53.81" y="158.3" width="4.1" height="8.58" transform="translate(208.01 242.66) rotate(136.72)"/>
    </g>
    <line class="cls-9" x1="88.76" y1="122.99" x2="99.3" y2="122.99"/>
  </g>
  <g>
    <g>
      <g>
        <g>
          <path class="cls-2" d="M111.12,61.98h123.27c3.17,0,5.75,2.58,5.75,5.75v176.79c0,3.17-2.58,5.75-5.75,5.75h-123.27c-3.17,0-5.75-2.58-5.75-5.75V67.73c0-3.17,2.58-5.75,5.75-5.75Z"/>
          <path class="cls-5" d="M234.39,62.83c2.7,0,4.9,2.2,4.9,4.9v176.79c0,2.7-2.2,4.9-4.9,4.9h-123.27c-2.7,0-4.9-2.2-4.9-4.9V67.73c0-2.7,2.2-4.9,4.9-4.9h123.27M234.39,61.13h-123.27c-3.64,0-6.6,2.95-6.6,6.6v176.79c0,3.64,2.95,6.6,6.6,6.6h123.27c3.64,0,6.6-2.95,6.6-6.6V67.73c0-3.64-2.95-6.6-6.6-6.6h0Z"/>
        </g>
        <g>
          <path class="cls-3" d="M130.27,181.16h30.9c3.05,0,5.53,2.48,5.53,5.53v38.08c0,3.05-2.48,5.53-5.53,5.53h-30.9c-3.05,0-5.53-2.48-5.53-5.53v-38.09c0-3.05,2.48-5.53,5.53-5.53Z"/>
          <path class="cls-5" d="M161.17,182.01c2.58,0,4.68,2.1,4.68,4.68v38.09c0,2.58-2.1,4.68-4.68,4.68h-30.9c-2.58,0-4.68-2.1-4.68-4.68v-38.09c0-2.58,2.1-4.68,4.68-4.68h30.9M161.17,180.31h-30.9c-3.53,0-6.38,2.86-6.38,6.38v38.09c0,3.53,2.86,6.38,6.38,6.38h30.9c3.53,0,6.38-2.86,6.38-6.38v-38.09c0-3.53-2.86-6.38-6.38-6.38h0Z"/>
        </g>
        <rect class="cls-5" x="149.33" y="209.28" width="14.7" height="13.09" rx="1.66" ry="1.66"/>
        <path class="cls-5" d="M130.11,193.29c-.89,0-1.61.72-1.61,1.61s.72,1.61,1.61,1.61,1.61-.72,1.61-1.61-.72-1.61-1.61-1.61h0Z"/>
        <path class="cls-5" d="M150.76,193.29c-.89,0-1.61.72-1.61,1.61s.72,1.61,1.61,1.61,1.61-.72,1.61-1.61-.72-1.61-1.61-1.61h0Z"/>
        <path class="cls-5" d="M150.76,201.88c-.89,0-1.61.72-1.61,1.61s.72,1.61,1.61,1.61,1.61-.72,1.61-1.61-.72-1.61-1.61-1.61h0Z"/>
        <path class="cls-5" d="M130.11,198.5c-.89,0-1.61.72-1.61,1.61s.72,1.61,1.61,1.61,1.61-.72,1.61-1.61-.72-1.61-1.61-1.61h0Z"/>
        <g>
          <path class="cls-2" d="M165.88,257.83h18.67c1.2,0,2.17.97,2.17,2.17v10.86c0,4-3.24,7.24-7.24,7.24h-8.53c-4,0-7.24-3.24-7.24-7.24v-10.86c0-1.2.97-2.17,2.17-2.17Z"/>
          <path class="cls-5" d="M179.48,278.95h-8.53c-4.46,0-8.09-3.63-8.09-8.09v-10.86c0-1.67,1.36-3.02,3.02-3.02h18.67c1.67,0,3.02,1.36,3.02,3.02v10.86c0,4.46-3.63,8.09-8.09,8.09ZM165.88,258.68c-.73,0-1.32.59-1.32,1.32v10.86c0,3.52,2.87,6.39,6.39,6.39h8.53c3.52,0,6.39-2.87,6.39-6.39v-10.86c0-.73-.59-1.32-1.32-1.32h-18.67Z"/>
        </g>
        <path class="cls-5" d="M186.04,258.49h-21.65v-2.38c0-.87.71-1.57,1.57-1.57h18.51c.87,0,1.57.71,1.57,1.57v2.38ZM166.09,256.79h18.26v-.55h-18.26v.55Z"/>
        <polygon class="cls-5" points="179.5 249.41 170.94 249.41 164.88 251.13 164.88 253.57 170.94 255.29 179.5 255.29 185.55 253.57 185.55 251.13 179.5 249.41"/>
        <rect class="cls-5" x="166.55" y="260.51" width="1.7" height="10.14"/>
        <g>
          <path class="cls-2" d="M197.76,257.83h18.67c1.2,0,2.17.97,2.17,2.17v10.86c0,4-3.24,7.24-7.24,7.24h-8.53c-4,0-7.24-3.24-7.24-7.24v-10.86c0-1.2.97-2.17,2.17-2.17Z"/>
          <path class="cls-5" d="M211.35,278.95h-8.53c-4.46,0-8.09-3.63-8.09-8.09v-10.86c0-1.67,1.36-3.02,3.02-3.02h18.67c1.67,0,3.02,1.36,3.02,3.02v10.86c0,4.46-3.63,8.09-8.09,8.09ZM197.76,258.68c-.73,0-1.32.59-1.32,1.32v10.86c0,3.52,2.87,6.39,6.39,6.39h8.53c3.52,0,6.39-2.87,6.39-6.39v-10.86c0-.73-.59-1.32-1.32-1.32h-18.67Z"/>
        </g>
        <path class="cls-5" d="M217.92,258.49h-21.65v-2.38c0-.87.71-1.57,1.57-1.57h18.51c.87,0,1.57.71,1.57,1.57v2.38ZM197.96,256.79h18.26v-.55h-18.26v.55Z"/>
        <polygon class="cls-5" points="211.37 249.41 202.81 249.41 196.76 251.13 196.76 253.57 202.81 255.29 211.37 255.29 217.42 253.57 217.42 251.13 211.37 249.41"/>
        <rect class="cls-5" x="198.42" y="260.51" width="1.7" height="10.14"/>
        <g>
          <path class="cls-3" d="M112.46,247.1c-1.96,0-3.55-1.59-3.55-3.55s1.59-3.55,3.55-3.55,3.55,1.59,3.55,3.55-1.59,3.55-3.55,3.55Z"/>
          <path class="cls-5" d="M112.46,240.86c1.49,0,2.7,1.21,2.7,2.7s-1.21,2.7-2.7,2.7-2.7-1.21-2.7-2.7,1.21-2.7,2.7-2.7M112.46,239.16c-2.43,0-4.4,1.97-4.4,4.4s1.97,4.4,4.4,4.4,4.4-1.97,4.4-4.4-1.97-4.4-4.4-4.4h0Z"/>
        </g>
        <g>
          <path class="cls-3" d="M232.95,247.1c-1.96,0-3.55-1.59-3.55-3.55s1.59-3.55,3.55-3.55,3.55,1.59,3.55,3.55-1.59,3.55-3.55,3.55Z"/>
          <path class="cls-5" d="M232.95,240.86c1.49,0,2.7,1.21,2.7,2.7s-1.21,2.7-2.7,2.7-2.7-1.21-2.7-2.7,1.21-2.7,2.7-2.7M232.95,239.16c-2.43,0-4.4,1.97-4.4,4.4s1.97,4.4,4.4,4.4,4.4-1.97,4.4-4.4-1.97-4.4-4.4-4.4h0Z"/>
        </g>
        <g>
          <path class="cls-3" d="M112.46,72.44c-1.96,0-3.55-1.59-3.55-3.55s1.59-3.55,3.55-3.55,3.55,1.59,3.55,3.55-1.59,3.55-3.55,3.55Z"/>
          <path class="cls-5" d="M112.46,66.19c1.49,0,2.7,1.21,2.7,2.7s-1.21,2.7-2.7,2.7-2.7-1.21-2.7-2.7,1.21-2.7,2.7-2.7M112.46,64.49c-2.43,0-4.4,1.97-4.4,4.4s1.97,4.4,4.4,4.4,4.4-1.97,4.4-4.4-1.97-4.4-4.4-4.4h0Z"/>
        </g>
        <g>
          <path class="cls-3" d="M232.95,72.44c-1.96,0-3.55-1.59-3.55-3.55s1.59-3.55,3.55-3.55,3.55,1.59,3.55,3.55-1.59,3.55-3.55,3.55Z"/>
          <path class="cls-5" d="M232.95,66.19c1.49,0,2.7,1.21,2.7,2.7s-1.21,2.7-2.7,2.7-2.7-1.21-2.7-2.7,1.21-2.7,2.7-2.7M232.95,64.49c-2.43,0-4.4,1.97-4.4,4.4s1.97,4.4,4.4,4.4,4.4-1.97,4.4-4.4-1.97-4.4-4.4-4.4h0Z"/>
        </g>
      </g>
      <text class="cls-1"><tspan x="124.68" y="170.59">C</tspan><tspan class="cls-7" x="134.61" y="170.59">o</tspan><tspan class="cls-4" x="143.45" y="170.59">n</tspan><tspan x="151.99" y="170.59">t</tspan><tspan class="cls-4" x="157.21" y="170.59">r</tspan><tspan class="cls-8" x="163.28" y="170.59">o</tspan><tspan x="172.12" y="170.59">l</tspan><tspan class="cls-10" x="176.16" y="170.59"> </tspan><tspan x="178.46" y="170.59">V</tspan></text>
    </g>
    <line class="cls-9" x1="207.09" y1="293.05" x2="207.09" y2="278.96"/>
    <line class="cls-9" x1="247.5" y1="121.66" x2="247.5" y2="292.15"/>
    <line class="cls-9" x1="205.82" y1="292.15" x2="249" y2="292.15"/>
  </g>
  <line class="cls-9" x1="175.54" y1="291.85" x2="175.54" y2="277.75"/>
  <line class="cls-9" x1="98.3" y1="121.54" x2="98.3" y2="290.95"/>
  <line class="cls-9" x1="176.83" y1="290.95" x2="96.67" y2="290.95"/>
  <line class="cls-9" x1="262.31" y1="123.17" x2="246.43" y2="123.17"/>
</svg>