<svg xmlns="http://www.w3.org/2000/svg" viewBox="0 0 188.02 362.7"><defs><style>.cls-1{fill:#f6f6f6;}.cls-2{fill:#3c3c3b;}.cls-3{fill:#fff;}.cls-4{fill:#cc2a27;}.cls-5{fill:#1d1d1b;}.cls-6{fill:none;stroke:#1d1d1b;stroke-miterlimit:10;stroke-width:3px;}</style></defs><g id="Warstwa_3" data-name="Warstwa 3"><rect class="cls-1" x="58.89" y="197.94" width="119.24" height="93.22" rx="5.94"/><path class="cls-2" d="M172.19,292.16H64.82a6.94,6.94,0,0,1-6.93-6.94V203.88a6.94,6.94,0,0,1,6.93-6.94H172.19a6.94,6.94,0,0,1,6.94,6.94v81.34A6.94,6.94,0,0,1,172.19,292.16ZM64.82,198.94a4.94,4.94,0,0,0-4.93,4.94v81.34a4.94,4.94,0,0,0,4.93,4.94H172.19a5,5,0,0,0,4.94-4.94V203.88a4.94,4.94,0,0,0-4.94-4.94Z"/><rect class="cls-1" x="90.53" y="291.22" width="29.75" height="6.25"/><path class="cls-2" d="M121.27,298.48H89.53v-8.26h31.74Zm-29.74-2h27.74v-4.26H91.53Z"/><path class="cls-3" d="M93,297.5h24.63a0,0,0,0,1,0,0v31.19A2.61,2.61,0,0,1,115,331.3H95.6A2.61,2.61,0,0,1,93,328.69V297.5A0,0,0,0,1,93,297.5Z"/><path class="cls-2" d="M115,332.3H95.6A3.61,3.61,0,0,1,92,328.69V296.5h26.63v32.19A3.61,3.61,0,0,1,115,332.3ZM94,298.5v30.19a1.61,1.61,0,0,0,1.61,1.61H115a1.61,1.61,0,0,0,1.6-1.61V298.5Z"/><rect class="cls-2" x="99.9" y="300.06" width="2.19" height="28.61"/><rect class="cls-2" x="99.18" y="292.83" width="2.43" height="3"/><circle class="cls-2" cx="65.04" cy="204.16" r="2.56"/><circle class="cls-2" cx="171.4" cy="204.16" r="2.56"/><circle class="cls-2" cx="171.4" cy="284.88" r="2.56"/><circle class="cls-2" cx="65.3" cy="284.88" r="2.56"/><path class="cls-1" d="M91.35,190.08h20a1.11,1.11,0,0,1,1.11,1.11v6.54a0,0,0,0,1,0,0H90.24a0,0,0,0,1,0,0v-6.54A1.11,1.11,0,0,1,91.35,190.08Z"/><path class="cls-2" d="M113.41,198.72H89.24v-7.54a2.11,2.11,0,0,1,2.11-2.1h20a2.1,2.1,0,0,1,2.1,2.1Zm-22.17-2h20.17v-5.54a.1.1,0,0,0-.1-.1h-20a.1.1,0,0,0-.11.1Z"/><rect class="cls-2" x="98.9" y="192.03" width="2.43" height="4.07"/><path class="cls-4" d="M77,253.62v-8.5H74.31v-1.4h7v1.4h-2.7v8.5Z"/><path class="cls-4" d="M84.8,253.82a3.64,3.64,0,0,1-1.76-.43,3.27,3.27,0,0,1-1.43-4.11,3.24,3.24,0,0,1,.72-1,3.32,3.32,0,0,1,2.37-1,3.47,3.47,0,0,1,1.68.39,2.94,2.94,0,0,1,1.13,1.11,3.27,3.27,0,0,1,.4,1.64v.14s0,.09,0,.17h-5a1.88,1.88,0,0,0,.25,1,1.74,1.74,0,0,0,.71.66,2.19,2.19,0,0,0,1,.24,2.13,2.13,0,0,0,1-.23,2.41,2.41,0,0,0,.79-.69l1.09.56a3,3,0,0,1-1.22,1.14A3.57,3.57,0,0,1,84.8,253.82Zm-1.85-4h3.48a1.58,1.58,0,0,0-.32-.72,1.56,1.56,0,0,0-.6-.48,1.85,1.85,0,0,0-.82-.17,2,2,0,0,0-.84.16,1.52,1.52,0,0,0-.61.48A1.58,1.58,0,0,0,83,249.8Z"/><path class="cls-4" d="M91.56,253.82a1.61,1.61,0,0,1-1.29-.54,2.26,2.26,0,0,1-.46-1.52v-3.15h-.76v-1.13h.76v-2.3H91.3v2.3h1.41v1.13H91.3v3a1.05,1.05,0,0,0,.16.61.53.53,0,0,0,.46.22,1,1,0,0,0,.58-.2l.37,1.2a2.67,2.67,0,0,1-.62.24A2.72,2.72,0,0,1,91.56,253.82Z"/><path class="cls-4" d="M97.14,253.82a2.82,2.82,0,0,1-1.54-.43,3.07,3.07,0,0,1-1.1-1.16,3.42,3.42,0,0,1-.4-1.68,3.52,3.52,0,0,1,.39-1.67,3,3,0,0,1,1.08-1.16,2.87,2.87,0,0,1,1.57-.43,3,3,0,0,1,1.33.3,2.5,2.5,0,0,1,1,.83v-.94h1.49v6.14H99.43v-1a3,3,0,0,1-1,.87A2.79,2.79,0,0,1,97.14,253.82Zm.43-1.28a1.92,1.92,0,0,0,1-.26,1.81,1.81,0,0,0,.67-.7,2.31,2.31,0,0,0,0-2.05,2,2,0,0,0-2.64-.71,1.79,1.79,0,0,0-.68.71,2,2,0,0,0-.25,1,2.09,2.09,0,0,0,.25,1,1.81,1.81,0,0,0,.67.7A1.92,1.92,0,0,0,97.57,252.54Z"/><path class="cls-5" d="M75.72,271.62V259.25h6.66V261H77.69v3.59H82.2v1.72H77.69v3.62h4.69v1.72Z"/><path class="cls-5" d="M88.71,271.86a4.29,4.29,0,0,1-1.65-.31,4.15,4.15,0,0,1-1.35-.86,4.1,4.1,0,0,1-.92-1.3,3.94,3.94,0,0,1-.34-1.61,4,4,0,0,1,.32-1.57,4.28,4.28,0,0,1,3.92-2.51,4.92,4.92,0,0,1,1.44.22,3.73,3.73,0,0,1,1.13.57l-.66,1.26a2.67,2.67,0,0,0-1.64-.5,2.6,2.6,0,0,0-1.36.35,2.43,2.43,0,0,0-.89.94,2.66,2.66,0,0,0,0,2.53,2.44,2.44,0,0,0,.91.92,2.64,2.64,0,0,0,1.34.33,2.81,2.81,0,0,0,.89-.14,2.43,2.43,0,0,0,.72-.36l.67,1.26a3.62,3.62,0,0,1-1.13.56A4.44,4.44,0,0,1,88.71,271.86Z"/><path class="cls-5" d="M97.08,271.86a4.9,4.9,0,0,1-2.25-.51,4.1,4.1,0,0,1-1.59-1.44,3.91,3.91,0,0,1-.58-2.13,3.85,3.85,0,0,1,.58-2.12,4.1,4.1,0,0,1,1.59-1.44,4.91,4.91,0,0,1,2.25-.52,4.83,4.83,0,0,1,2.24.52,4.1,4.1,0,0,1,1.59,1.44,3.85,3.85,0,0,1,.58,2.12,3.91,3.91,0,0,1-.58,2.13,4.1,4.1,0,0,1-1.59,1.44A4.83,4.83,0,0,1,97.08,271.86Zm0-1.6a2.56,2.56,0,0,0,1.26-.32,2.3,2.3,0,0,0,.88-.87,2.74,2.74,0,0,0,0-2.57,2.32,2.32,0,0,0-.88-.88,2.56,2.56,0,0,0-1.26-.31,2.5,2.5,0,0,0-1.26.31,2.32,2.32,0,0,0-.88.88,2.46,2.46,0,0,0-.33,1.28,2.53,2.53,0,0,0,.33,1.29,2.3,2.3,0,0,0,.88.87A2.51,2.51,0,0,0,97.08,270.26Z"/><path class="cls-5" d="M104.1,271.62V259.25h3.18a6.45,6.45,0,0,1,2.46.47,6.19,6.19,0,0,1,2,1.32,6.07,6.07,0,0,1,1.33,2,6.3,6.3,0,0,1,.47,2.43,6.12,6.12,0,0,1-.47,2.43,6,6,0,0,1-1.32,2,6.12,6.12,0,0,1-2,1.32,6.45,6.45,0,0,1-2.46.46Zm2-1.75h1a4.26,4.26,0,0,0,3.11-1.27,4.44,4.44,0,0,0,.91-1.41,4.58,4.58,0,0,0,.33-1.75,4.63,4.63,0,0,0-.33-1.76,4.29,4.29,0,0,0-4-2.68h-1Z"/><path class="cls-5" d="M119.56,271.86a4.45,4.45,0,0,1-2.2-.53,4,4,0,0,1-1.54-1.45,3.89,3.89,0,0,1-.56-2.08,4,4,0,0,1,.31-1.6,4.21,4.21,0,0,1,.9-1.3,4,4,0,0,1,1.33-.88,4.19,4.19,0,0,1,1.63-.32,4.33,4.33,0,0,1,2.11.5,3.6,3.6,0,0,1,1.41,1.38,4.18,4.18,0,0,1,.5,2.05c0,.07,0,.13,0,.17s0,.12,0,.22h-6.26a2.36,2.36,0,0,0,.32,1.22,2.2,2.2,0,0,0,.88.83,2.71,2.71,0,0,0,1.3.29,2.63,2.63,0,0,0,1.24-.28,2.93,2.93,0,0,0,1-.86l1.35.7a3.78,3.78,0,0,1-1.51,1.43A4.6,4.6,0,0,1,119.56,271.86Zm-2.32-5h4.36a2,2,0,0,0-.4-.91,2.1,2.1,0,0,0-.75-.6,2.45,2.45,0,0,0-1-.21,2.54,2.54,0,0,0-1.06.21,1.85,1.85,0,0,0-.76.59A2.1,2.1,0,0,0,117.24,266.85Z"/><path class="cls-5" d="M128,271.86a2,2,0,0,1-1.61-.67,2.86,2.86,0,0,1-.58-1.9v-3.93h-.94v-1.42h.94v-2.87h1.87v2.87h1.76v1.42h-1.76v3.8a1.32,1.32,0,0,0,.2.78.66.66,0,0,0,.57.27,1.16,1.16,0,0,0,.72-.26l.47,1.5a2.94,2.94,0,0,1-.77.3A3.24,3.24,0,0,1,128,271.86Z"/><line class="cls-6" x1="100.73" y1="189.26" x2="100.73" y2="122.94"/><line class="cls-6" x1="102.23" y1="122.94" y2="122.94"/></g></svg>