<svg xmlns="http://www.w3.org/2000/svg" viewBox="0 0 188.02 362.7"><defs><style>.cls-1{fill:#f6f6f6;}.cls-2{fill:#3c3c3b;}.cls-3{fill:#fff;}.cls-4{fill:#cc2a27;}.cls-5{fill:#1d1d1b;}.cls-6{fill:none;stroke:#1d1d1b;stroke-miterlimit:10;stroke-width:3px;}</style></defs><g id="Warstwa_3" data-name="Warstwa 3"><rect class="cls-1" x="58.97" y="92.09" width="119.24" height="93.22" rx="5.94"/><path class="cls-2" d="M172.28,186.31H64.91A7,7,0,0,1,58,179.37V98a7,7,0,0,1,6.94-6.93H172.28A6.94,6.94,0,0,1,179.22,98v81.35A6.94,6.94,0,0,1,172.28,186.31ZM64.91,93.09A4.94,4.94,0,0,0,60,98v81.35a5,5,0,0,0,4.94,4.94H172.28a5,5,0,0,0,4.94-4.94V98a4.94,4.94,0,0,0-4.94-4.93Z"/><rect class="cls-1" x="90.62" y="185.37" width="29.75" height="6.25"/><path class="cls-2" d="M121.36,192.62H89.62v-8.25h31.74Zm-29.74-2h27.74v-4.25H91.62Z"/><path class="cls-3" d="M93.08,191.65h24.63a0,0,0,0,1,0,0v31.19a2.61,2.61,0,0,1-2.61,2.61H95.69a2.61,2.61,0,0,1-2.61-2.61V191.65A0,0,0,0,1,93.08,191.65Z"/><path class="cls-2" d="M115.11,226.44H95.69a3.61,3.61,0,0,1-3.61-3.6V190.65h26.63v32.19A3.6,3.6,0,0,1,115.11,226.44Zm-21-33.79v30.19a1.61,1.61,0,0,0,1.61,1.6h19.42a1.6,1.6,0,0,0,1.6-1.6V192.65Z"/><rect class="cls-2" x="99.99" y="194.21" width="2.19" height="28.61"/><rect class="cls-2" x="99.27" y="186.98" width="2.43" height="3"/><circle class="cls-2" cx="65.13" cy="98.31" r="2.56"/><circle class="cls-2" cx="171.49" cy="98.31" r="2.56"/><circle class="cls-2" cx="171.49" cy="179.02" r="2.56"/><circle class="cls-2" cx="65.39" cy="179.02" r="2.56"/><path class="cls-1" d="M44.1,119.66H66.27a0,0,0,0,1,0,0v6.54a1.11,1.11,0,0,1-1.11,1.11h-20a1.11,1.11,0,0,1-1.11-1.11v-6.54a0,0,0,0,1,0,0Z" transform="translate(178.66 68.29) rotate(90)"/><path class="cls-2" d="M60,135.56H52.47a2.11,2.11,0,0,1-2.11-2.1v-20a2.12,2.12,0,0,1,2.11-2.11H60Zm-7.54-22.17a.11.11,0,0,0-.11.11v20a.11.11,0,0,0,.11.1H58V113.39Z"/><rect class="cls-2" x="54.14" y="120.22" width="2.43" height="4.07" transform="translate(177.62 66.9) rotate(90)"/><rect class="cls-2" x="157.35" y="193.31" width="1.35" height="17.8"/><rect class="cls-2" x="167.31" y="189.29" width="1.14" height="13.01" transform="translate(-89.28 176.06) rotate(-45)"/><rect class="cls-2" x="162.11" y="192.41" width="1.14" height="9.6" transform="translate(-63.08 77.27) rotate(-22.5)"/><rect class="cls-2" x="148" y="189.29" width="1.27" height="13.01" transform="translate(115.29 439.35) rotate(-135)"/><rect class="cls-2" x="152.88" y="192.41" width="1.14" height="9.61" transform="translate(219.75 438.13) rotate(-157.5)"/><path class="cls-4" d="M76.71,147.65v-8.51H74v-1.39h7v1.39h-2.7v8.51Z"/><path class="cls-4" d="M84.51,147.84a3.56,3.56,0,0,1-1.76-.43,3.19,3.19,0,0,1-1.23-1.16,3.13,3.13,0,0,1-.45-1.66,3.18,3.18,0,0,1,1-2.33,3.32,3.32,0,0,1,2.37-.95,3.37,3.37,0,0,1,1.68.4,2.85,2.85,0,0,1,1.13,1.1,3.27,3.27,0,0,1,.41,1.64.76.76,0,0,0,0,.14s0,.09,0,.17h-5a1.88,1.88,0,0,0,.25,1,1.81,1.81,0,0,0,.71.66,2.19,2.19,0,0,0,1,.24,2.13,2.13,0,0,0,1-.23,2.4,2.4,0,0,0,.79-.68l1.09.55a3.14,3.14,0,0,1-1.22,1.15A3.68,3.68,0,0,1,84.51,147.84Zm-1.85-4h3.48a1.48,1.48,0,0,0-.32-.72,1.56,1.56,0,0,0-.6-.48,2,2,0,0,0-.82-.17,2.06,2.06,0,0,0-.84.16,1.52,1.52,0,0,0-.61.48A1.58,1.58,0,0,0,82.66,143.82Z"/><path class="cls-4" d="M91.27,147.84A1.61,1.61,0,0,1,90,147.3a2.32,2.32,0,0,1-.46-1.52v-3.14h-.75V141.5h.75v-2.3H91v2.3h1.41v1.14H91v3a1.09,1.09,0,0,0,.15.62.55.55,0,0,0,.46.21,1,1,0,0,0,.58-.2l.37,1.2a2.5,2.5,0,0,1-.62.24A2.72,2.72,0,0,1,91.27,147.84Z"/><path class="cls-4" d="M96.85,147.84a2.84,2.84,0,0,1-1.54-.43,3,3,0,0,1-1.1-1.16,3.42,3.42,0,0,1-.4-1.68,3.52,3.52,0,0,1,.39-1.67,3,3,0,0,1,1.08-1.16,2.89,2.89,0,0,1,1.57-.43,3,3,0,0,1,1.33.3,2.5,2.5,0,0,1,1,.83v-.94h1.49v6.15H99.14v-1a2.88,2.88,0,0,1-1,.87A2.79,2.79,0,0,1,96.85,147.84Zm.43-1.28a2,2,0,0,0,1-.25,1.83,1.83,0,0,0,.67-.71,2.31,2.31,0,0,0,0-2,2,2,0,0,0-2.64-.71,1.79,1.79,0,0,0-.68.71,2,2,0,0,0-.25,1,2.09,2.09,0,0,0,.25,1,1.83,1.83,0,0,0,.67.71A2,2,0,0,0,97.28,146.56Z"/><path class="cls-5" d="M75.43,165.65V153.27h6.66V155H77.4v3.58h4.51v1.73H77.4v3.61h4.69v1.73Z"/><path class="cls-5" d="M88.42,165.89a4.29,4.29,0,0,1-1.65-.32,4.15,4.15,0,0,1-1.35-.86,4,4,0,0,1-.92-1.3,3.89,3.89,0,0,1-.34-1.6,4,4,0,0,1,.32-1.58,4.24,4.24,0,0,1,3.92-2.5,4.92,4.92,0,0,1,1.44.21,3.92,3.92,0,0,1,1.14.57l-.67,1.26a2.67,2.67,0,0,0-1.64-.5,2.6,2.6,0,0,0-1.36.35,2.43,2.43,0,0,0-.89.94,2.55,2.55,0,0,0-.31,1.25,2.58,2.58,0,0,0,.33,1.29,2.48,2.48,0,0,0,.91.91,2.66,2.66,0,0,0,1.34.33,2.82,2.82,0,0,0,.89-.13,2.44,2.44,0,0,0,.72-.37L91,165.1a3.79,3.79,0,0,1-1.14.56A4.45,4.45,0,0,1,88.42,165.89Z"/><path class="cls-5" d="M96.79,165.89a4.91,4.91,0,0,1-2.25-.52A4.1,4.1,0,0,1,93,163.93a4.18,4.18,0,0,1,0-4.25,4.1,4.1,0,0,1,1.59-1.44,4.9,4.9,0,0,1,2.25-.51,4.83,4.83,0,0,1,2.24.51,4.1,4.1,0,0,1,1.59,1.44,4.18,4.18,0,0,1,0,4.25A4.1,4.1,0,0,1,99,165.37,4.83,4.83,0,0,1,96.79,165.89Zm0-1.61a2.56,2.56,0,0,0,1.26-.31,2.32,2.32,0,0,0,.88-.88,2.74,2.74,0,0,0,0-2.57,2.3,2.3,0,0,0-.88-.87,2.56,2.56,0,0,0-1.26-.32,2.51,2.51,0,0,0-1.26.32,2.3,2.3,0,0,0-.88.87,2.67,2.67,0,0,0,0,2.57,2.32,2.32,0,0,0,.88.88A2.5,2.5,0,0,0,96.79,164.28Z"/><path class="cls-5" d="M105.86,165.65V155h-3.37v-1.75h8.7V155h-3.37v10.63Z"/><path class="cls-5" d="M115.61,165.89a4.45,4.45,0,0,1-2.2-.54,4,4,0,0,1-1.54-1.45,4.15,4.15,0,0,1-.24-3.68,4.13,4.13,0,0,1,2.22-2.18,4.2,4.2,0,0,1,1.64-.31,4.31,4.31,0,0,1,2.1.49A3.6,3.6,0,0,1,119,159.6a4.08,4.08,0,0,1,.5,2.06.76.76,0,0,1,0,.16c0,.05,0,.12,0,.22h-6.26a2.34,2.34,0,0,0,.32,1.22,2.14,2.14,0,0,0,.88.83,2.74,2.74,0,0,0,1.3.3,2.64,2.64,0,0,0,1.24-.29,3,3,0,0,0,1-.85l1.35.69a3.78,3.78,0,0,1-1.51,1.43A4.61,4.61,0,0,1,115.61,165.89Zm-2.32-5h4.36a2,2,0,0,0-.4-.91,2.21,2.21,0,0,0-.75-.6,2.45,2.45,0,0,0-1-.21,2.54,2.54,0,0,0-1.06.21,1.75,1.75,0,0,0-.75.59A2,2,0,0,0,113.29,160.87Z"/><path class="cls-5" d="M121.73,165.65V158h1.87v1.11a3,3,0,0,1,1-1,2.67,2.67,0,0,1,1.34-.34,3.09,3.09,0,0,1,.78.1,2.76,2.76,0,0,1,.69.27l-.78,1.58a1.63,1.63,0,0,0-.57-.24,2.3,2.3,0,0,0-.6-.09,1.76,1.76,0,0,0-.91.25,2,2,0,0,0-.69.63,1.45,1.45,0,0,0-.27.84v4.58Z"/><path class="cls-5" d="M129,165.65V158h1.87v.92A3.59,3.59,0,0,1,132,158a2.9,2.9,0,0,1,1.29-.28,3.1,3.1,0,0,1,1.62.41,2.26,2.26,0,0,1,1,1.1,3.79,3.79,0,0,1,1.18-1.12,3,3,0,0,1,1.53-.39,3.07,3.07,0,0,1,1.47.34,2.5,2.5,0,0,1,1,1,2.93,2.93,0,0,1,.37,1.52v5.08h-1.87v-4.57a2,2,0,0,0-.44-1.36,1.55,1.55,0,0,0-1.2-.5,1.87,1.87,0,0,0-.92.22,1.68,1.68,0,0,0-.63.58,1.4,1.4,0,0,0-.24.77v4.86h-1.86V161a1.88,1.88,0,0,0-.44-1.3,1.48,1.48,0,0,0-1.18-.49,1.84,1.84,0,0,0-.92.22,1.71,1.71,0,0,0-.65.57,1.38,1.38,0,0,0-.24.78v4.86Z"/><line class="cls-6" x1="50.47" y1="122.94" y2="122.94"/></g></svg>