<svg xmlns="http://www.w3.org/2000/svg" viewBox="0 0 267.07 362.7"><defs><style>.cls-1{fill:none;stroke:#1d1d1b;stroke-miterlimit:10;stroke-width:3px;}.cls-2{fill:#f6f6f6;}.cls-3{fill:#3c3c3b;}.cls-4{fill:#fff;}.cls-5{fill:#1d1d1b;}</style></defs><g id="Warstwa_3" data-name="Warstwa 3"><line class="cls-1" x1="229.91" y1="189.33" x2="229.91" y2="123.02"/><line class="cls-1" x1="228.41" y1="123.02" x2="267.07" y2="123.02"/><rect class="cls-2" x="65.48" y="188.9" width="199.57" height="25.94"/><path class="cls-3" d="M265.8,215.6H64.72V188.15H265.8ZM66.24,214.08H264.29V189.66h-198Z"/><rect class="cls-3" x="264.3" y="185.12" width="2.77" height="33.51"/><rect class="cls-3" x="63.57" y="185.12" width="2.77" height="33.51"/><rect class="cls-4" x="76.69" y="215.16" width="177.27" height="85.45"/><path class="cls-3" d="M254.71,301.36H75.93v-87H254.71ZM77.44,299.85H253.2V215.91H77.44Z"/><circle class="cls-3" cx="83.01" cy="292.82" r="2.18"/><circle class="cls-3" cx="165.18" cy="292.82" r="2.18"/><circle class="cls-3" cx="246.68" cy="292.82" r="2.18"/><path class="cls-5" d="M139.36,261.73V250.48h-3.57v-1.85H145v1.85h-3.57v11.25Z"/><path class="cls-5" d="M152.62,262a6.31,6.31,0,0,1-2.57-.52,6.71,6.71,0,0,1-2.11-1.46,7,7,0,0,1-1.42-2.17,7.14,7.14,0,0,1,0-5.3,7,7,0,0,1,1.42-2.16,6.71,6.71,0,0,1,2.11-1.46,6.61,6.61,0,0,1,5.14,0,6.71,6.71,0,0,1,2.11,1.46,7,7,0,0,1,1.42,2.16,7.14,7.14,0,0,1,0,5.3A7,7,0,0,1,157.3,260a6.71,6.71,0,0,1-2.11,1.46A6.31,6.31,0,0,1,152.62,262Zm0-2a4.09,4.09,0,0,0,3.12-1.36,4.61,4.61,0,0,0,.93-1.52,5.66,5.66,0,0,0,0-3.81,4.61,4.61,0,0,0-.93-1.52,4.11,4.11,0,0,0-1.39-1,4.31,4.31,0,0,0-1.73-.35,4.26,4.26,0,0,0-1.72.35,4.21,4.21,0,0,0-1.39,1,4.76,4.76,0,0,0-.92,1.52,5.66,5.66,0,0,0,0,3.81,4.76,4.76,0,0,0,.92,1.52,4.21,4.21,0,0,0,1.39,1A4.1,4.1,0,0,0,152.62,260Z"/><path class="cls-5" d="M162.16,261.73v-13.1h2.08V259.9h5v1.83Z"/><path class="cls-5" d="M171.67,261.73v-13.1h7.05v1.82h-5v3.8h4.78v1.83h-4.78v3.82h5v1.83Z"/><path class="cls-5" d="M182,261.73v-13.1h3.36a6.55,6.55,0,0,1,2.6.5,6.36,6.36,0,0,1,2.1,1.39,6.53,6.53,0,0,1,1.41,2.09,6.7,6.7,0,0,1,.5,2.58,6.62,6.62,0,0,1-.5,2.57,6.4,6.4,0,0,1-3.51,3.47,6.73,6.73,0,0,1-2.6.5Zm2.08-1.86h1.06A4.47,4.47,0,0,0,189.4,257a4.87,4.87,0,0,0,.35-1.85,4.93,4.93,0,0,0-.35-1.86,4.46,4.46,0,0,0-2.44-2.48,4.51,4.51,0,0,0-1.82-.36h-1.06Z"/></g></svg>